M48
; DRILL file {KiCad 8.0.6} date 2024-11-07T15:38:55-0300
; FORMAT={-:-/ absolute / inch / decimal}
; #@! TF.CreationDate,2024-11-07T15:38:55-03:00
; #@! TF.GenerationSoftware,Kicad,Pcbnew,8.0.6
; #@! TF.FileFunction,Plated,1,2,PTH
FMAT,2
INCH
; #@! TA.AperFunction,Plated,PTH,ComponentDrill
T1C0.0295
; #@! TA.AperFunction,Plated,PTH,ViaDrill
T2C0.0315
; #@! TA.AperFunction,Plated,PTH,ComponentDrill
T3C0.0394
%
G90
G05
T1
X6.064Y-2.1646
X6.064Y-2.263
T2
X5.5059Y-4.7815
X5.7264Y-3.5787
X5.7854Y-2.2411
T3
X4.8187Y-2.1272
X4.8187Y-2.2272
X4.9085Y-2.6169
X4.9085Y-2.7169
X4.9085Y-2.8169
X4.9085Y-2.9169
X4.9085Y-3.0169
X4.9085Y-3.1169
X4.9085Y-3.2169
X4.9085Y-3.3169
X4.9085Y-3.4169
X4.9085Y-3.5169
X4.9085Y-3.6169
X4.9085Y-3.7169
X4.9085Y-3.8169
X4.9085Y-3.9169
X4.9085Y-4.0169
X4.9085Y-4.1169
X4.9085Y-4.2169
X4.9085Y-4.3169
X4.9085Y-4.4169
X4.9085Y-4.5169
X4.9085Y-4.8929
X4.9187Y-2.1272
X4.9187Y-2.2272
X5.0085Y-2.6169
X5.0085Y-2.7169
X5.0085Y-2.8169
X5.0085Y-2.9169
X5.0085Y-3.0169
X5.0085Y-3.1169
X5.0085Y-3.2169
X5.0085Y-3.3169
X5.0085Y-3.4169
X5.0085Y-3.5169
X5.0085Y-3.6169
X5.0085Y-3.7169
X5.0085Y-3.8169
X5.0085Y-3.9169
X5.0085Y-4.0169
X5.0085Y-4.1169
X5.0085Y-4.2169
X5.0085Y-4.3169
X5.0085Y-4.4169
X5.0085Y-4.5169
X5.0085Y-4.8929
X5.0187Y-2.1272
X5.0187Y-2.2272
X5.1085Y-4.8929
X5.1187Y-2.1272
X5.1187Y-2.2272
X5.2085Y-4.8929
X5.2187Y-2.1272
X5.2187Y-2.2272
X5.3187Y-2.1272
X5.3187Y-2.2272
X5.4187Y-2.1272
X5.4187Y-2.2272
X5.4823Y-2.6169
X5.4823Y-2.7169
X5.4823Y-2.8169
X5.4823Y-2.9169
X5.4823Y-3.0169
X5.4823Y-3.1169
X5.4823Y-3.2169
X5.4823Y-3.3169
X5.4823Y-3.4169
X5.4823Y-3.5169
X5.4823Y-3.6169
X5.4823Y-3.7169
X5.4823Y-3.8169
X5.4823Y-3.9169
X5.4823Y-4.0169
X5.4823Y-4.1169
X5.4823Y-4.2169
X5.4823Y-4.3169
X5.4823Y-4.4169
X5.4823Y-4.5169
X5.5187Y-2.1272
X5.5187Y-2.2272
X6.0823Y-2.6169
X6.0823Y-2.7169
X6.0823Y-2.8169
X6.0823Y-2.9169
X6.0823Y-3.0169
X6.0823Y-3.1169
X6.0823Y-3.2169
X6.0823Y-3.3169
X6.0823Y-3.4169
X6.0823Y-3.5169
X6.0823Y-3.6169
X6.0823Y-3.7169
X6.0823Y-3.8169
X6.0823Y-3.9169
X6.0823Y-4.0169
X6.0823Y-4.1169
X6.0823Y-4.2169
X6.0823Y-4.3169
X6.0823Y-4.4169
X6.0823Y-4.5169
X6.3152Y-2.1646
X6.3152Y-2.2646
X6.3604Y-4.8929
X6.4152Y-2.1646
X6.4152Y-2.2646
X6.4604Y-4.8929
X6.5152Y-2.1646
X6.5152Y-2.2646
X6.5604Y-4.8929
X6.562Y-2.6169
X6.562Y-2.7169
X6.562Y-2.8169
X6.562Y-2.9169
X6.562Y-3.0169
X6.562Y-3.1169
X6.562Y-3.2169
X6.562Y-3.3169
X6.562Y-3.4169
X6.562Y-3.5169
X6.562Y-3.6169
X6.562Y-3.7169
X6.562Y-3.8169
X6.562Y-3.9169
X6.562Y-4.0169
X6.562Y-4.1169
X6.562Y-4.2169
X6.562Y-4.3169
X6.562Y-4.4169
X6.562Y-4.5169
X6.6152Y-2.1646
X6.6152Y-2.2646
X6.6604Y-4.8929
X6.662Y-2.6169
X6.662Y-2.7169
X6.662Y-2.8169
X6.662Y-2.9169
X6.662Y-3.0169
X6.662Y-3.1169
X6.662Y-3.2169
X6.662Y-3.3169
X6.662Y-3.4169
X6.662Y-3.5169
X6.662Y-3.6169
X6.662Y-3.7169
X6.662Y-3.8169
X6.662Y-3.9169
X6.662Y-4.0169
X6.662Y-4.1169
X6.662Y-4.2169
X6.662Y-4.3169
X6.662Y-4.4169
X6.662Y-4.5169
M30
