%TF.GenerationSoftware,KiCad,Pcbnew,8.0.6*%
%TF.CreationDate,2024-11-07T15:38:19-03:00*%
%TF.ProjectId,Blue Pill extension board v2 (sin PTH),426c7565-2050-4696-9c6c-20657874656e,rev?*%
%TF.SameCoordinates,Original*%
%TF.FileFunction,Soldermask,Bot*%
%TF.FilePolarity,Negative*%
%FSLAX46Y46*%
G04 Gerber Fmt 4.6, Leading zero omitted, Abs format (unit mm)*
G04 Created by KiCad (PCBNEW 8.0.6) date 2024-11-07 15:38:19*
%MOMM*%
%LPD*%
G01*
G04 APERTURE LIST*
G04 Aperture macros list*
%AMRoundRect*
0 Rectangle with rounded corners*
0 $1 Rounding radius*
0 $2 $3 $4 $5 $6 $7 $8 $9 X,Y pos of 4 corners*
0 Add a 4 corners polygon primitive as box body*
4,1,4,$2,$3,$4,$5,$6,$7,$8,$9,$2,$3,0*
0 Add four circle primitives for the rounded corners*
1,1,$1+$1,$2,$3*
1,1,$1+$1,$4,$5*
1,1,$1+$1,$6,$7*
1,1,$1+$1,$8,$9*
0 Add four rect primitives between the rounded corners*
20,1,$1+$1,$2,$3,$4,$5,0*
20,1,$1+$1,$4,$5,$6,$7,0*
20,1,$1+$1,$6,$7,$8,$9,0*
20,1,$1+$1,$8,$9,$2,$3,0*%
G04 Aperture macros list end*
%ADD10R,1.700000X1.700000*%
%ADD11O,1.700000X1.700000*%
%ADD12C,1.700000*%
%ADD13C,1.304000*%
%ADD14RoundRect,0.102000X-0.550000X0.550000X-0.550000X-0.550000X0.550000X-0.550000X0.550000X0.550000X0*%
G04 APERTURE END LIST*
D10*
%TO.C,J2*%
X124675000Y-114730000D03*
D11*
X127215000Y-114730000D03*
X124675000Y-112190000D03*
X127215000Y-112190000D03*
X124675000Y-109650000D03*
X127215000Y-109650000D03*
X124675000Y-107110000D03*
X127215000Y-107110000D03*
X124675000Y-104570000D03*
X127215000Y-104570000D03*
X124675000Y-102030000D03*
X127215000Y-102030000D03*
X124675000Y-99490000D03*
X127215000Y-99490000D03*
X124675000Y-96950000D03*
X127215000Y-96950000D03*
X124675000Y-94410000D03*
X127215000Y-94410000D03*
X124675000Y-91870000D03*
X127215000Y-91870000D03*
X124675000Y-89330000D03*
X127215000Y-89330000D03*
X124675000Y-86790000D03*
X127215000Y-86790000D03*
X124675000Y-84250000D03*
X127215000Y-84250000D03*
X124675000Y-81710000D03*
X127215000Y-81710000D03*
X124675000Y-79170000D03*
X127215000Y-79170000D03*
X124675000Y-76630000D03*
X127215000Y-76630000D03*
X124675000Y-74090000D03*
X127215000Y-74090000D03*
X124675000Y-71550000D03*
X127215000Y-71550000D03*
X124675000Y-69010000D03*
X127215000Y-69010000D03*
X124675000Y-66470000D03*
X127215000Y-66470000D03*
%TD*%
D10*
%TO.C,U1*%
X139250000Y-66470000D03*
D12*
X139250000Y-69010000D03*
X139250000Y-71550000D03*
X139250000Y-74090000D03*
X139250000Y-76630000D03*
X139250000Y-79170000D03*
X139250000Y-81710000D03*
X139250000Y-84250000D03*
X139250000Y-86790000D03*
X139250000Y-89330000D03*
X139250000Y-91870000D03*
X139250000Y-94410000D03*
X139250000Y-96950000D03*
X139250000Y-99490000D03*
X139250000Y-102030000D03*
X139250000Y-104570000D03*
X139250000Y-107110000D03*
X139250000Y-109650000D03*
X139250000Y-112190000D03*
X139250000Y-114730000D03*
X154490000Y-114730000D03*
X154490000Y-112190000D03*
X154490000Y-109650000D03*
X154490000Y-107110000D03*
X154490000Y-104570000D03*
X154490000Y-102030000D03*
X154490000Y-99490000D03*
X154490000Y-96950000D03*
X154490000Y-94410000D03*
X154490000Y-91870000D03*
X154490000Y-89330000D03*
X154490000Y-86790000D03*
X154490000Y-84250000D03*
X154490000Y-81710000D03*
X154490000Y-79170000D03*
X154490000Y-76630000D03*
X154490000Y-74090000D03*
X154490000Y-71550000D03*
X154490000Y-69010000D03*
X154490000Y-66470000D03*
%TD*%
D10*
%TO.C,J4*%
X166675000Y-114730000D03*
D11*
X169215000Y-114730000D03*
X166675000Y-112190000D03*
X169215000Y-112190000D03*
X166675000Y-109650000D03*
X169215000Y-109650000D03*
X166675000Y-107110000D03*
X169215000Y-107110000D03*
X166675000Y-104570000D03*
X169215000Y-104570000D03*
X166675000Y-102030000D03*
X169215000Y-102030000D03*
X166675000Y-99490000D03*
X169215000Y-99490000D03*
X166675000Y-96950000D03*
X169215000Y-96950000D03*
X166675000Y-94410000D03*
X169215000Y-94410000D03*
X166675000Y-91870000D03*
X169215000Y-91870000D03*
X166675000Y-89330000D03*
X169215000Y-89330000D03*
X166675000Y-86790000D03*
X169215000Y-86790000D03*
X166675000Y-84250000D03*
X169215000Y-84250000D03*
X166675000Y-81710000D03*
X169215000Y-81710000D03*
X166675000Y-79170000D03*
X169215000Y-79170000D03*
X166675000Y-76630000D03*
X169215000Y-76630000D03*
X166675000Y-74090000D03*
X169215000Y-74090000D03*
X166675000Y-71550000D03*
X169215000Y-71550000D03*
X166675000Y-69010000D03*
X169215000Y-69010000D03*
X166675000Y-66470000D03*
X169215000Y-66470000D03*
%TD*%
D10*
%TO.C,J3*%
X122395000Y-54030000D03*
D11*
X122395000Y-56570000D03*
X124935000Y-54030000D03*
X124935000Y-56570000D03*
X127475000Y-54030000D03*
X127475000Y-56570000D03*
X130015000Y-54030000D03*
X130015000Y-56570000D03*
X132555000Y-54030000D03*
X132555000Y-56570000D03*
X135095000Y-54030000D03*
X135095000Y-56570000D03*
X137635000Y-54030000D03*
X137635000Y-56570000D03*
X140175000Y-54030000D03*
X140175000Y-56570000D03*
%TD*%
D13*
%TO.C,C1*%
X154025000Y-57480000D03*
D14*
X154025000Y-54980000D03*
%TD*%
D10*
%TO.C,J5*%
X169175000Y-124280000D03*
D11*
X166635000Y-124280000D03*
X164095000Y-124280000D03*
X161555000Y-124280000D03*
%TD*%
D10*
%TO.C,J1*%
X160405000Y-57520000D03*
D11*
X160405000Y-54980000D03*
X162945000Y-57520000D03*
X162945000Y-54980000D03*
X165485000Y-57520000D03*
X165485000Y-54980000D03*
X168025000Y-57520000D03*
X168025000Y-54980000D03*
%TD*%
D10*
%TO.C,J6*%
X124675000Y-124280000D03*
D11*
X127215000Y-124280000D03*
X129755000Y-124280000D03*
X132295000Y-124280000D03*
%TD*%
M02*
