%TF.GenerationSoftware,KiCad,Pcbnew,8.0.6*%
%TF.CreationDate,2024-11-07T15:38:19-03:00*%
%TF.ProjectId,Blue Pill extension board v2 (sin PTH),426c7565-2050-4696-9c6c-20657874656e,rev?*%
%TF.SameCoordinates,Original*%
%TF.FileFunction,Copper,L1,Top*%
%TF.FilePolarity,Positive*%
%FSLAX46Y46*%
G04 Gerber Fmt 4.6, Leading zero omitted, Abs format (unit mm)*
G04 Created by KiCad (PCBNEW 8.0.6) date 2024-11-07 15:38:19*
%MOMM*%
%LPD*%
G01*
G04 APERTURE LIST*
G04 Aperture macros list*
%AMRoundRect*
0 Rectangle with rounded corners*
0 $1 Rounding radius*
0 $2 $3 $4 $5 $6 $7 $8 $9 X,Y pos of 4 corners*
0 Add a 4 corners polygon primitive as box body*
4,1,4,$2,$3,$4,$5,$6,$7,$8,$9,$2,$3,0*
0 Add four circle primitives for the rounded corners*
1,1,$1+$1,$2,$3*
1,1,$1+$1,$4,$5*
1,1,$1+$1,$6,$7*
1,1,$1+$1,$8,$9*
0 Add four rect primitives between the rounded corners*
20,1,$1+$1,$2,$3,$4,$5,0*
20,1,$1+$1,$4,$5,$6,$7,0*
20,1,$1+$1,$6,$7,$8,$9,0*
20,1,$1+$1,$8,$9,$2,$3,0*%
G04 Aperture macros list end*
%TA.AperFunction,ComponentPad*%
%ADD10R,1.700000X1.700000*%
%TD*%
%TA.AperFunction,ComponentPad*%
%ADD11O,1.700000X1.700000*%
%TD*%
%TA.AperFunction,ComponentPad*%
%ADD12C,1.700000*%
%TD*%
%TA.AperFunction,SMDPad,CuDef*%
%ADD13RoundRect,0.250000X-0.350000X-0.450000X0.350000X-0.450000X0.350000X0.450000X-0.350000X0.450000X0*%
%TD*%
%TA.AperFunction,ComponentPad*%
%ADD14C,1.100000*%
%TD*%
%TA.AperFunction,ComponentPad*%
%ADD15R,1.100000X1.100000*%
%TD*%
%TA.AperFunction,SMDPad,CuDef*%
%ADD16RoundRect,0.250000X0.350000X0.450000X-0.350000X0.450000X-0.350000X-0.450000X0.350000X-0.450000X0*%
%TD*%
%TA.AperFunction,ViaPad*%
%ADD17C,1.200000*%
%TD*%
%TA.AperFunction,Conductor*%
%ADD18C,0.500000*%
%TD*%
G04 APERTURE END LIST*
D10*
%TO.P,J2,1,Pin_1*%
%TO.N,3V3_L*%
X124675000Y-114730000D03*
D11*
%TO.P,J2,2,Pin_2*%
X127215000Y-114730000D03*
%TO.P,J2,3,Pin_3*%
%TO.N,GND*%
X124675000Y-112190000D03*
%TO.P,J2,4,Pin_4*%
X127215000Y-112190000D03*
%TO.P,J2,5,Pin_5*%
%TO.N,5V*%
X124675000Y-109650000D03*
%TO.P,J2,6,Pin_6*%
X127215000Y-109650000D03*
%TO.P,J2,7,Pin_7*%
%TO.N,PB9*%
X124675000Y-107110000D03*
%TO.P,J2,8,Pin_8*%
X127215000Y-107110000D03*
%TO.P,J2,9,Pin_9*%
%TO.N,PB8*%
X124675000Y-104570000D03*
%TO.P,J2,10,Pin_10*%
X127215000Y-104570000D03*
%TO.P,J2,11,Pin_11*%
%TO.N,SDA1*%
X124675000Y-102030000D03*
%TO.P,J2,12,Pin_12*%
X127215000Y-102030000D03*
%TO.P,J2,13,Pin_13*%
%TO.N,SCL1*%
X124675000Y-99490000D03*
%TO.P,J2,14,Pin_14*%
X127215000Y-99490000D03*
%TO.P,J2,15,Pin_15*%
%TO.N,PB5*%
X124675000Y-96950000D03*
%TO.P,J2,16,Pin_16*%
X127215000Y-96950000D03*
%TO.P,J2,17,Pin_17*%
%TO.N,PB4*%
X124675000Y-94410000D03*
%TO.P,J2,18,Pin_18*%
X127215000Y-94410000D03*
%TO.P,J2,19,Pin_19*%
%TO.N,PB3*%
X124675000Y-91870000D03*
%TO.P,J2,20,Pin_20*%
X127215000Y-91870000D03*
%TO.P,J2,21,Pin_21*%
%TO.N,PA15*%
X124675000Y-89330000D03*
%TO.P,J2,22,Pin_22*%
X127215000Y-89330000D03*
%TO.P,J2,23,Pin_23*%
%TO.N,PA12*%
X124675000Y-86790000D03*
%TO.P,J2,24,Pin_24*%
X127215000Y-86790000D03*
%TO.P,J2,25,Pin_25*%
%TO.N,PA11*%
X124675000Y-84250000D03*
%TO.P,J2,26,Pin_26*%
X127215000Y-84250000D03*
%TO.P,J2,27,Pin_27*%
%TO.N,RX1*%
X124675000Y-81710000D03*
%TO.P,J2,28,Pin_28*%
X127215000Y-81710000D03*
%TO.P,J2,29,Pin_29*%
%TO.N,TX1*%
X124675000Y-79170000D03*
%TO.P,J2,30,Pin_30*%
X127215000Y-79170000D03*
%TO.P,J2,31,Pin_31*%
%TO.N,PA8*%
X124675000Y-76630000D03*
%TO.P,J2,32,Pin_32*%
X127215000Y-76630000D03*
%TO.P,J2,33,Pin_33*%
%TO.N,MOSI2*%
X124675000Y-74090000D03*
%TO.P,J2,34,Pin_34*%
X127215000Y-74090000D03*
%TO.P,J2,35,Pin_35*%
%TO.N,MISO2*%
X124675000Y-71550000D03*
%TO.P,J2,36,Pin_36*%
X127215000Y-71550000D03*
%TO.P,J2,37,Pin_37*%
%TO.N,SCK2*%
X124675000Y-69010000D03*
%TO.P,J2,38,Pin_38*%
X127215000Y-69010000D03*
%TO.P,J2,39,Pin_39*%
%TO.N,NSS2*%
X124675000Y-66470000D03*
%TO.P,J2,40,Pin_40*%
X127215000Y-66470000D03*
%TD*%
D10*
%TO.P,U1,1,PB12*%
%TO.N,NSS2*%
X139250000Y-66470000D03*
D12*
%TO.P,U1,2,PB13*%
%TO.N,SCK2*%
X139250000Y-69010000D03*
%TO.P,U1,3,PB14*%
%TO.N,MISO2*%
X139250000Y-71550000D03*
%TO.P,U1,4,PB15*%
%TO.N,MOSI2*%
X139250000Y-74090000D03*
%TO.P,U1,5,PA8*%
%TO.N,PA8*%
X139250000Y-76630000D03*
%TO.P,U1,6,PA9*%
%TO.N,TX1*%
X139250000Y-79170000D03*
%TO.P,U1,7,PA10*%
%TO.N,RX1*%
X139250000Y-81710000D03*
%TO.P,U1,8,PA11*%
%TO.N,PA11*%
X139250000Y-84250000D03*
%TO.P,U1,9,PA12*%
%TO.N,PA12*%
X139250000Y-86790000D03*
%TO.P,U1,10,PA15*%
%TO.N,PA15*%
X139250000Y-89330000D03*
%TO.P,U1,11,PB3*%
%TO.N,PB3*%
X139250000Y-91870000D03*
%TO.P,U1,12,PB4*%
%TO.N,PB4*%
X139250000Y-94410000D03*
%TO.P,U1,13,PB5*%
%TO.N,PB5*%
X139250000Y-96950000D03*
%TO.P,U1,14,PB6*%
%TO.N,SCL1*%
X139250000Y-99490000D03*
%TO.P,U1,15,PB7*%
%TO.N,SDA1*%
X139250000Y-102030000D03*
%TO.P,U1,16,PB8*%
%TO.N,PB8*%
X139250000Y-104570000D03*
%TO.P,U1,17,PB9*%
%TO.N,PB9*%
X139250000Y-107110000D03*
%TO.P,U1,18,5V*%
%TO.N,5V*%
X139250000Y-109650000D03*
%TO.P,U1,19,GND*%
%TO.N,GND*%
X139250000Y-112190000D03*
%TO.P,U1,20,3V3*%
%TO.N,3V3_L*%
X139250000Y-114730000D03*
%TO.P,U1,21,VBat*%
%TO.N,VBAT*%
X154490000Y-114730000D03*
%TO.P,U1,22,PC13*%
%TO.N,PC13*%
X154490000Y-112190000D03*
%TO.P,U1,23,PC14*%
%TO.N,PC14*%
X154490000Y-109650000D03*
%TO.P,U1,24,PC15*%
%TO.N,PC15*%
X154490000Y-107110000D03*
%TO.P,U1,25,PA0*%
%TO.N,PA0*%
X154490000Y-104570000D03*
%TO.P,U1,26,PA1*%
%TO.N,PA1*%
X154490000Y-102030000D03*
%TO.P,U1,27,PA2*%
%TO.N,TX2*%
X154490000Y-99490000D03*
%TO.P,U1,28,PA3*%
%TO.N,RX2*%
X154490000Y-96950000D03*
%TO.P,U1,29,PA4*%
%TO.N,NSS1*%
X154490000Y-94410000D03*
%TO.P,U1,30,PA5*%
%TO.N,SCK1*%
X154490000Y-91870000D03*
%TO.P,U1,31,PA6*%
%TO.N,MISO1*%
X154490000Y-89330000D03*
%TO.P,U1,32,PA7*%
%TO.N,MOSI1*%
X154490000Y-86790000D03*
%TO.P,U1,33,PB0*%
%TO.N,PB0*%
X154490000Y-84250000D03*
%TO.P,U1,34,PB1*%
%TO.N,PB1*%
X154490000Y-81710000D03*
%TO.P,U1,35,PB10*%
%TO.N,SCL2*%
X154490000Y-79170000D03*
%TO.P,U1,36,PB11*%
%TO.N,SDA2*%
X154490000Y-76630000D03*
%TO.P,U1,37,RST*%
%TO.N,RST*%
X154490000Y-74090000D03*
%TO.P,U1,38,3V3*%
%TO.N,3V3_R*%
X154490000Y-71550000D03*
%TO.P,U1,39,GND*%
%TO.N,GND*%
X154490000Y-69010000D03*
%TO.P,U1,40,GND*%
X154490000Y-66470000D03*
%TD*%
D10*
%TO.P,J4,1,Pin_1*%
%TO.N,VBAT*%
X166675000Y-114730000D03*
D11*
%TO.P,J4,2,Pin_2*%
X169215000Y-114730000D03*
%TO.P,J4,3,Pin_3*%
%TO.N,PC13*%
X166675000Y-112190000D03*
%TO.P,J4,4,Pin_4*%
X169215000Y-112190000D03*
%TO.P,J4,5,Pin_5*%
%TO.N,PC14*%
X166675000Y-109650000D03*
%TO.P,J4,6,Pin_6*%
X169215000Y-109650000D03*
%TO.P,J4,7,Pin_7*%
%TO.N,PC15*%
X166675000Y-107110000D03*
%TO.P,J4,8,Pin_8*%
X169215000Y-107110000D03*
%TO.P,J4,9,Pin_9*%
%TO.N,PA0*%
X166675000Y-104570000D03*
%TO.P,J4,10,Pin_10*%
X169215000Y-104570000D03*
%TO.P,J4,11,Pin_11*%
%TO.N,PA1*%
X166675000Y-102030000D03*
%TO.P,J4,12,Pin_12*%
X169215000Y-102030000D03*
%TO.P,J4,13,Pin_13*%
%TO.N,TX2*%
X166675000Y-99490000D03*
%TO.P,J4,14,Pin_14*%
X169215000Y-99490000D03*
%TO.P,J4,15,Pin_15*%
%TO.N,RX2*%
X166675000Y-96950000D03*
%TO.P,J4,16,Pin_16*%
X169215000Y-96950000D03*
%TO.P,J4,17,Pin_17*%
%TO.N,NSS1*%
X166675000Y-94410000D03*
%TO.P,J4,18,Pin_18*%
X169215000Y-94410000D03*
%TO.P,J4,19,Pin_19*%
%TO.N,SCK1*%
X166675000Y-91870000D03*
%TO.P,J4,20,Pin_20*%
X169215000Y-91870000D03*
%TO.P,J4,21,Pin_21*%
%TO.N,MISO1*%
X166675000Y-89330000D03*
%TO.P,J4,22,Pin_22*%
X169215000Y-89330000D03*
%TO.P,J4,23,Pin_23*%
%TO.N,MOSI1*%
X166675000Y-86790000D03*
%TO.P,J4,24,Pin_24*%
X169215000Y-86790000D03*
%TO.P,J4,25,Pin_25*%
%TO.N,PB0*%
X166675000Y-84250000D03*
%TO.P,J4,26,Pin_26*%
X169215000Y-84250000D03*
%TO.P,J4,27,Pin_27*%
%TO.N,PB1*%
X166675000Y-81710000D03*
%TO.P,J4,28,Pin_28*%
X169215000Y-81710000D03*
%TO.P,J4,29,Pin_29*%
%TO.N,SCL2*%
X166675000Y-79170000D03*
%TO.P,J4,30,Pin_30*%
X169215000Y-79170000D03*
%TO.P,J4,31,Pin_31*%
%TO.N,SDA2*%
X166675000Y-76630000D03*
%TO.P,J4,32,Pin_32*%
X169215000Y-76630000D03*
%TO.P,J4,33,Pin_33*%
%TO.N,RST*%
X166675000Y-74090000D03*
%TO.P,J4,34,Pin_34*%
X169215000Y-74090000D03*
%TO.P,J4,35,Pin_35*%
%TO.N,3V3_R*%
X166675000Y-71550000D03*
%TO.P,J4,36,Pin_36*%
X169215000Y-71550000D03*
%TO.P,J4,37,Pin_37*%
%TO.N,GND*%
X166675000Y-69010000D03*
%TO.P,J4,38,Pin_38*%
X169215000Y-69010000D03*
%TO.P,J4,39,Pin_39*%
X166675000Y-66470000D03*
%TO.P,J4,40,Pin_40*%
X169215000Y-66470000D03*
%TD*%
D10*
%TO.P,J3,1,Pin_1*%
%TO.N,unconnected-(J3-Pin_1-Pad1)*%
X122395000Y-54030000D03*
D11*
%TO.P,J3,2,Pin_2*%
%TO.N,unconnected-(J3-Pin_2-Pad2)*%
X122395000Y-56570000D03*
%TO.P,J3,3,Pin_3*%
%TO.N,MISO2*%
X124935000Y-54030000D03*
%TO.P,J3,4,Pin_4*%
X124935000Y-56570000D03*
%TO.P,J3,5,Pin_5*%
%TO.N,SCK2*%
X127475000Y-54030000D03*
%TO.P,J3,6,Pin_6*%
X127475000Y-56570000D03*
%TO.P,J3,7,Pin_7*%
%TO.N,MOSI2*%
X130015000Y-54030000D03*
%TO.P,J3,8,Pin_8*%
X130015000Y-56570000D03*
%TO.P,J3,9,Pin_9*%
%TO.N,NSS2*%
X132555000Y-54030000D03*
%TO.P,J3,10,Pin_10*%
X132555000Y-56570000D03*
%TO.P,J3,11,Pin_11*%
%TO.N,unconnected-(J3-Pin_11-Pad11)*%
X135095000Y-54030000D03*
%TO.P,J3,12,Pin_12*%
%TO.N,unconnected-(J3-Pin_12-Pad12)*%
X135095000Y-56570000D03*
%TO.P,J3,13,Pin_13*%
%TO.N,3V3_R*%
X137635000Y-54030000D03*
%TO.P,J3,14,Pin_14*%
X137635000Y-56570000D03*
%TO.P,J3,15,Pin_15*%
%TO.N,GND*%
X140175000Y-54030000D03*
%TO.P,J3,16,Pin_16*%
X140175000Y-56570000D03*
%TD*%
D13*
%TO.P,R3,1*%
%TO.N,3V3_R*%
X159875000Y-75350000D03*
%TO.P,R3,2*%
%TO.N,SDA2*%
X161875000Y-75350000D03*
%TD*%
D14*
%TO.P,C1,N*%
%TO.N,GND*%
X154025000Y-57480000D03*
D15*
%TO.P,C1,P*%
%TO.N,3V3_R*%
X154025000Y-54980000D03*
%TD*%
D10*
%TO.P,J5,1,Pin_1*%
%TO.N,GND*%
X169175000Y-124280000D03*
D11*
%TO.P,J5,2,Pin_2*%
%TO.N,TX2*%
X166635000Y-124280000D03*
%TO.P,J5,3,Pin_3*%
%TO.N,RX2*%
X164095000Y-124280000D03*
%TO.P,J5,4,Pin_4*%
%TO.N,3V3_L*%
X161555000Y-124280000D03*
%TD*%
D16*
%TO.P,R2,1*%
%TO.N,3V3_L*%
X134175000Y-98280000D03*
%TO.P,R2,2*%
%TO.N,SCL1*%
X132175000Y-98280000D03*
%TD*%
D13*
%TO.P,R4,1*%
%TO.N,3V3_R*%
X159895000Y-80430000D03*
%TO.P,R4,2*%
%TO.N,SCL2*%
X161895000Y-80430000D03*
%TD*%
D10*
%TO.P,J1,1,Pin_1*%
%TO.N,GND*%
X160405000Y-57520000D03*
D11*
%TO.P,J1,2,Pin_2*%
%TO.N,3V3_R*%
X160405000Y-54980000D03*
%TO.P,J1,3,Pin_3*%
%TO.N,PB1*%
X162945000Y-57520000D03*
%TO.P,J1,4,Pin_4*%
%TO.N,NSS1*%
X162945000Y-54980000D03*
%TO.P,J1,5,Pin_5*%
%TO.N,SCK1*%
X165485000Y-57520000D03*
%TO.P,J1,6,Pin_6*%
%TO.N,MOSI1*%
X165485000Y-54980000D03*
%TO.P,J1,7,Pin_7*%
%TO.N,MISO1*%
X168025000Y-57520000D03*
%TO.P,J1,8,Pin_8*%
%TO.N,PB0*%
X168025000Y-54980000D03*
%TD*%
D13*
%TO.P,R1,1*%
%TO.N,SDA1*%
X132175000Y-103280000D03*
%TO.P,R1,2*%
%TO.N,3V3_L*%
X134175000Y-103280000D03*
%TD*%
D10*
%TO.P,J6,1,Pin_1*%
%TO.N,SDA1*%
X124675000Y-124280000D03*
D11*
%TO.P,J6,2,Pin_2*%
%TO.N,SCL1*%
X127215000Y-124280000D03*
%TO.P,J6,3,Pin_3*%
%TO.N,GND*%
X129755000Y-124280000D03*
%TO.P,J6,4,Pin_4*%
%TO.N,3V3_L*%
X132295000Y-124280000D03*
%TD*%
D17*
%TO.N,GND*%
X145450000Y-90900000D03*
X146950000Y-56925000D03*
X139850000Y-121450000D03*
%TD*%
D18*
%TO.N,SCK1*%
X164250000Y-60400000D02*
X153350000Y-60400000D01*
X165485000Y-57520000D02*
X165485000Y-59165000D01*
X149900000Y-63850000D02*
X149900000Y-87280000D01*
X165485000Y-59165000D02*
X164250000Y-60400000D01*
X153350000Y-60400000D02*
X149900000Y-63850000D01*
X149900000Y-87280000D02*
X154490000Y-91870000D01*
%TO.N,SDA2*%
X166675000Y-76630000D02*
X163155000Y-76630000D01*
X163155000Y-76630000D02*
X161875000Y-75350000D01*
%TO.N,SCL2*%
X166675000Y-79170000D02*
X163155000Y-79170000D01*
X163155000Y-79170000D02*
X161895000Y-80430000D01*
%TO.N,PB0*%
X154495000Y-84245000D02*
X154490000Y-84250000D01*
%TO.N,MISO1*%
X153525000Y-61730000D02*
X151275000Y-63980000D01*
X168025000Y-57520000D02*
X168025000Y-59925000D01*
X165025000Y-61730000D02*
X153525000Y-61730000D01*
X168025000Y-59925000D02*
X166225000Y-61725000D01*
X165030000Y-61725000D02*
X165025000Y-61730000D01*
X151275000Y-63980000D02*
X151275000Y-86115000D01*
X166225000Y-61725000D02*
X165030000Y-61725000D01*
X151275000Y-86115000D02*
X154490000Y-89330000D01*
%TO.N,SDA1*%
X127215000Y-102030000D02*
X130925000Y-102030000D01*
X130925000Y-102030000D02*
X132175000Y-103280000D01*
%TO.N,SCL1*%
X127215000Y-99490000D02*
X130965000Y-99490000D01*
X130965000Y-99490000D02*
X132175000Y-98280000D01*
%TO.N,3V3_R*%
X159875000Y-75350000D02*
X159875000Y-73480000D01*
X159895000Y-80430000D02*
X159925000Y-80400000D01*
X157675000Y-71530000D02*
X157655000Y-71550000D01*
X157655000Y-71550000D02*
X154490000Y-71550000D01*
X157925000Y-71530000D02*
X157675000Y-71530000D01*
X159875000Y-73480000D02*
X157925000Y-71530000D01*
X159925000Y-80400000D02*
X159925000Y-75400000D01*
X159925000Y-75400000D02*
X159875000Y-75350000D01*
%TO.N,3V3_L*%
X134175000Y-112280000D02*
X134175000Y-103280000D01*
X139250000Y-114730000D02*
X136625000Y-114730000D01*
X134175000Y-98280000D02*
X134175000Y-103280000D01*
X136625000Y-114730000D02*
X134175000Y-112280000D01*
%TD*%
%TA.AperFunction,Conductor*%
%TO.N,GND*%
G36*
X126749075Y-111997007D02*
G01*
X126715000Y-112124174D01*
X126715000Y-112255826D01*
X126749075Y-112382993D01*
X126781988Y-112440000D01*
X125108012Y-112440000D01*
X125140925Y-112382993D01*
X125175000Y-112255826D01*
X125175000Y-112124174D01*
X125140925Y-111997007D01*
X125108012Y-111940000D01*
X126781988Y-111940000D01*
X126749075Y-111997007D01*
G37*
%TD.AperFunction*%
%TA.AperFunction,Conductor*%
G36*
X168749075Y-68817007D02*
G01*
X168715000Y-68944174D01*
X168715000Y-69075826D01*
X168749075Y-69202993D01*
X168781988Y-69260000D01*
X167108012Y-69260000D01*
X167140925Y-69202993D01*
X167175000Y-69075826D01*
X167175000Y-68944174D01*
X167140925Y-68817007D01*
X167108012Y-68760000D01*
X168781988Y-68760000D01*
X168749075Y-68817007D01*
G37*
%TD.AperFunction*%
%TA.AperFunction,Conductor*%
G36*
X166925000Y-68576988D02*
G01*
X166867993Y-68544075D01*
X166740826Y-68510000D01*
X166609174Y-68510000D01*
X166482007Y-68544075D01*
X166425000Y-68576988D01*
X166425000Y-66903012D01*
X166482007Y-66935925D01*
X166609174Y-66970000D01*
X166740826Y-66970000D01*
X166867993Y-66935925D01*
X166925000Y-66903012D01*
X166925000Y-68576988D01*
G37*
%TD.AperFunction*%
%TA.AperFunction,Conductor*%
G36*
X169465000Y-68576988D02*
G01*
X169407993Y-68544075D01*
X169280826Y-68510000D01*
X169149174Y-68510000D01*
X169022007Y-68544075D01*
X168965000Y-68576988D01*
X168965000Y-66903012D01*
X169022007Y-66935925D01*
X169149174Y-66970000D01*
X169280826Y-66970000D01*
X169407993Y-66935925D01*
X169465000Y-66903012D01*
X169465000Y-68576988D01*
G37*
%TD.AperFunction*%
%TA.AperFunction,Conductor*%
G36*
X168749075Y-66277007D02*
G01*
X168715000Y-66404174D01*
X168715000Y-66535826D01*
X168749075Y-66662993D01*
X168781988Y-66720000D01*
X167108012Y-66720000D01*
X167140925Y-66662993D01*
X167175000Y-66535826D01*
X167175000Y-66404174D01*
X167140925Y-66277007D01*
X167108012Y-66220000D01*
X168781988Y-66220000D01*
X168749075Y-66277007D01*
G37*
%TD.AperFunction*%
%TA.AperFunction,Conductor*%
G36*
X140425000Y-56136988D02*
G01*
X140367993Y-56104075D01*
X140240826Y-56070000D01*
X140109174Y-56070000D01*
X139982007Y-56104075D01*
X139925000Y-56136988D01*
X139925000Y-54463012D01*
X139982007Y-54495925D01*
X140109174Y-54530000D01*
X140240826Y-54530000D01*
X140367993Y-54495925D01*
X140425000Y-54463012D01*
X140425000Y-56136988D01*
G37*
%TD.AperFunction*%
%TA.AperFunction,Conductor*%
G36*
X180217539Y-46500185D02*
G01*
X180263294Y-46552989D01*
X180274500Y-46604500D01*
X180274500Y-130355500D01*
X180254815Y-130422539D01*
X180202011Y-130468294D01*
X180150500Y-130479500D01*
X113399500Y-130479500D01*
X113332461Y-130459815D01*
X113286706Y-130407011D01*
X113275500Y-130355500D01*
X113275500Y-123382135D01*
X123324500Y-123382135D01*
X123324500Y-125177870D01*
X123324501Y-125177876D01*
X123330908Y-125237483D01*
X123381202Y-125372328D01*
X123381206Y-125372335D01*
X123467452Y-125487544D01*
X123467455Y-125487547D01*
X123582664Y-125573793D01*
X123582671Y-125573797D01*
X123717517Y-125624091D01*
X123717516Y-125624091D01*
X123724444Y-125624835D01*
X123777127Y-125630500D01*
X125572872Y-125630499D01*
X125632483Y-125624091D01*
X125767331Y-125573796D01*
X125882546Y-125487546D01*
X125968796Y-125372331D01*
X126017810Y-125240916D01*
X126059681Y-125184984D01*
X126125145Y-125160566D01*
X126193418Y-125175417D01*
X126221673Y-125196569D01*
X126343599Y-125318495D01*
X126440384Y-125386265D01*
X126537165Y-125454032D01*
X126537167Y-125454033D01*
X126537170Y-125454035D01*
X126751337Y-125553903D01*
X126979592Y-125615063D01*
X127156034Y-125630500D01*
X127214999Y-125635659D01*
X127215000Y-125635659D01*
X127215001Y-125635659D01*
X127273966Y-125630500D01*
X127450408Y-125615063D01*
X127678663Y-125553903D01*
X127892830Y-125454035D01*
X128086401Y-125318495D01*
X128253495Y-125151401D01*
X128383730Y-124965405D01*
X128438307Y-124921781D01*
X128507805Y-124914587D01*
X128570160Y-124946110D01*
X128586879Y-124965405D01*
X128716890Y-125151078D01*
X128883917Y-125318105D01*
X129077421Y-125453600D01*
X129291507Y-125553429D01*
X129291516Y-125553433D01*
X129505000Y-125610634D01*
X129505000Y-124713012D01*
X129562007Y-124745925D01*
X129689174Y-124780000D01*
X129820826Y-124780000D01*
X129947993Y-124745925D01*
X130005000Y-124713012D01*
X130005000Y-125610633D01*
X130218483Y-125553433D01*
X130218492Y-125553429D01*
X130432578Y-125453600D01*
X130626082Y-125318105D01*
X130793105Y-125151082D01*
X130923119Y-124965405D01*
X130977696Y-124921781D01*
X131047195Y-124914588D01*
X131109549Y-124946110D01*
X131126269Y-124965405D01*
X131256505Y-125151401D01*
X131423599Y-125318495D01*
X131520384Y-125386265D01*
X131617165Y-125454032D01*
X131617167Y-125454033D01*
X131617170Y-125454035D01*
X131831337Y-125553903D01*
X132059592Y-125615063D01*
X132236034Y-125630500D01*
X132294999Y-125635659D01*
X132295000Y-125635659D01*
X132295001Y-125635659D01*
X132353966Y-125630500D01*
X132530408Y-125615063D01*
X132758663Y-125553903D01*
X132972830Y-125454035D01*
X133166401Y-125318495D01*
X133333495Y-125151401D01*
X133469035Y-124957830D01*
X133568903Y-124743663D01*
X133630063Y-124515408D01*
X133650659Y-124280000D01*
X133650659Y-124279999D01*
X160199341Y-124279999D01*
X160199341Y-124280000D01*
X160219936Y-124515403D01*
X160219938Y-124515413D01*
X160281094Y-124743655D01*
X160281096Y-124743659D01*
X160281097Y-124743663D01*
X160360801Y-124914588D01*
X160380965Y-124957830D01*
X160380967Y-124957834D01*
X160489281Y-125112521D01*
X160516505Y-125151401D01*
X160683599Y-125318495D01*
X160780384Y-125386265D01*
X160877165Y-125454032D01*
X160877167Y-125454033D01*
X160877170Y-125454035D01*
X161091337Y-125553903D01*
X161319592Y-125615063D01*
X161496034Y-125630500D01*
X161554999Y-125635659D01*
X161555000Y-125635659D01*
X161555001Y-125635659D01*
X161613966Y-125630500D01*
X161790408Y-125615063D01*
X162018663Y-125553903D01*
X162232830Y-125454035D01*
X162426401Y-125318495D01*
X162593495Y-125151401D01*
X162723425Y-124965842D01*
X162778002Y-124922217D01*
X162847500Y-124915023D01*
X162909855Y-124946546D01*
X162926575Y-124965842D01*
X163056500Y-125151395D01*
X163056505Y-125151401D01*
X163223599Y-125318495D01*
X163320384Y-125386265D01*
X163417165Y-125454032D01*
X163417167Y-125454033D01*
X163417170Y-125454035D01*
X163631337Y-125553903D01*
X163859592Y-125615063D01*
X164036034Y-125630500D01*
X164094999Y-125635659D01*
X164095000Y-125635659D01*
X164095001Y-125635659D01*
X164153966Y-125630500D01*
X164330408Y-125615063D01*
X164558663Y-125553903D01*
X164772830Y-125454035D01*
X164966401Y-125318495D01*
X165133495Y-125151401D01*
X165263425Y-124965842D01*
X165318002Y-124922217D01*
X165387500Y-124915023D01*
X165449855Y-124946546D01*
X165466575Y-124965842D01*
X165596500Y-125151395D01*
X165596505Y-125151401D01*
X165763599Y-125318495D01*
X165860384Y-125386265D01*
X165957165Y-125454032D01*
X165957167Y-125454033D01*
X165957170Y-125454035D01*
X166171337Y-125553903D01*
X166399592Y-125615063D01*
X166576034Y-125630500D01*
X166634999Y-125635659D01*
X166635000Y-125635659D01*
X166635001Y-125635659D01*
X166693966Y-125630500D01*
X166870408Y-125615063D01*
X167098663Y-125553903D01*
X167312830Y-125454035D01*
X167506401Y-125318495D01*
X167628717Y-125196178D01*
X167690036Y-125162696D01*
X167759728Y-125167680D01*
X167815662Y-125209551D01*
X167832577Y-125240528D01*
X167881646Y-125372088D01*
X167881649Y-125372093D01*
X167967809Y-125487187D01*
X167967812Y-125487190D01*
X168082906Y-125573350D01*
X168082913Y-125573354D01*
X168217620Y-125623596D01*
X168217627Y-125623598D01*
X168277155Y-125629999D01*
X168277172Y-125630000D01*
X168925000Y-125630000D01*
X168925000Y-124713012D01*
X168982007Y-124745925D01*
X169109174Y-124780000D01*
X169240826Y-124780000D01*
X169367993Y-124745925D01*
X169425000Y-124713012D01*
X169425000Y-125630000D01*
X170072828Y-125630000D01*
X170072844Y-125629999D01*
X170132372Y-125623598D01*
X170132379Y-125623596D01*
X170267086Y-125573354D01*
X170267093Y-125573350D01*
X170382187Y-125487190D01*
X170382190Y-125487187D01*
X170468350Y-125372093D01*
X170468354Y-125372086D01*
X170518596Y-125237379D01*
X170518598Y-125237372D01*
X170524999Y-125177844D01*
X170525000Y-125177827D01*
X170525000Y-124530000D01*
X169608012Y-124530000D01*
X169640925Y-124472993D01*
X169675000Y-124345826D01*
X169675000Y-124214174D01*
X169640925Y-124087007D01*
X169608012Y-124030000D01*
X170525000Y-124030000D01*
X170525000Y-123382172D01*
X170524999Y-123382155D01*
X170518598Y-123322627D01*
X170518596Y-123322620D01*
X170468354Y-123187913D01*
X170468350Y-123187906D01*
X170382190Y-123072812D01*
X170382187Y-123072809D01*
X170267093Y-122986649D01*
X170267086Y-122986645D01*
X170132379Y-122936403D01*
X170132372Y-122936401D01*
X170072844Y-122930000D01*
X169425000Y-122930000D01*
X169425000Y-123846988D01*
X169367993Y-123814075D01*
X169240826Y-123780000D01*
X169109174Y-123780000D01*
X168982007Y-123814075D01*
X168925000Y-123846988D01*
X168925000Y-122930000D01*
X168277155Y-122930000D01*
X168217627Y-122936401D01*
X168217620Y-122936403D01*
X168082913Y-122986645D01*
X168082906Y-122986649D01*
X167967812Y-123072809D01*
X167967809Y-123072812D01*
X167881649Y-123187906D01*
X167881645Y-123187913D01*
X167832578Y-123319470D01*
X167790707Y-123375404D01*
X167725242Y-123399821D01*
X167656969Y-123384969D01*
X167628715Y-123363819D01*
X167583977Y-123319081D01*
X167506401Y-123241505D01*
X167506397Y-123241502D01*
X167506396Y-123241501D01*
X167312834Y-123105967D01*
X167312830Y-123105965D01*
X167241727Y-123072809D01*
X167098663Y-123006097D01*
X167098659Y-123006096D01*
X167098655Y-123006094D01*
X166870413Y-122944938D01*
X166870403Y-122944936D01*
X166635001Y-122924341D01*
X166634999Y-122924341D01*
X166399596Y-122944936D01*
X166399586Y-122944938D01*
X166171344Y-123006094D01*
X166171335Y-123006098D01*
X165957171Y-123105964D01*
X165957169Y-123105965D01*
X165763597Y-123241505D01*
X165596505Y-123408597D01*
X165466575Y-123594158D01*
X165411998Y-123637783D01*
X165342500Y-123644977D01*
X165280145Y-123613454D01*
X165263425Y-123594158D01*
X165133494Y-123408597D01*
X164966402Y-123241506D01*
X164966395Y-123241501D01*
X164772834Y-123105967D01*
X164772830Y-123105965D01*
X164701727Y-123072809D01*
X164558663Y-123006097D01*
X164558659Y-123006096D01*
X164558655Y-123006094D01*
X164330413Y-122944938D01*
X164330403Y-122944936D01*
X164095001Y-122924341D01*
X164094999Y-122924341D01*
X163859596Y-122944936D01*
X163859586Y-122944938D01*
X163631344Y-123006094D01*
X163631335Y-123006098D01*
X163417171Y-123105964D01*
X163417169Y-123105965D01*
X163223597Y-123241505D01*
X163056505Y-123408597D01*
X162926575Y-123594158D01*
X162871998Y-123637783D01*
X162802500Y-123644977D01*
X162740145Y-123613454D01*
X162723425Y-123594158D01*
X162593494Y-123408597D01*
X162426402Y-123241506D01*
X162426395Y-123241501D01*
X162232834Y-123105967D01*
X162232830Y-123105965D01*
X162161727Y-123072809D01*
X162018663Y-123006097D01*
X162018659Y-123006096D01*
X162018655Y-123006094D01*
X161790413Y-122944938D01*
X161790403Y-122944936D01*
X161555001Y-122924341D01*
X161554999Y-122924341D01*
X161319596Y-122944936D01*
X161319586Y-122944938D01*
X161091344Y-123006094D01*
X161091335Y-123006098D01*
X160877171Y-123105964D01*
X160877169Y-123105965D01*
X160683597Y-123241505D01*
X160516505Y-123408597D01*
X160380965Y-123602169D01*
X160380964Y-123602171D01*
X160281098Y-123816335D01*
X160281094Y-123816344D01*
X160219938Y-124044586D01*
X160219936Y-124044596D01*
X160199341Y-124279999D01*
X133650659Y-124279999D01*
X133630063Y-124044592D01*
X133568903Y-123816337D01*
X133469035Y-123602171D01*
X133463731Y-123594595D01*
X133333494Y-123408597D01*
X133166402Y-123241506D01*
X133166395Y-123241501D01*
X132972834Y-123105967D01*
X132972830Y-123105965D01*
X132901727Y-123072809D01*
X132758663Y-123006097D01*
X132758659Y-123006096D01*
X132758655Y-123006094D01*
X132530413Y-122944938D01*
X132530403Y-122944936D01*
X132295001Y-122924341D01*
X132294999Y-122924341D01*
X132059596Y-122944936D01*
X132059586Y-122944938D01*
X131831344Y-123006094D01*
X131831335Y-123006098D01*
X131617171Y-123105964D01*
X131617169Y-123105965D01*
X131423597Y-123241505D01*
X131256508Y-123408594D01*
X131126269Y-123594595D01*
X131071692Y-123638219D01*
X131002193Y-123645412D01*
X130939839Y-123613890D01*
X130923119Y-123594594D01*
X130793113Y-123408926D01*
X130793108Y-123408920D01*
X130626082Y-123241894D01*
X130432578Y-123106399D01*
X130218492Y-123006570D01*
X130218486Y-123006567D01*
X130005000Y-122949364D01*
X130005000Y-123846988D01*
X129947993Y-123814075D01*
X129820826Y-123780000D01*
X129689174Y-123780000D01*
X129562007Y-123814075D01*
X129505000Y-123846988D01*
X129505000Y-122949364D01*
X129504999Y-122949364D01*
X129291513Y-123006567D01*
X129291507Y-123006570D01*
X129077422Y-123106399D01*
X129077420Y-123106400D01*
X128883926Y-123241886D01*
X128883920Y-123241891D01*
X128716891Y-123408920D01*
X128716890Y-123408922D01*
X128586880Y-123594595D01*
X128532303Y-123638219D01*
X128462804Y-123645412D01*
X128400450Y-123613890D01*
X128383730Y-123594594D01*
X128253494Y-123408597D01*
X128086402Y-123241506D01*
X128086395Y-123241501D01*
X127892834Y-123105967D01*
X127892830Y-123105965D01*
X127821727Y-123072809D01*
X127678663Y-123006097D01*
X127678659Y-123006096D01*
X127678655Y-123006094D01*
X127450413Y-122944938D01*
X127450403Y-122944936D01*
X127215001Y-122924341D01*
X127214999Y-122924341D01*
X126979596Y-122944936D01*
X126979586Y-122944938D01*
X126751344Y-123006094D01*
X126751335Y-123006098D01*
X126537171Y-123105964D01*
X126537169Y-123105965D01*
X126343600Y-123241503D01*
X126221673Y-123363430D01*
X126160350Y-123396914D01*
X126090658Y-123391930D01*
X126034725Y-123350058D01*
X126017810Y-123319081D01*
X125968797Y-123187671D01*
X125968793Y-123187664D01*
X125882547Y-123072455D01*
X125882544Y-123072452D01*
X125767335Y-122986206D01*
X125767328Y-122986202D01*
X125632482Y-122935908D01*
X125632483Y-122935908D01*
X125572883Y-122929501D01*
X125572881Y-122929500D01*
X125572873Y-122929500D01*
X125572864Y-122929500D01*
X123777129Y-122929500D01*
X123777123Y-122929501D01*
X123717516Y-122935908D01*
X123582671Y-122986202D01*
X123582664Y-122986206D01*
X123467455Y-123072452D01*
X123467452Y-123072455D01*
X123381206Y-123187664D01*
X123381202Y-123187671D01*
X123330908Y-123322517D01*
X123324501Y-123382116D01*
X123324500Y-123382135D01*
X113275500Y-123382135D01*
X113275500Y-66469999D01*
X123319341Y-66469999D01*
X123319341Y-66470000D01*
X123339936Y-66705403D01*
X123339938Y-66705413D01*
X123401094Y-66933655D01*
X123401096Y-66933659D01*
X123401097Y-66933663D01*
X123480597Y-67104151D01*
X123500965Y-67147830D01*
X123500967Y-67147834D01*
X123559462Y-67231373D01*
X123636501Y-67341396D01*
X123636506Y-67341402D01*
X123803597Y-67508493D01*
X123803603Y-67508498D01*
X123989158Y-67638425D01*
X124032783Y-67693002D01*
X124039977Y-67762500D01*
X124008454Y-67824855D01*
X123989158Y-67841575D01*
X123803597Y-67971505D01*
X123636505Y-68138597D01*
X123500965Y-68332169D01*
X123500964Y-68332171D01*
X123401098Y-68546335D01*
X123401094Y-68546344D01*
X123339938Y-68774586D01*
X123339936Y-68774596D01*
X123319341Y-69009999D01*
X123319341Y-69010000D01*
X123339936Y-69245403D01*
X123339938Y-69245413D01*
X123401094Y-69473655D01*
X123401096Y-69473659D01*
X123401097Y-69473663D01*
X123480597Y-69644151D01*
X123500965Y-69687830D01*
X123500967Y-69687834D01*
X123559462Y-69771373D01*
X123636501Y-69881396D01*
X123636506Y-69881402D01*
X123803597Y-70048493D01*
X123803603Y-70048498D01*
X123989158Y-70178425D01*
X124032783Y-70233002D01*
X124039977Y-70302500D01*
X124008454Y-70364855D01*
X123989158Y-70381575D01*
X123803597Y-70511505D01*
X123636505Y-70678597D01*
X123500965Y-70872169D01*
X123500964Y-70872171D01*
X123401098Y-71086335D01*
X123401094Y-71086344D01*
X123339938Y-71314586D01*
X123339936Y-71314596D01*
X123319341Y-71549999D01*
X123319341Y-71550000D01*
X123339936Y-71785403D01*
X123339938Y-71785413D01*
X123401094Y-72013655D01*
X123401096Y-72013659D01*
X123401097Y-72013663D01*
X123405000Y-72022032D01*
X123500965Y-72227830D01*
X123500967Y-72227834D01*
X123577280Y-72336819D01*
X123636501Y-72421396D01*
X123636506Y-72421402D01*
X123803597Y-72588493D01*
X123803603Y-72588498D01*
X123989158Y-72718425D01*
X124032783Y-72773002D01*
X124039977Y-72842500D01*
X124008454Y-72904855D01*
X123989158Y-72921575D01*
X123803597Y-73051505D01*
X123636505Y-73218597D01*
X123500965Y-73412169D01*
X123500964Y-73412171D01*
X123401098Y-73626335D01*
X123401094Y-73626344D01*
X123339938Y-73854586D01*
X123339936Y-73854596D01*
X123319341Y-74089999D01*
X123319341Y-74090000D01*
X123339936Y-74325403D01*
X123339938Y-74325413D01*
X123401094Y-74553655D01*
X123401096Y-74553659D01*
X123401097Y-74553663D01*
X123413689Y-74580666D01*
X123500965Y-74767830D01*
X123500967Y-74767834D01*
X123609281Y-74922521D01*
X123636501Y-74961396D01*
X123636506Y-74961402D01*
X123803597Y-75128493D01*
X123803603Y-75128498D01*
X123989158Y-75258425D01*
X124032783Y-75313002D01*
X124039977Y-75382500D01*
X124008454Y-75444855D01*
X123989158Y-75461575D01*
X123803597Y-75591505D01*
X123636505Y-75758597D01*
X123500965Y-75952169D01*
X123500964Y-75952171D01*
X123401098Y-76166335D01*
X123401094Y-76166344D01*
X123339938Y-76394586D01*
X123339936Y-76394596D01*
X123319341Y-76629999D01*
X123319341Y-76630000D01*
X123339936Y-76865403D01*
X123339938Y-76865413D01*
X123401094Y-77093655D01*
X123401096Y-77093659D01*
X123401097Y-77093663D01*
X123405000Y-77102032D01*
X123500965Y-77307830D01*
X123500967Y-77307834D01*
X123588873Y-77433376D01*
X123636501Y-77501396D01*
X123636506Y-77501402D01*
X123803597Y-77668493D01*
X123803603Y-77668498D01*
X123989158Y-77798425D01*
X124032783Y-77853002D01*
X124039977Y-77922500D01*
X124008454Y-77984855D01*
X123989158Y-78001575D01*
X123803597Y-78131505D01*
X123636505Y-78298597D01*
X123500965Y-78492169D01*
X123500964Y-78492171D01*
X123401098Y-78706335D01*
X123401094Y-78706344D01*
X123339938Y-78934586D01*
X123339936Y-78934596D01*
X123319341Y-79169999D01*
X123319341Y-79170000D01*
X123339936Y-79405403D01*
X123339938Y-79405413D01*
X123401094Y-79633655D01*
X123401096Y-79633659D01*
X123401097Y-79633663D01*
X123413689Y-79660666D01*
X123500965Y-79847830D01*
X123500967Y-79847834D01*
X123577280Y-79956819D01*
X123636501Y-80041396D01*
X123636506Y-80041402D01*
X123803597Y-80208493D01*
X123803603Y-80208498D01*
X123989158Y-80338425D01*
X124032783Y-80393002D01*
X124039977Y-80462500D01*
X124008454Y-80524855D01*
X123989158Y-80541575D01*
X123803597Y-80671505D01*
X123636505Y-80838597D01*
X123500965Y-81032169D01*
X123500964Y-81032171D01*
X123401098Y-81246335D01*
X123401094Y-81246344D01*
X123339938Y-81474586D01*
X123339936Y-81474596D01*
X123319341Y-81709999D01*
X123319341Y-81710000D01*
X123339936Y-81945403D01*
X123339938Y-81945413D01*
X123401094Y-82173655D01*
X123401096Y-82173659D01*
X123401097Y-82173663D01*
X123405000Y-82182032D01*
X123500965Y-82387830D01*
X123500967Y-82387834D01*
X123609281Y-82542521D01*
X123636501Y-82581396D01*
X123636506Y-82581402D01*
X123803597Y-82748493D01*
X123803603Y-82748498D01*
X123989158Y-82878425D01*
X124032783Y-82933002D01*
X124039977Y-83002500D01*
X124008454Y-83064855D01*
X123989158Y-83081575D01*
X123803597Y-83211505D01*
X123636505Y-83378597D01*
X123500965Y-83572169D01*
X123500964Y-83572171D01*
X123401098Y-83786335D01*
X123401094Y-83786344D01*
X123339938Y-84014586D01*
X123339936Y-84014596D01*
X123319341Y-84249999D01*
X123319341Y-84250000D01*
X123339936Y-84485403D01*
X123339938Y-84485413D01*
X123401094Y-84713655D01*
X123401096Y-84713659D01*
X123401097Y-84713663D01*
X123405000Y-84722032D01*
X123500965Y-84927830D01*
X123500967Y-84927834D01*
X123609281Y-85082521D01*
X123636501Y-85121396D01*
X123636506Y-85121402D01*
X123803597Y-85288493D01*
X123803603Y-85288498D01*
X123989158Y-85418425D01*
X124032783Y-85473002D01*
X124039977Y-85542500D01*
X124008454Y-85604855D01*
X123989158Y-85621575D01*
X123803597Y-85751505D01*
X123636505Y-85918597D01*
X123500965Y-86112169D01*
X123500964Y-86112171D01*
X123401098Y-86326335D01*
X123401094Y-86326344D01*
X123339938Y-86554586D01*
X123339936Y-86554596D01*
X123319341Y-86789999D01*
X123319341Y-86790000D01*
X123339936Y-87025403D01*
X123339938Y-87025413D01*
X123401094Y-87253655D01*
X123401096Y-87253659D01*
X123401097Y-87253663D01*
X123405000Y-87262032D01*
X123500965Y-87467830D01*
X123500967Y-87467834D01*
X123522732Y-87498917D01*
X123636504Y-87661399D01*
X123636505Y-87661401D01*
X123803597Y-87828493D01*
X123803603Y-87828498D01*
X123989158Y-87958425D01*
X124032783Y-88013002D01*
X124039977Y-88082500D01*
X124008454Y-88144855D01*
X123989158Y-88161575D01*
X123803597Y-88291505D01*
X123636505Y-88458597D01*
X123500965Y-88652169D01*
X123500964Y-88652171D01*
X123401098Y-88866335D01*
X123401094Y-88866344D01*
X123339938Y-89094586D01*
X123339936Y-89094596D01*
X123319341Y-89329999D01*
X123319341Y-89330000D01*
X123339936Y-89565403D01*
X123339938Y-89565413D01*
X123401094Y-89793655D01*
X123401096Y-89793659D01*
X123401097Y-89793663D01*
X123405000Y-89802032D01*
X123500965Y-90007830D01*
X123500967Y-90007834D01*
X123609281Y-90162521D01*
X123636501Y-90201396D01*
X123636506Y-90201402D01*
X123803597Y-90368493D01*
X123803603Y-90368498D01*
X123989158Y-90498425D01*
X124032783Y-90553002D01*
X124039977Y-90622500D01*
X124008454Y-90684855D01*
X123989158Y-90701575D01*
X123803597Y-90831505D01*
X123636505Y-90998597D01*
X123500965Y-91192169D01*
X123500964Y-91192171D01*
X123401098Y-91406335D01*
X123401094Y-91406344D01*
X123339938Y-91634586D01*
X123339936Y-91634596D01*
X123319341Y-91869999D01*
X123319341Y-91870000D01*
X123339936Y-92105403D01*
X123339938Y-92105413D01*
X123401094Y-92333655D01*
X123401096Y-92333659D01*
X123401097Y-92333663D01*
X123405000Y-92342032D01*
X123500965Y-92547830D01*
X123500967Y-92547834D01*
X123609281Y-92702521D01*
X123636501Y-92741396D01*
X123636506Y-92741402D01*
X123803597Y-92908493D01*
X123803603Y-92908498D01*
X123989158Y-93038425D01*
X124032783Y-93093002D01*
X124039977Y-93162500D01*
X124008454Y-93224855D01*
X123989158Y-93241575D01*
X123803597Y-93371505D01*
X123636505Y-93538597D01*
X123500965Y-93732169D01*
X123500964Y-93732171D01*
X123401098Y-93946335D01*
X123401094Y-93946344D01*
X123339938Y-94174586D01*
X123339936Y-94174596D01*
X123319341Y-94409999D01*
X123319341Y-94410000D01*
X123339936Y-94645403D01*
X123339938Y-94645413D01*
X123401094Y-94873655D01*
X123401096Y-94873659D01*
X123401097Y-94873663D01*
X123405000Y-94882032D01*
X123500965Y-95087830D01*
X123500967Y-95087834D01*
X123609281Y-95242521D01*
X123636501Y-95281396D01*
X123636506Y-95281402D01*
X123803597Y-95448493D01*
X123803603Y-95448498D01*
X123989158Y-95578425D01*
X124032783Y-95633002D01*
X124039977Y-95702500D01*
X124008454Y-95764855D01*
X123989158Y-95781575D01*
X123803597Y-95911505D01*
X123636505Y-96078597D01*
X123500965Y-96272169D01*
X123500964Y-96272171D01*
X123401098Y-96486335D01*
X123401094Y-96486344D01*
X123339938Y-96714586D01*
X123339936Y-96714596D01*
X123319341Y-96949999D01*
X123319341Y-96950000D01*
X123339936Y-97185403D01*
X123339938Y-97185413D01*
X123401094Y-97413655D01*
X123401096Y-97413659D01*
X123401097Y-97413663D01*
X123481004Y-97585023D01*
X123500965Y-97627830D01*
X123500967Y-97627834D01*
X123535534Y-97677200D01*
X123636501Y-97821396D01*
X123636506Y-97821402D01*
X123803597Y-97988493D01*
X123803603Y-97988498D01*
X123989158Y-98118425D01*
X124032783Y-98173002D01*
X124039977Y-98242500D01*
X124008454Y-98304855D01*
X123989158Y-98321575D01*
X123803597Y-98451505D01*
X123636505Y-98618597D01*
X123500965Y-98812169D01*
X123500964Y-98812171D01*
X123401098Y-99026335D01*
X123401094Y-99026344D01*
X123339938Y-99254586D01*
X123339936Y-99254596D01*
X123319341Y-99489999D01*
X123319341Y-99490000D01*
X123339936Y-99725403D01*
X123339938Y-99725413D01*
X123401094Y-99953655D01*
X123401096Y-99953659D01*
X123401097Y-99953663D01*
X123479681Y-100122186D01*
X123500965Y-100167830D01*
X123500967Y-100167834D01*
X123588873Y-100293376D01*
X123636501Y-100361396D01*
X123636506Y-100361402D01*
X123803597Y-100528493D01*
X123803603Y-100528498D01*
X123989158Y-100658425D01*
X124032783Y-100713002D01*
X124039977Y-100782500D01*
X124008454Y-100844855D01*
X123989158Y-100861575D01*
X123803597Y-100991505D01*
X123636505Y-101158597D01*
X123500965Y-101352169D01*
X123500964Y-101352171D01*
X123401098Y-101566335D01*
X123401094Y-101566344D01*
X123339938Y-101794586D01*
X123339936Y-101794596D01*
X123319341Y-102029999D01*
X123319341Y-102030000D01*
X123339936Y-102265403D01*
X123339938Y-102265413D01*
X123401094Y-102493655D01*
X123401096Y-102493659D01*
X123401097Y-102493663D01*
X123409026Y-102510666D01*
X123500965Y-102707830D01*
X123500967Y-102707834D01*
X123577280Y-102816819D01*
X123636501Y-102901396D01*
X123636506Y-102901402D01*
X123803597Y-103068493D01*
X123803603Y-103068498D01*
X123989158Y-103198425D01*
X124032783Y-103253002D01*
X124039977Y-103322500D01*
X124008454Y-103384855D01*
X123989158Y-103401575D01*
X123803597Y-103531505D01*
X123636505Y-103698597D01*
X123500965Y-103892169D01*
X123500964Y-103892171D01*
X123401098Y-104106335D01*
X123401094Y-104106344D01*
X123339938Y-104334586D01*
X123339936Y-104334596D01*
X123319341Y-104569999D01*
X123319341Y-104570000D01*
X123339936Y-104805403D01*
X123339938Y-104805413D01*
X123401094Y-105033655D01*
X123401096Y-105033659D01*
X123401097Y-105033663D01*
X123405000Y-105042032D01*
X123500965Y-105247830D01*
X123500967Y-105247834D01*
X123609281Y-105402521D01*
X123636501Y-105441396D01*
X123636506Y-105441402D01*
X123803597Y-105608493D01*
X123803603Y-105608498D01*
X123989158Y-105738425D01*
X124032783Y-105793002D01*
X124039977Y-105862500D01*
X124008454Y-105924855D01*
X123989158Y-105941575D01*
X123803597Y-106071505D01*
X123636505Y-106238597D01*
X123500965Y-106432169D01*
X123500964Y-106432171D01*
X123401098Y-106646335D01*
X123401094Y-106646344D01*
X123339938Y-106874586D01*
X123339936Y-106874596D01*
X123319341Y-107109999D01*
X123319341Y-107110000D01*
X123339936Y-107345403D01*
X123339938Y-107345413D01*
X123401094Y-107573655D01*
X123401096Y-107573659D01*
X123401097Y-107573663D01*
X123405000Y-107582032D01*
X123500965Y-107787830D01*
X123500967Y-107787834D01*
X123609281Y-107942521D01*
X123636501Y-107981396D01*
X123636506Y-107981402D01*
X123803597Y-108148493D01*
X123803603Y-108148498D01*
X123989158Y-108278425D01*
X124032783Y-108333002D01*
X124039977Y-108402500D01*
X124008454Y-108464855D01*
X123989158Y-108481575D01*
X123803597Y-108611505D01*
X123636505Y-108778597D01*
X123500965Y-108972169D01*
X123500964Y-108972171D01*
X123401098Y-109186335D01*
X123401094Y-109186344D01*
X123339938Y-109414586D01*
X123339936Y-109414596D01*
X123319341Y-109649999D01*
X123319341Y-109650000D01*
X123339936Y-109885403D01*
X123339938Y-109885413D01*
X123401094Y-110113655D01*
X123401096Y-110113659D01*
X123401097Y-110113663D01*
X123405000Y-110122032D01*
X123500965Y-110327830D01*
X123500967Y-110327834D01*
X123609281Y-110482521D01*
X123636501Y-110521396D01*
X123636506Y-110521402D01*
X123803597Y-110688493D01*
X123803603Y-110688498D01*
X123989594Y-110818730D01*
X124033219Y-110873307D01*
X124040413Y-110942805D01*
X124008890Y-111005160D01*
X123989595Y-111021880D01*
X123803922Y-111151890D01*
X123803920Y-111151891D01*
X123636891Y-111318920D01*
X123636886Y-111318926D01*
X123501400Y-111512420D01*
X123501399Y-111512422D01*
X123401570Y-111726507D01*
X123401567Y-111726513D01*
X123344364Y-111939999D01*
X123344364Y-111940000D01*
X124241988Y-111940000D01*
X124209075Y-111997007D01*
X124175000Y-112124174D01*
X124175000Y-112255826D01*
X124209075Y-112382993D01*
X124241988Y-112440000D01*
X123344364Y-112440000D01*
X123401567Y-112653486D01*
X123401570Y-112653492D01*
X123501399Y-112867578D01*
X123636894Y-113061082D01*
X123758946Y-113183134D01*
X123792431Y-113244457D01*
X123787447Y-113314149D01*
X123745575Y-113370082D01*
X123714598Y-113386997D01*
X123582671Y-113436202D01*
X123582664Y-113436206D01*
X123467455Y-113522452D01*
X123467452Y-113522455D01*
X123381206Y-113637664D01*
X123381202Y-113637671D01*
X123330908Y-113772517D01*
X123324501Y-113832116D01*
X123324500Y-113832135D01*
X123324500Y-115627870D01*
X123324501Y-115627876D01*
X123330908Y-115687483D01*
X123381202Y-115822328D01*
X123381206Y-115822335D01*
X123467452Y-115937544D01*
X123467455Y-115937547D01*
X123582664Y-116023793D01*
X123582671Y-116023797D01*
X123717517Y-116074091D01*
X123717516Y-116074091D01*
X123724444Y-116074835D01*
X123777127Y-116080500D01*
X125572872Y-116080499D01*
X125632483Y-116074091D01*
X125767331Y-116023796D01*
X125882546Y-115937546D01*
X125968796Y-115822331D01*
X126017810Y-115690916D01*
X126059681Y-115634984D01*
X126125145Y-115610566D01*
X126193418Y-115625417D01*
X126221673Y-115646569D01*
X126343599Y-115768495D01*
X126440384Y-115836265D01*
X126537165Y-115904032D01*
X126537167Y-115904033D01*
X126537170Y-115904035D01*
X126751337Y-116003903D01*
X126979592Y-116065063D01*
X127156034Y-116080500D01*
X127214999Y-116085659D01*
X127215000Y-116085659D01*
X127215001Y-116085659D01*
X127273966Y-116080500D01*
X127450408Y-116065063D01*
X127678663Y-116003903D01*
X127892830Y-115904035D01*
X128086401Y-115768495D01*
X128253495Y-115601401D01*
X128389035Y-115407830D01*
X128488903Y-115193663D01*
X128550063Y-114965408D01*
X128570659Y-114730000D01*
X128550063Y-114494592D01*
X128488903Y-114266337D01*
X128389035Y-114052171D01*
X128338151Y-113979500D01*
X128253494Y-113858597D01*
X128086402Y-113691506D01*
X128086401Y-113691505D01*
X127900405Y-113561269D01*
X127856781Y-113506692D01*
X127849588Y-113437193D01*
X127881110Y-113374839D01*
X127900405Y-113358119D01*
X128086082Y-113228105D01*
X128253105Y-113061082D01*
X128388600Y-112867578D01*
X128488429Y-112653492D01*
X128488432Y-112653486D01*
X128545636Y-112440000D01*
X127648012Y-112440000D01*
X127680925Y-112382993D01*
X127715000Y-112255826D01*
X127715000Y-112124174D01*
X127680925Y-111997007D01*
X127648012Y-111940000D01*
X128545636Y-111940000D01*
X128545635Y-111939999D01*
X128488432Y-111726513D01*
X128488429Y-111726507D01*
X128388600Y-111512422D01*
X128388599Y-111512420D01*
X128253113Y-111318926D01*
X128253108Y-111318920D01*
X128086078Y-111151890D01*
X127900405Y-111021879D01*
X127856780Y-110967302D01*
X127849588Y-110897804D01*
X127881110Y-110835449D01*
X127900406Y-110818730D01*
X127900842Y-110818425D01*
X128086401Y-110688495D01*
X128253495Y-110521401D01*
X128389035Y-110327830D01*
X128488903Y-110113663D01*
X128550063Y-109885408D01*
X128570659Y-109650000D01*
X128550063Y-109414592D01*
X128488903Y-109186337D01*
X128389035Y-108972171D01*
X128383425Y-108964158D01*
X128253494Y-108778597D01*
X128086402Y-108611506D01*
X128086396Y-108611501D01*
X127900842Y-108481575D01*
X127857217Y-108426998D01*
X127850023Y-108357500D01*
X127881546Y-108295145D01*
X127900842Y-108278425D01*
X127923026Y-108262891D01*
X128086401Y-108148495D01*
X128253495Y-107981401D01*
X128389035Y-107787830D01*
X128488903Y-107573663D01*
X128550063Y-107345408D01*
X128570659Y-107110000D01*
X128550063Y-106874592D01*
X128488903Y-106646337D01*
X128389035Y-106432171D01*
X128383425Y-106424158D01*
X128253494Y-106238597D01*
X128086402Y-106071506D01*
X128086396Y-106071501D01*
X127900842Y-105941575D01*
X127857217Y-105886998D01*
X127850023Y-105817500D01*
X127881546Y-105755145D01*
X127900842Y-105738425D01*
X127923026Y-105722891D01*
X128086401Y-105608495D01*
X128253495Y-105441401D01*
X128389035Y-105247830D01*
X128488903Y-105033663D01*
X128550063Y-104805408D01*
X128570659Y-104570000D01*
X128550063Y-104334592D01*
X128488903Y-104106337D01*
X128389035Y-103892171D01*
X128383425Y-103884158D01*
X128253494Y-103698597D01*
X128086402Y-103531506D01*
X128086396Y-103531501D01*
X127900842Y-103401575D01*
X127857217Y-103346998D01*
X127850023Y-103277500D01*
X127881546Y-103215145D01*
X127900842Y-103198425D01*
X127923026Y-103182891D01*
X128086401Y-103068495D01*
X128253495Y-102901401D01*
X128301127Y-102833376D01*
X128355704Y-102789751D01*
X128402701Y-102780500D01*
X130562770Y-102780500D01*
X130629809Y-102800185D01*
X130650451Y-102816819D01*
X131038181Y-103204549D01*
X131071666Y-103265872D01*
X131074500Y-103292230D01*
X131074500Y-103780001D01*
X131074501Y-103780019D01*
X131085000Y-103882796D01*
X131085001Y-103882799D01*
X131140185Y-104049331D01*
X131140186Y-104049334D01*
X131232288Y-104198656D01*
X131356344Y-104322712D01*
X131505666Y-104414814D01*
X131672203Y-104469999D01*
X131774991Y-104480500D01*
X132575008Y-104480499D01*
X132575016Y-104480498D01*
X132575019Y-104480498D01*
X132631302Y-104474748D01*
X132677797Y-104469999D01*
X132844334Y-104414814D01*
X132993656Y-104322712D01*
X133087319Y-104229049D01*
X133148642Y-104195564D01*
X133218334Y-104200548D01*
X133262681Y-104229049D01*
X133356344Y-104322712D01*
X133365591Y-104328416D01*
X133412318Y-104380360D01*
X133424500Y-104433957D01*
X133424500Y-112353918D01*
X133424500Y-112353920D01*
X133424499Y-112353920D01*
X133453340Y-112498907D01*
X133453343Y-112498917D01*
X133509912Y-112635488D01*
X133509916Y-112635495D01*
X133528903Y-112663911D01*
X133528904Y-112663914D01*
X133592046Y-112758414D01*
X133592052Y-112758421D01*
X136146580Y-115312948D01*
X136146584Y-115312951D01*
X136269498Y-115395080D01*
X136269511Y-115395087D01*
X136406082Y-115451656D01*
X136406087Y-115451658D01*
X136406091Y-115451658D01*
X136406092Y-115451659D01*
X136551079Y-115480500D01*
X136551082Y-115480500D01*
X136698917Y-115480500D01*
X138062299Y-115480500D01*
X138129338Y-115500185D01*
X138163873Y-115533376D01*
X138211505Y-115601401D01*
X138378599Y-115768495D01*
X138475384Y-115836265D01*
X138572165Y-115904032D01*
X138572167Y-115904033D01*
X138572170Y-115904035D01*
X138786337Y-116003903D01*
X139014592Y-116065063D01*
X139191034Y-116080500D01*
X139249999Y-116085659D01*
X139250000Y-116085659D01*
X139250001Y-116085659D01*
X139308966Y-116080500D01*
X139485408Y-116065063D01*
X139713663Y-116003903D01*
X139927830Y-115904035D01*
X140121401Y-115768495D01*
X140288495Y-115601401D01*
X140424035Y-115407830D01*
X140523903Y-115193663D01*
X140585063Y-114965408D01*
X140605659Y-114730000D01*
X140585063Y-114494592D01*
X140523903Y-114266337D01*
X140424035Y-114052171D01*
X140373151Y-113979500D01*
X140288494Y-113858597D01*
X140121402Y-113691506D01*
X140121401Y-113691505D01*
X139935405Y-113561269D01*
X139891781Y-113506692D01*
X139884588Y-113437193D01*
X139916110Y-113374839D01*
X139935405Y-113358119D01*
X140011373Y-113304925D01*
X139379409Y-112672962D01*
X139442993Y-112655925D01*
X139557007Y-112590099D01*
X139650099Y-112497007D01*
X139715925Y-112382993D01*
X139732962Y-112319410D01*
X140364925Y-112951373D01*
X140364926Y-112951373D01*
X140423598Y-112867582D01*
X140423600Y-112867578D01*
X140523429Y-112653492D01*
X140523433Y-112653483D01*
X140584567Y-112425326D01*
X140584569Y-112425315D01*
X140605157Y-112190001D01*
X140605157Y-112189998D01*
X140584569Y-111954684D01*
X140584567Y-111954673D01*
X140523433Y-111726516D01*
X140523429Y-111726507D01*
X140423600Y-111512423D01*
X140423599Y-111512421D01*
X140364925Y-111428626D01*
X140364925Y-111428625D01*
X139732962Y-112060589D01*
X139715925Y-111997007D01*
X139650099Y-111882993D01*
X139557007Y-111789901D01*
X139442993Y-111724075D01*
X139379410Y-111707037D01*
X140011373Y-111075073D01*
X140011373Y-111075072D01*
X139935405Y-111021880D01*
X139891780Y-110967304D01*
X139884586Y-110897805D01*
X139916108Y-110835451D01*
X139935399Y-110818734D01*
X140121401Y-110688495D01*
X140288495Y-110521401D01*
X140424035Y-110327830D01*
X140523903Y-110113663D01*
X140585063Y-109885408D01*
X140605659Y-109650000D01*
X140585063Y-109414592D01*
X140523903Y-109186337D01*
X140424035Y-108972171D01*
X140418425Y-108964158D01*
X140288494Y-108778597D01*
X140121402Y-108611506D01*
X140121396Y-108611501D01*
X139935842Y-108481575D01*
X139892217Y-108426998D01*
X139885023Y-108357500D01*
X139916546Y-108295145D01*
X139935842Y-108278425D01*
X139958026Y-108262891D01*
X140121401Y-108148495D01*
X140288495Y-107981401D01*
X140424035Y-107787830D01*
X140523903Y-107573663D01*
X140585063Y-107345408D01*
X140605659Y-107110000D01*
X140585063Y-106874592D01*
X140523903Y-106646337D01*
X140424035Y-106432171D01*
X140418425Y-106424158D01*
X140288494Y-106238597D01*
X140121402Y-106071506D01*
X140121396Y-106071501D01*
X139935842Y-105941575D01*
X139892217Y-105886998D01*
X139885023Y-105817500D01*
X139916546Y-105755145D01*
X139935842Y-105738425D01*
X139958026Y-105722891D01*
X140121401Y-105608495D01*
X140288495Y-105441401D01*
X140424035Y-105247830D01*
X140523903Y-105033663D01*
X140585063Y-104805408D01*
X140605659Y-104570000D01*
X140585063Y-104334592D01*
X140523903Y-104106337D01*
X140424035Y-103892171D01*
X140418425Y-103884158D01*
X140288494Y-103698597D01*
X140121402Y-103531506D01*
X140121396Y-103531501D01*
X139935842Y-103401575D01*
X139892217Y-103346998D01*
X139885023Y-103277500D01*
X139916546Y-103215145D01*
X139935842Y-103198425D01*
X139958026Y-103182891D01*
X140121401Y-103068495D01*
X140288495Y-102901401D01*
X140424035Y-102707830D01*
X140523903Y-102493663D01*
X140585063Y-102265408D01*
X140605659Y-102030000D01*
X140585063Y-101794592D01*
X140523903Y-101566337D01*
X140424035Y-101352171D01*
X140418425Y-101344158D01*
X140288494Y-101158597D01*
X140121402Y-100991506D01*
X140121396Y-100991501D01*
X139935842Y-100861575D01*
X139892217Y-100806998D01*
X139885023Y-100737500D01*
X139916546Y-100675145D01*
X139935842Y-100658425D01*
X139958026Y-100642891D01*
X140121401Y-100528495D01*
X140288495Y-100361401D01*
X140424035Y-100167830D01*
X140523903Y-99953663D01*
X140585063Y-99725408D01*
X140605659Y-99490000D01*
X140585063Y-99254592D01*
X140538626Y-99081285D01*
X140523905Y-99026344D01*
X140523904Y-99026343D01*
X140523903Y-99026337D01*
X140424035Y-98812171D01*
X140418425Y-98804158D01*
X140288494Y-98618597D01*
X140121402Y-98451506D01*
X140121396Y-98451501D01*
X139935842Y-98321575D01*
X139892217Y-98266998D01*
X139885023Y-98197500D01*
X139916546Y-98135145D01*
X139935842Y-98118425D01*
X139958026Y-98102891D01*
X140121401Y-97988495D01*
X140288495Y-97821401D01*
X140424035Y-97627830D01*
X140523903Y-97413663D01*
X140585063Y-97185408D01*
X140605659Y-96950000D01*
X140585063Y-96714592D01*
X140523903Y-96486337D01*
X140424035Y-96272171D01*
X140418425Y-96264158D01*
X140288494Y-96078597D01*
X140121402Y-95911506D01*
X140121396Y-95911501D01*
X139935842Y-95781575D01*
X139892217Y-95726998D01*
X139885023Y-95657500D01*
X139916546Y-95595145D01*
X139935842Y-95578425D01*
X139958026Y-95562891D01*
X140121401Y-95448495D01*
X140288495Y-95281401D01*
X140424035Y-95087830D01*
X140523903Y-94873663D01*
X140585063Y-94645408D01*
X140605659Y-94410000D01*
X140585063Y-94174592D01*
X140523903Y-93946337D01*
X140424035Y-93732171D01*
X140418425Y-93724158D01*
X140288494Y-93538597D01*
X140121402Y-93371506D01*
X140121396Y-93371501D01*
X139935842Y-93241575D01*
X139892217Y-93186998D01*
X139885023Y-93117500D01*
X139916546Y-93055145D01*
X139935842Y-93038425D01*
X139958026Y-93022891D01*
X140121401Y-92908495D01*
X140288495Y-92741401D01*
X140424035Y-92547830D01*
X140523903Y-92333663D01*
X140585063Y-92105408D01*
X140605659Y-91870000D01*
X140585063Y-91634592D01*
X140523903Y-91406337D01*
X140424035Y-91192171D01*
X140418425Y-91184158D01*
X140288494Y-90998597D01*
X140121402Y-90831506D01*
X140121396Y-90831501D01*
X139935842Y-90701575D01*
X139892217Y-90646998D01*
X139885023Y-90577500D01*
X139916546Y-90515145D01*
X139935842Y-90498425D01*
X139958026Y-90482891D01*
X140121401Y-90368495D01*
X140288495Y-90201401D01*
X140424035Y-90007830D01*
X140523903Y-89793663D01*
X140585063Y-89565408D01*
X140605659Y-89330000D01*
X140585063Y-89094592D01*
X140523903Y-88866337D01*
X140424035Y-88652171D01*
X140418425Y-88644158D01*
X140288494Y-88458597D01*
X140121402Y-88291506D01*
X140121396Y-88291501D01*
X139935842Y-88161575D01*
X139892217Y-88106998D01*
X139885023Y-88037500D01*
X139916546Y-87975145D01*
X139935842Y-87958425D01*
X139958026Y-87942891D01*
X140121401Y-87828495D01*
X140288495Y-87661401D01*
X140424035Y-87467830D01*
X140477152Y-87353920D01*
X149149499Y-87353920D01*
X149178340Y-87498907D01*
X149178343Y-87498917D01*
X149234913Y-87635490D01*
X149234914Y-87635491D01*
X149234916Y-87635495D01*
X149252222Y-87661395D01*
X149252225Y-87661399D01*
X149252226Y-87661401D01*
X149317051Y-87758420D01*
X149317052Y-87758421D01*
X153117130Y-91558497D01*
X153150615Y-91619820D01*
X153152977Y-91656985D01*
X153134341Y-91869997D01*
X153134341Y-91870000D01*
X153154936Y-92105403D01*
X153154938Y-92105413D01*
X153216094Y-92333655D01*
X153216096Y-92333659D01*
X153216097Y-92333663D01*
X153220000Y-92342032D01*
X153315965Y-92547830D01*
X153315967Y-92547834D01*
X153424281Y-92702521D01*
X153451501Y-92741396D01*
X153451506Y-92741402D01*
X153618597Y-92908493D01*
X153618603Y-92908498D01*
X153804158Y-93038425D01*
X153847783Y-93093002D01*
X153854977Y-93162500D01*
X153823454Y-93224855D01*
X153804158Y-93241575D01*
X153618597Y-93371505D01*
X153451505Y-93538597D01*
X153315965Y-93732169D01*
X153315964Y-93732171D01*
X153216098Y-93946335D01*
X153216094Y-93946344D01*
X153154938Y-94174586D01*
X153154936Y-94174596D01*
X153134341Y-94409999D01*
X153134341Y-94410000D01*
X153154936Y-94645403D01*
X153154938Y-94645413D01*
X153216094Y-94873655D01*
X153216096Y-94873659D01*
X153216097Y-94873663D01*
X153220000Y-94882032D01*
X153315965Y-95087830D01*
X153315967Y-95087834D01*
X153424281Y-95242521D01*
X153451501Y-95281396D01*
X153451506Y-95281402D01*
X153618597Y-95448493D01*
X153618603Y-95448498D01*
X153804158Y-95578425D01*
X153847783Y-95633002D01*
X153854977Y-95702500D01*
X153823454Y-95764855D01*
X153804158Y-95781575D01*
X153618597Y-95911505D01*
X153451505Y-96078597D01*
X153315965Y-96272169D01*
X153315964Y-96272171D01*
X153216098Y-96486335D01*
X153216094Y-96486344D01*
X153154938Y-96714586D01*
X153154936Y-96714596D01*
X153134341Y-96949999D01*
X153134341Y-96950000D01*
X153154936Y-97185403D01*
X153154938Y-97185413D01*
X153216094Y-97413655D01*
X153216096Y-97413659D01*
X153216097Y-97413663D01*
X153296004Y-97585023D01*
X153315965Y-97627830D01*
X153315967Y-97627834D01*
X153350534Y-97677200D01*
X153451501Y-97821396D01*
X153451506Y-97821402D01*
X153618597Y-97988493D01*
X153618603Y-97988498D01*
X153804158Y-98118425D01*
X153847783Y-98173002D01*
X153854977Y-98242500D01*
X153823454Y-98304855D01*
X153804158Y-98321575D01*
X153618597Y-98451505D01*
X153451505Y-98618597D01*
X153315965Y-98812169D01*
X153315964Y-98812171D01*
X153216098Y-99026335D01*
X153216094Y-99026344D01*
X153154938Y-99254586D01*
X153154936Y-99254596D01*
X153134341Y-99489999D01*
X153134341Y-99490000D01*
X153154936Y-99725403D01*
X153154938Y-99725413D01*
X153216094Y-99953655D01*
X153216096Y-99953659D01*
X153216097Y-99953663D01*
X153294681Y-100122186D01*
X153315965Y-100167830D01*
X153315967Y-100167834D01*
X153403873Y-100293376D01*
X153451501Y-100361396D01*
X153451506Y-100361402D01*
X153618597Y-100528493D01*
X153618603Y-100528498D01*
X153804158Y-100658425D01*
X153847783Y-100713002D01*
X153854977Y-100782500D01*
X153823454Y-100844855D01*
X153804158Y-100861575D01*
X153618597Y-100991505D01*
X153451505Y-101158597D01*
X153315965Y-101352169D01*
X153315964Y-101352171D01*
X153216098Y-101566335D01*
X153216094Y-101566344D01*
X153154938Y-101794586D01*
X153154936Y-101794596D01*
X153134341Y-102029999D01*
X153134341Y-102030000D01*
X153154936Y-102265403D01*
X153154938Y-102265413D01*
X153216094Y-102493655D01*
X153216096Y-102493659D01*
X153216097Y-102493663D01*
X153224026Y-102510666D01*
X153315965Y-102707830D01*
X153315967Y-102707834D01*
X153392280Y-102816819D01*
X153451501Y-102901396D01*
X153451506Y-102901402D01*
X153618597Y-103068493D01*
X153618603Y-103068498D01*
X153804158Y-103198425D01*
X153847783Y-103253002D01*
X153854977Y-103322500D01*
X153823454Y-103384855D01*
X153804158Y-103401575D01*
X153618597Y-103531505D01*
X153451505Y-103698597D01*
X153315965Y-103892169D01*
X153315964Y-103892171D01*
X153216098Y-104106335D01*
X153216094Y-104106344D01*
X153154938Y-104334586D01*
X153154936Y-104334596D01*
X153134341Y-104569999D01*
X153134341Y-104570000D01*
X153154936Y-104805403D01*
X153154938Y-104805413D01*
X153216094Y-105033655D01*
X153216096Y-105033659D01*
X153216097Y-105033663D01*
X153220000Y-105042032D01*
X153315965Y-105247830D01*
X153315967Y-105247834D01*
X153424281Y-105402521D01*
X153451501Y-105441396D01*
X153451506Y-105441402D01*
X153618597Y-105608493D01*
X153618603Y-105608498D01*
X153804158Y-105738425D01*
X153847783Y-105793002D01*
X153854977Y-105862500D01*
X153823454Y-105924855D01*
X153804158Y-105941575D01*
X153618597Y-106071505D01*
X153451505Y-106238597D01*
X153315965Y-106432169D01*
X153315964Y-106432171D01*
X153216098Y-106646335D01*
X153216094Y-106646344D01*
X153154938Y-106874586D01*
X153154936Y-106874596D01*
X153134341Y-107109999D01*
X153134341Y-107110000D01*
X153154936Y-107345403D01*
X153154938Y-107345413D01*
X153216094Y-107573655D01*
X153216096Y-107573659D01*
X153216097Y-107573663D01*
X153220000Y-107582032D01*
X153315965Y-107787830D01*
X153315967Y-107787834D01*
X153424281Y-107942521D01*
X153451501Y-107981396D01*
X153451506Y-107981402D01*
X153618597Y-108148493D01*
X153618603Y-108148498D01*
X153804158Y-108278425D01*
X153847783Y-108333002D01*
X153854977Y-108402500D01*
X153823454Y-108464855D01*
X153804158Y-108481575D01*
X153618597Y-108611505D01*
X153451505Y-108778597D01*
X153315965Y-108972169D01*
X153315964Y-108972171D01*
X153216098Y-109186335D01*
X153216094Y-109186344D01*
X153154938Y-109414586D01*
X153154936Y-109414596D01*
X153134341Y-109649999D01*
X153134341Y-109650000D01*
X153154936Y-109885403D01*
X153154938Y-109885413D01*
X153216094Y-110113655D01*
X153216096Y-110113659D01*
X153216097Y-110113663D01*
X153220000Y-110122032D01*
X153315965Y-110327830D01*
X153315967Y-110327834D01*
X153424281Y-110482521D01*
X153451501Y-110521396D01*
X153451506Y-110521402D01*
X153618597Y-110688493D01*
X153618603Y-110688498D01*
X153804158Y-110818425D01*
X153847783Y-110873002D01*
X153854977Y-110942500D01*
X153823454Y-111004855D01*
X153804158Y-111021575D01*
X153618597Y-111151505D01*
X153451505Y-111318597D01*
X153315965Y-111512169D01*
X153315964Y-111512171D01*
X153216098Y-111726335D01*
X153216094Y-111726344D01*
X153154938Y-111954586D01*
X153154936Y-111954596D01*
X153134341Y-112189999D01*
X153134341Y-112190000D01*
X153154936Y-112425403D01*
X153154938Y-112425413D01*
X153216094Y-112653655D01*
X153216096Y-112653659D01*
X153216097Y-112653663D01*
X153264947Y-112758421D01*
X153315965Y-112867830D01*
X153315967Y-112867834D01*
X153374462Y-112951373D01*
X153451501Y-113061396D01*
X153451506Y-113061402D01*
X153618597Y-113228493D01*
X153618603Y-113228498D01*
X153804158Y-113358425D01*
X153847783Y-113413002D01*
X153854977Y-113482500D01*
X153823454Y-113544855D01*
X153804158Y-113561575D01*
X153618597Y-113691505D01*
X153451505Y-113858597D01*
X153315965Y-114052169D01*
X153315964Y-114052171D01*
X153216098Y-114266335D01*
X153216094Y-114266344D01*
X153154938Y-114494586D01*
X153154936Y-114494596D01*
X153134341Y-114729999D01*
X153134341Y-114730000D01*
X153154936Y-114965403D01*
X153154938Y-114965413D01*
X153216094Y-115193655D01*
X153216096Y-115193659D01*
X153216097Y-115193663D01*
X153271721Y-115312948D01*
X153315965Y-115407830D01*
X153315967Y-115407834D01*
X153403873Y-115533376D01*
X153451505Y-115601401D01*
X153618599Y-115768495D01*
X153715384Y-115836265D01*
X153812165Y-115904032D01*
X153812167Y-115904033D01*
X153812170Y-115904035D01*
X154026337Y-116003903D01*
X154254592Y-116065063D01*
X154431034Y-116080500D01*
X154489999Y-116085659D01*
X154490000Y-116085659D01*
X154490001Y-116085659D01*
X154548966Y-116080500D01*
X154725408Y-116065063D01*
X154953663Y-116003903D01*
X155167830Y-115904035D01*
X155361401Y-115768495D01*
X155528495Y-115601401D01*
X155664035Y-115407830D01*
X155763903Y-115193663D01*
X155825063Y-114965408D01*
X155845659Y-114730000D01*
X155825063Y-114494592D01*
X155763903Y-114266337D01*
X155664035Y-114052171D01*
X155613151Y-113979500D01*
X155528494Y-113858597D01*
X155361402Y-113691506D01*
X155361396Y-113691501D01*
X155175842Y-113561575D01*
X155132217Y-113506998D01*
X155125023Y-113437500D01*
X155156546Y-113375145D01*
X155175842Y-113358425D01*
X155238800Y-113314341D01*
X155361401Y-113228495D01*
X155528495Y-113061401D01*
X155664035Y-112867830D01*
X155763903Y-112653663D01*
X155825063Y-112425408D01*
X155845659Y-112190000D01*
X155825063Y-111954592D01*
X155763903Y-111726337D01*
X155664035Y-111512171D01*
X155658425Y-111504158D01*
X155528494Y-111318597D01*
X155361402Y-111151506D01*
X155361396Y-111151501D01*
X155175842Y-111021575D01*
X155132217Y-110966998D01*
X155125023Y-110897500D01*
X155156546Y-110835145D01*
X155175842Y-110818425D01*
X155198026Y-110802891D01*
X155361401Y-110688495D01*
X155528495Y-110521401D01*
X155664035Y-110327830D01*
X155763903Y-110113663D01*
X155825063Y-109885408D01*
X155845659Y-109650000D01*
X155825063Y-109414592D01*
X155763903Y-109186337D01*
X155664035Y-108972171D01*
X155658425Y-108964158D01*
X155528494Y-108778597D01*
X155361402Y-108611506D01*
X155361396Y-108611501D01*
X155175842Y-108481575D01*
X155132217Y-108426998D01*
X155125023Y-108357500D01*
X155156546Y-108295145D01*
X155175842Y-108278425D01*
X155198026Y-108262891D01*
X155361401Y-108148495D01*
X155528495Y-107981401D01*
X155664035Y-107787830D01*
X155763903Y-107573663D01*
X155825063Y-107345408D01*
X155845659Y-107110000D01*
X155825063Y-106874592D01*
X155763903Y-106646337D01*
X155664035Y-106432171D01*
X155658425Y-106424158D01*
X155528494Y-106238597D01*
X155361402Y-106071506D01*
X155361396Y-106071501D01*
X155175842Y-105941575D01*
X155132217Y-105886998D01*
X155125023Y-105817500D01*
X155156546Y-105755145D01*
X155175842Y-105738425D01*
X155198026Y-105722891D01*
X155361401Y-105608495D01*
X155528495Y-105441401D01*
X155664035Y-105247830D01*
X155763903Y-105033663D01*
X155825063Y-104805408D01*
X155845659Y-104570000D01*
X155825063Y-104334592D01*
X155763903Y-104106337D01*
X155664035Y-103892171D01*
X155658425Y-103884158D01*
X155528494Y-103698597D01*
X155361402Y-103531506D01*
X155361396Y-103531501D01*
X155175842Y-103401575D01*
X155132217Y-103346998D01*
X155125023Y-103277500D01*
X155156546Y-103215145D01*
X155175842Y-103198425D01*
X155198026Y-103182891D01*
X155361401Y-103068495D01*
X155528495Y-102901401D01*
X155664035Y-102707830D01*
X155763903Y-102493663D01*
X155825063Y-102265408D01*
X155845659Y-102030000D01*
X155825063Y-101794592D01*
X155763903Y-101566337D01*
X155664035Y-101352171D01*
X155658425Y-101344158D01*
X155528494Y-101158597D01*
X155361402Y-100991506D01*
X155361396Y-100991501D01*
X155175842Y-100861575D01*
X155132217Y-100806998D01*
X155125023Y-100737500D01*
X155156546Y-100675145D01*
X155175842Y-100658425D01*
X155198026Y-100642891D01*
X155361401Y-100528495D01*
X155528495Y-100361401D01*
X155664035Y-100167830D01*
X155763903Y-99953663D01*
X155825063Y-99725408D01*
X155845659Y-99490000D01*
X155825063Y-99254592D01*
X155778626Y-99081285D01*
X155763905Y-99026344D01*
X155763904Y-99026343D01*
X155763903Y-99026337D01*
X155664035Y-98812171D01*
X155658425Y-98804158D01*
X155528494Y-98618597D01*
X155361402Y-98451506D01*
X155361396Y-98451501D01*
X155175842Y-98321575D01*
X155132217Y-98266998D01*
X155125023Y-98197500D01*
X155156546Y-98135145D01*
X155175842Y-98118425D01*
X155198026Y-98102891D01*
X155361401Y-97988495D01*
X155528495Y-97821401D01*
X155664035Y-97627830D01*
X155763903Y-97413663D01*
X155825063Y-97185408D01*
X155845659Y-96950000D01*
X155825063Y-96714592D01*
X155763903Y-96486337D01*
X155664035Y-96272171D01*
X155658425Y-96264158D01*
X155528494Y-96078597D01*
X155361402Y-95911506D01*
X155361396Y-95911501D01*
X155175842Y-95781575D01*
X155132217Y-95726998D01*
X155125023Y-95657500D01*
X155156546Y-95595145D01*
X155175842Y-95578425D01*
X155198026Y-95562891D01*
X155361401Y-95448495D01*
X155528495Y-95281401D01*
X155664035Y-95087830D01*
X155763903Y-94873663D01*
X155825063Y-94645408D01*
X155845659Y-94410000D01*
X155825063Y-94174592D01*
X155763903Y-93946337D01*
X155664035Y-93732171D01*
X155658425Y-93724158D01*
X155528494Y-93538597D01*
X155361402Y-93371506D01*
X155361396Y-93371501D01*
X155175842Y-93241575D01*
X155132217Y-93186998D01*
X155125023Y-93117500D01*
X155156546Y-93055145D01*
X155175842Y-93038425D01*
X155198026Y-93022891D01*
X155361401Y-92908495D01*
X155528495Y-92741401D01*
X155664035Y-92547830D01*
X155763903Y-92333663D01*
X155825063Y-92105408D01*
X155845659Y-91870000D01*
X155825063Y-91634592D01*
X155763903Y-91406337D01*
X155664035Y-91192171D01*
X155658425Y-91184158D01*
X155528494Y-90998597D01*
X155361402Y-90831506D01*
X155361396Y-90831501D01*
X155175842Y-90701575D01*
X155132217Y-90646998D01*
X155125023Y-90577500D01*
X155156546Y-90515145D01*
X155175842Y-90498425D01*
X155198026Y-90482891D01*
X155361401Y-90368495D01*
X155528495Y-90201401D01*
X155664035Y-90007830D01*
X155763903Y-89793663D01*
X155825063Y-89565408D01*
X155845659Y-89330000D01*
X155825063Y-89094592D01*
X155763903Y-88866337D01*
X155664035Y-88652171D01*
X155658425Y-88644158D01*
X155528494Y-88458597D01*
X155361402Y-88291506D01*
X155361396Y-88291501D01*
X155175842Y-88161575D01*
X155132217Y-88106998D01*
X155125023Y-88037500D01*
X155156546Y-87975145D01*
X155175842Y-87958425D01*
X155198026Y-87942891D01*
X155361401Y-87828495D01*
X155528495Y-87661401D01*
X155664035Y-87467830D01*
X155763903Y-87253663D01*
X155825063Y-87025408D01*
X155845659Y-86790000D01*
X155825063Y-86554592D01*
X155763903Y-86326337D01*
X155664035Y-86112171D01*
X155658425Y-86104158D01*
X155528494Y-85918597D01*
X155361402Y-85751506D01*
X155361396Y-85751501D01*
X155175842Y-85621575D01*
X155132217Y-85566998D01*
X155125023Y-85497500D01*
X155156546Y-85435145D01*
X155175842Y-85418425D01*
X155198026Y-85402891D01*
X155361401Y-85288495D01*
X155528495Y-85121401D01*
X155664035Y-84927830D01*
X155763903Y-84713663D01*
X155825063Y-84485408D01*
X155845659Y-84250000D01*
X155825063Y-84014592D01*
X155763903Y-83786337D01*
X155664035Y-83572171D01*
X155658425Y-83564158D01*
X155528494Y-83378597D01*
X155361402Y-83211506D01*
X155361396Y-83211501D01*
X155175842Y-83081575D01*
X155132217Y-83026998D01*
X155125023Y-82957500D01*
X155156546Y-82895145D01*
X155175842Y-82878425D01*
X155198026Y-82862891D01*
X155361401Y-82748495D01*
X155528495Y-82581401D01*
X155664035Y-82387830D01*
X155763903Y-82173663D01*
X155825063Y-81945408D01*
X155845659Y-81710000D01*
X155825063Y-81474592D01*
X155763903Y-81246337D01*
X155664035Y-81032171D01*
X155658425Y-81024158D01*
X155528494Y-80838597D01*
X155361402Y-80671506D01*
X155361396Y-80671501D01*
X155175842Y-80541575D01*
X155132217Y-80486998D01*
X155125023Y-80417500D01*
X155156546Y-80355145D01*
X155175842Y-80338425D01*
X155198026Y-80322891D01*
X155361401Y-80208495D01*
X155528495Y-80041401D01*
X155664035Y-79847830D01*
X155763903Y-79633663D01*
X155825063Y-79405408D01*
X155845659Y-79170000D01*
X155825063Y-78934592D01*
X155763903Y-78706337D01*
X155664035Y-78492171D01*
X155658425Y-78484158D01*
X155528494Y-78298597D01*
X155361402Y-78131506D01*
X155361396Y-78131501D01*
X155175842Y-78001575D01*
X155132217Y-77946998D01*
X155125023Y-77877500D01*
X155156546Y-77815145D01*
X155175842Y-77798425D01*
X155198026Y-77782891D01*
X155361401Y-77668495D01*
X155528495Y-77501401D01*
X155664035Y-77307830D01*
X155763903Y-77093663D01*
X155825063Y-76865408D01*
X155845659Y-76630000D01*
X155825063Y-76394592D01*
X155763903Y-76166337D01*
X155664035Y-75952171D01*
X155658425Y-75944158D01*
X155528494Y-75758597D01*
X155361402Y-75591506D01*
X155361396Y-75591501D01*
X155175842Y-75461575D01*
X155132217Y-75406998D01*
X155125023Y-75337500D01*
X155156546Y-75275145D01*
X155175842Y-75258425D01*
X155198026Y-75242891D01*
X155361401Y-75128495D01*
X155528495Y-74961401D01*
X155664035Y-74767830D01*
X155763903Y-74553663D01*
X155825063Y-74325408D01*
X155845659Y-74090000D01*
X155825063Y-73854592D01*
X155763903Y-73626337D01*
X155664035Y-73412171D01*
X155659772Y-73406082D01*
X155528494Y-73218597D01*
X155361402Y-73051506D01*
X155361396Y-73051501D01*
X155175842Y-72921575D01*
X155132217Y-72866998D01*
X155125023Y-72797500D01*
X155156546Y-72735145D01*
X155175842Y-72718425D01*
X155198026Y-72702891D01*
X155361401Y-72588495D01*
X155528495Y-72421401D01*
X155576127Y-72353376D01*
X155630704Y-72309751D01*
X155677701Y-72300500D01*
X157581083Y-72300500D01*
X157582770Y-72300500D01*
X157649809Y-72320185D01*
X157670451Y-72336819D01*
X159088181Y-73754548D01*
X159121666Y-73815871D01*
X159124500Y-73842229D01*
X159124500Y-74196042D01*
X159104815Y-74263081D01*
X159065598Y-74301580D01*
X159056344Y-74307287D01*
X158932289Y-74431342D01*
X158840187Y-74580663D01*
X158840186Y-74580666D01*
X158785001Y-74747203D01*
X158785001Y-74747204D01*
X158785000Y-74747204D01*
X158774500Y-74849983D01*
X158774500Y-75850001D01*
X158774501Y-75850019D01*
X158785000Y-75952796D01*
X158785001Y-75952799D01*
X158840185Y-76119331D01*
X158840187Y-76119336D01*
X158869182Y-76166344D01*
X158932288Y-76268656D01*
X159056344Y-76392712D01*
X159115596Y-76429258D01*
X159162321Y-76481204D01*
X159174500Y-76534797D01*
X159174500Y-79257537D01*
X159154815Y-79324576D01*
X159115599Y-79363075D01*
X159076342Y-79387289D01*
X158952289Y-79511342D01*
X158860187Y-79660663D01*
X158860186Y-79660666D01*
X158805001Y-79827203D01*
X158805001Y-79827204D01*
X158805000Y-79827204D01*
X158794500Y-79929983D01*
X158794500Y-80930001D01*
X158794501Y-80930019D01*
X158805000Y-81032796D01*
X158805001Y-81032799D01*
X158860185Y-81199331D01*
X158860187Y-81199336D01*
X158889182Y-81246344D01*
X158952288Y-81348656D01*
X159076344Y-81472712D01*
X159225666Y-81564814D01*
X159392203Y-81619999D01*
X159494991Y-81630500D01*
X160295008Y-81630499D01*
X160295016Y-81630498D01*
X160295019Y-81630498D01*
X160351302Y-81624748D01*
X160397797Y-81619999D01*
X160564334Y-81564814D01*
X160713656Y-81472712D01*
X160807319Y-81379049D01*
X160868642Y-81345564D01*
X160938334Y-81350548D01*
X160982681Y-81379049D01*
X161076344Y-81472712D01*
X161225666Y-81564814D01*
X161392203Y-81619999D01*
X161494991Y-81630500D01*
X162295008Y-81630499D01*
X162295016Y-81630498D01*
X162295019Y-81630498D01*
X162351302Y-81624748D01*
X162397797Y-81619999D01*
X162564334Y-81564814D01*
X162713656Y-81472712D01*
X162837712Y-81348656D01*
X162929814Y-81199334D01*
X162984999Y-81032797D01*
X162995500Y-80930009D01*
X162995499Y-80442228D01*
X163015183Y-80375190D01*
X163031813Y-80354553D01*
X163429548Y-79956819D01*
X163490871Y-79923334D01*
X163517229Y-79920500D01*
X165487299Y-79920500D01*
X165554338Y-79940185D01*
X165588873Y-79973376D01*
X165636505Y-80041401D01*
X165803597Y-80208493D01*
X165803603Y-80208498D01*
X165989158Y-80338425D01*
X166032783Y-80393002D01*
X166039977Y-80462500D01*
X166008454Y-80524855D01*
X165989158Y-80541575D01*
X165803597Y-80671505D01*
X165636505Y-80838597D01*
X165500965Y-81032169D01*
X165500964Y-81032171D01*
X165401098Y-81246335D01*
X165401094Y-81246344D01*
X165339938Y-81474586D01*
X165339936Y-81474596D01*
X165319341Y-81709999D01*
X165319341Y-81710000D01*
X165339936Y-81945403D01*
X165339938Y-81945413D01*
X165401094Y-82173655D01*
X165401096Y-82173659D01*
X165401097Y-82173663D01*
X165405000Y-82182032D01*
X165500965Y-82387830D01*
X165500967Y-82387834D01*
X165609281Y-82542521D01*
X165636501Y-82581396D01*
X165636506Y-82581402D01*
X165803597Y-82748493D01*
X165803603Y-82748498D01*
X165989158Y-82878425D01*
X166032783Y-82933002D01*
X166039977Y-83002500D01*
X166008454Y-83064855D01*
X165989158Y-83081575D01*
X165803597Y-83211505D01*
X165636505Y-83378597D01*
X165500965Y-83572169D01*
X165500964Y-83572171D01*
X165401098Y-83786335D01*
X165401094Y-83786344D01*
X165339938Y-84014586D01*
X165339936Y-84014596D01*
X165319341Y-84249999D01*
X165319341Y-84250000D01*
X165339936Y-84485403D01*
X165339938Y-84485413D01*
X165401094Y-84713655D01*
X165401096Y-84713659D01*
X165401097Y-84713663D01*
X165405000Y-84722032D01*
X165500965Y-84927830D01*
X165500967Y-84927834D01*
X165609281Y-85082521D01*
X165636501Y-85121396D01*
X165636506Y-85121402D01*
X165803597Y-85288493D01*
X165803603Y-85288498D01*
X165989158Y-85418425D01*
X166032783Y-85473002D01*
X166039977Y-85542500D01*
X166008454Y-85604855D01*
X165989158Y-85621575D01*
X165803597Y-85751505D01*
X165636505Y-85918597D01*
X165500965Y-86112169D01*
X165500964Y-86112171D01*
X165401098Y-86326335D01*
X165401094Y-86326344D01*
X165339938Y-86554586D01*
X165339936Y-86554596D01*
X165319341Y-86789999D01*
X165319341Y-86790000D01*
X165339936Y-87025403D01*
X165339938Y-87025413D01*
X165401094Y-87253655D01*
X165401096Y-87253659D01*
X165401097Y-87253663D01*
X165405000Y-87262032D01*
X165500965Y-87467830D01*
X165500967Y-87467834D01*
X165522732Y-87498917D01*
X165636504Y-87661399D01*
X165636505Y-87661401D01*
X165803597Y-87828493D01*
X165803603Y-87828498D01*
X165989158Y-87958425D01*
X166032783Y-88013002D01*
X166039977Y-88082500D01*
X166008454Y-88144855D01*
X165989158Y-88161575D01*
X165803597Y-88291505D01*
X165636505Y-88458597D01*
X165500965Y-88652169D01*
X165500964Y-88652171D01*
X165401098Y-88866335D01*
X165401094Y-88866344D01*
X165339938Y-89094586D01*
X165339936Y-89094596D01*
X165319341Y-89329999D01*
X165319341Y-89330000D01*
X165339936Y-89565403D01*
X165339938Y-89565413D01*
X165401094Y-89793655D01*
X165401096Y-89793659D01*
X165401097Y-89793663D01*
X165405000Y-89802032D01*
X165500965Y-90007830D01*
X165500967Y-90007834D01*
X165609281Y-90162521D01*
X165636501Y-90201396D01*
X165636506Y-90201402D01*
X165803597Y-90368493D01*
X165803603Y-90368498D01*
X165989158Y-90498425D01*
X166032783Y-90553002D01*
X166039977Y-90622500D01*
X166008454Y-90684855D01*
X165989158Y-90701575D01*
X165803597Y-90831505D01*
X165636505Y-90998597D01*
X165500965Y-91192169D01*
X165500964Y-91192171D01*
X165401098Y-91406335D01*
X165401094Y-91406344D01*
X165339938Y-91634586D01*
X165339936Y-91634596D01*
X165319341Y-91869999D01*
X165319341Y-91870000D01*
X165339936Y-92105403D01*
X165339938Y-92105413D01*
X165401094Y-92333655D01*
X165401096Y-92333659D01*
X165401097Y-92333663D01*
X165405000Y-92342032D01*
X165500965Y-92547830D01*
X165500967Y-92547834D01*
X165609281Y-92702521D01*
X165636501Y-92741396D01*
X165636506Y-92741402D01*
X165803597Y-92908493D01*
X165803603Y-92908498D01*
X165989158Y-93038425D01*
X166032783Y-93093002D01*
X166039977Y-93162500D01*
X166008454Y-93224855D01*
X165989158Y-93241575D01*
X165803597Y-93371505D01*
X165636505Y-93538597D01*
X165500965Y-93732169D01*
X165500964Y-93732171D01*
X165401098Y-93946335D01*
X165401094Y-93946344D01*
X165339938Y-94174586D01*
X165339936Y-94174596D01*
X165319341Y-94409999D01*
X165319341Y-94410000D01*
X165339936Y-94645403D01*
X165339938Y-94645413D01*
X165401094Y-94873655D01*
X165401096Y-94873659D01*
X165401097Y-94873663D01*
X165405000Y-94882032D01*
X165500965Y-95087830D01*
X165500967Y-95087834D01*
X165609281Y-95242521D01*
X165636501Y-95281396D01*
X165636506Y-95281402D01*
X165803597Y-95448493D01*
X165803603Y-95448498D01*
X165989158Y-95578425D01*
X166032783Y-95633002D01*
X166039977Y-95702500D01*
X166008454Y-95764855D01*
X165989158Y-95781575D01*
X165803597Y-95911505D01*
X165636505Y-96078597D01*
X165500965Y-96272169D01*
X165500964Y-96272171D01*
X165401098Y-96486335D01*
X165401094Y-96486344D01*
X165339938Y-96714586D01*
X165339936Y-96714596D01*
X165319341Y-96949999D01*
X165319341Y-96950000D01*
X165339936Y-97185403D01*
X165339938Y-97185413D01*
X165401094Y-97413655D01*
X165401096Y-97413659D01*
X165401097Y-97413663D01*
X165481004Y-97585023D01*
X165500965Y-97627830D01*
X165500967Y-97627834D01*
X165535534Y-97677200D01*
X165636501Y-97821396D01*
X165636506Y-97821402D01*
X165803597Y-97988493D01*
X165803603Y-97988498D01*
X165989158Y-98118425D01*
X166032783Y-98173002D01*
X166039977Y-98242500D01*
X166008454Y-98304855D01*
X165989158Y-98321575D01*
X165803597Y-98451505D01*
X165636505Y-98618597D01*
X165500965Y-98812169D01*
X165500964Y-98812171D01*
X165401098Y-99026335D01*
X165401094Y-99026344D01*
X165339938Y-99254586D01*
X165339936Y-99254596D01*
X165319341Y-99489999D01*
X165319341Y-99490000D01*
X165339936Y-99725403D01*
X165339938Y-99725413D01*
X165401094Y-99953655D01*
X165401096Y-99953659D01*
X165401097Y-99953663D01*
X165479681Y-100122186D01*
X165500965Y-100167830D01*
X165500967Y-100167834D01*
X165588873Y-100293376D01*
X165636501Y-100361396D01*
X165636506Y-100361402D01*
X165803597Y-100528493D01*
X165803603Y-100528498D01*
X165989158Y-100658425D01*
X166032783Y-100713002D01*
X166039977Y-100782500D01*
X166008454Y-100844855D01*
X165989158Y-100861575D01*
X165803597Y-100991505D01*
X165636505Y-101158597D01*
X165500965Y-101352169D01*
X165500964Y-101352171D01*
X165401098Y-101566335D01*
X165401094Y-101566344D01*
X165339938Y-101794586D01*
X165339936Y-101794596D01*
X165319341Y-102029999D01*
X165319341Y-102030000D01*
X165339936Y-102265403D01*
X165339938Y-102265413D01*
X165401094Y-102493655D01*
X165401096Y-102493659D01*
X165401097Y-102493663D01*
X165409026Y-102510666D01*
X165500965Y-102707830D01*
X165500967Y-102707834D01*
X165577280Y-102816819D01*
X165636501Y-102901396D01*
X165636506Y-102901402D01*
X165803597Y-103068493D01*
X165803603Y-103068498D01*
X165989158Y-103198425D01*
X166032783Y-103253002D01*
X166039977Y-103322500D01*
X166008454Y-103384855D01*
X165989158Y-103401575D01*
X165803597Y-103531505D01*
X165636505Y-103698597D01*
X165500965Y-103892169D01*
X165500964Y-103892171D01*
X165401098Y-104106335D01*
X165401094Y-104106344D01*
X165339938Y-104334586D01*
X165339936Y-104334596D01*
X165319341Y-104569999D01*
X165319341Y-104570000D01*
X165339936Y-104805403D01*
X165339938Y-104805413D01*
X165401094Y-105033655D01*
X165401096Y-105033659D01*
X165401097Y-105033663D01*
X165405000Y-105042032D01*
X165500965Y-105247830D01*
X165500967Y-105247834D01*
X165609281Y-105402521D01*
X165636501Y-105441396D01*
X165636506Y-105441402D01*
X165803597Y-105608493D01*
X165803603Y-105608498D01*
X165989158Y-105738425D01*
X166032783Y-105793002D01*
X166039977Y-105862500D01*
X166008454Y-105924855D01*
X165989158Y-105941575D01*
X165803597Y-106071505D01*
X165636505Y-106238597D01*
X165500965Y-106432169D01*
X165500964Y-106432171D01*
X165401098Y-106646335D01*
X165401094Y-106646344D01*
X165339938Y-106874586D01*
X165339936Y-106874596D01*
X165319341Y-107109999D01*
X165319341Y-107110000D01*
X165339936Y-107345403D01*
X165339938Y-107345413D01*
X165401094Y-107573655D01*
X165401096Y-107573659D01*
X165401097Y-107573663D01*
X165405000Y-107582032D01*
X165500965Y-107787830D01*
X165500967Y-107787834D01*
X165609281Y-107942521D01*
X165636501Y-107981396D01*
X165636506Y-107981402D01*
X165803597Y-108148493D01*
X165803603Y-108148498D01*
X165989158Y-108278425D01*
X166032783Y-108333002D01*
X166039977Y-108402500D01*
X166008454Y-108464855D01*
X165989158Y-108481575D01*
X165803597Y-108611505D01*
X165636505Y-108778597D01*
X165500965Y-108972169D01*
X165500964Y-108972171D01*
X165401098Y-109186335D01*
X165401094Y-109186344D01*
X165339938Y-109414586D01*
X165339936Y-109414596D01*
X165319341Y-109649999D01*
X165319341Y-109650000D01*
X165339936Y-109885403D01*
X165339938Y-109885413D01*
X165401094Y-110113655D01*
X165401096Y-110113659D01*
X165401097Y-110113663D01*
X165405000Y-110122032D01*
X165500965Y-110327830D01*
X165500967Y-110327834D01*
X165609281Y-110482521D01*
X165636501Y-110521396D01*
X165636506Y-110521402D01*
X165803597Y-110688493D01*
X165803603Y-110688498D01*
X165989158Y-110818425D01*
X166032783Y-110873002D01*
X166039977Y-110942500D01*
X166008454Y-111004855D01*
X165989158Y-111021575D01*
X165803597Y-111151505D01*
X165636505Y-111318597D01*
X165500965Y-111512169D01*
X165500964Y-111512171D01*
X165401098Y-111726335D01*
X165401094Y-111726344D01*
X165339938Y-111954586D01*
X165339936Y-111954596D01*
X165319341Y-112189999D01*
X165319341Y-112190000D01*
X165339936Y-112425403D01*
X165339938Y-112425413D01*
X165401094Y-112653655D01*
X165401096Y-112653659D01*
X165401097Y-112653663D01*
X165449947Y-112758421D01*
X165500965Y-112867830D01*
X165500967Y-112867834D01*
X165559462Y-112951373D01*
X165636501Y-113061396D01*
X165636506Y-113061402D01*
X165758430Y-113183326D01*
X165791915Y-113244649D01*
X165786931Y-113314341D01*
X165745059Y-113370274D01*
X165714083Y-113387189D01*
X165582669Y-113436203D01*
X165582664Y-113436206D01*
X165467455Y-113522452D01*
X165467452Y-113522455D01*
X165381206Y-113637664D01*
X165381202Y-113637671D01*
X165330908Y-113772517D01*
X165324501Y-113832116D01*
X165324500Y-113832135D01*
X165324500Y-115627870D01*
X165324501Y-115627876D01*
X165330908Y-115687483D01*
X165381202Y-115822328D01*
X165381206Y-115822335D01*
X165467452Y-115937544D01*
X165467455Y-115937547D01*
X165582664Y-116023793D01*
X165582671Y-116023797D01*
X165717517Y-116074091D01*
X165717516Y-116074091D01*
X165724444Y-116074835D01*
X165777127Y-116080500D01*
X167572872Y-116080499D01*
X167632483Y-116074091D01*
X167767331Y-116023796D01*
X167882546Y-115937546D01*
X167968796Y-115822331D01*
X168017810Y-115690916D01*
X168059681Y-115634984D01*
X168125145Y-115610566D01*
X168193418Y-115625417D01*
X168221673Y-115646569D01*
X168343599Y-115768495D01*
X168440384Y-115836265D01*
X168537165Y-115904032D01*
X168537167Y-115904033D01*
X168537170Y-115904035D01*
X168751337Y-116003903D01*
X168979592Y-116065063D01*
X169156034Y-116080500D01*
X169214999Y-116085659D01*
X169215000Y-116085659D01*
X169215001Y-116085659D01*
X169273966Y-116080500D01*
X169450408Y-116065063D01*
X169678663Y-116003903D01*
X169892830Y-115904035D01*
X170086401Y-115768495D01*
X170253495Y-115601401D01*
X170389035Y-115407830D01*
X170488903Y-115193663D01*
X170550063Y-114965408D01*
X170570659Y-114730000D01*
X170550063Y-114494592D01*
X170488903Y-114266337D01*
X170389035Y-114052171D01*
X170338151Y-113979500D01*
X170253494Y-113858597D01*
X170086402Y-113691506D01*
X170086396Y-113691501D01*
X169900842Y-113561575D01*
X169857217Y-113506998D01*
X169850023Y-113437500D01*
X169881546Y-113375145D01*
X169900842Y-113358425D01*
X169963800Y-113314341D01*
X170086401Y-113228495D01*
X170253495Y-113061401D01*
X170389035Y-112867830D01*
X170488903Y-112653663D01*
X170550063Y-112425408D01*
X170570659Y-112190000D01*
X170550063Y-111954592D01*
X170488903Y-111726337D01*
X170389035Y-111512171D01*
X170383425Y-111504158D01*
X170253494Y-111318597D01*
X170086402Y-111151506D01*
X170086396Y-111151501D01*
X169900842Y-111021575D01*
X169857217Y-110966998D01*
X169850023Y-110897500D01*
X169881546Y-110835145D01*
X169900842Y-110818425D01*
X169923026Y-110802891D01*
X170086401Y-110688495D01*
X170253495Y-110521401D01*
X170389035Y-110327830D01*
X170488903Y-110113663D01*
X170550063Y-109885408D01*
X170570659Y-109650000D01*
X170550063Y-109414592D01*
X170488903Y-109186337D01*
X170389035Y-108972171D01*
X170383425Y-108964158D01*
X170253494Y-108778597D01*
X170086402Y-108611506D01*
X170086396Y-108611501D01*
X169900842Y-108481575D01*
X169857217Y-108426998D01*
X169850023Y-108357500D01*
X169881546Y-108295145D01*
X169900842Y-108278425D01*
X169923026Y-108262891D01*
X170086401Y-108148495D01*
X170253495Y-107981401D01*
X170389035Y-107787830D01*
X170488903Y-107573663D01*
X170550063Y-107345408D01*
X170570659Y-107110000D01*
X170550063Y-106874592D01*
X170488903Y-106646337D01*
X170389035Y-106432171D01*
X170383425Y-106424158D01*
X170253494Y-106238597D01*
X170086402Y-106071506D01*
X170086396Y-106071501D01*
X169900842Y-105941575D01*
X169857217Y-105886998D01*
X169850023Y-105817500D01*
X169881546Y-105755145D01*
X169900842Y-105738425D01*
X169923026Y-105722891D01*
X170086401Y-105608495D01*
X170253495Y-105441401D01*
X170389035Y-105247830D01*
X170488903Y-105033663D01*
X170550063Y-104805408D01*
X170570659Y-104570000D01*
X170550063Y-104334592D01*
X170488903Y-104106337D01*
X170389035Y-103892171D01*
X170383425Y-103884158D01*
X170253494Y-103698597D01*
X170086402Y-103531506D01*
X170086396Y-103531501D01*
X169900842Y-103401575D01*
X169857217Y-103346998D01*
X169850023Y-103277500D01*
X169881546Y-103215145D01*
X169900842Y-103198425D01*
X169923026Y-103182891D01*
X170086401Y-103068495D01*
X170253495Y-102901401D01*
X170389035Y-102707830D01*
X170488903Y-102493663D01*
X170550063Y-102265408D01*
X170570659Y-102030000D01*
X170550063Y-101794592D01*
X170488903Y-101566337D01*
X170389035Y-101352171D01*
X170383425Y-101344158D01*
X170253494Y-101158597D01*
X170086402Y-100991506D01*
X170086396Y-100991501D01*
X169900842Y-100861575D01*
X169857217Y-100806998D01*
X169850023Y-100737500D01*
X169881546Y-100675145D01*
X169900842Y-100658425D01*
X169923026Y-100642891D01*
X170086401Y-100528495D01*
X170253495Y-100361401D01*
X170389035Y-100167830D01*
X170488903Y-99953663D01*
X170550063Y-99725408D01*
X170570659Y-99490000D01*
X170550063Y-99254592D01*
X170503626Y-99081285D01*
X170488905Y-99026344D01*
X170488904Y-99026343D01*
X170488903Y-99026337D01*
X170389035Y-98812171D01*
X170383425Y-98804158D01*
X170253494Y-98618597D01*
X170086402Y-98451506D01*
X170086396Y-98451501D01*
X169900842Y-98321575D01*
X169857217Y-98266998D01*
X169850023Y-98197500D01*
X169881546Y-98135145D01*
X169900842Y-98118425D01*
X169923026Y-98102891D01*
X170086401Y-97988495D01*
X170253495Y-97821401D01*
X170389035Y-97627830D01*
X170488903Y-97413663D01*
X170550063Y-97185408D01*
X170570659Y-96950000D01*
X170550063Y-96714592D01*
X170488903Y-96486337D01*
X170389035Y-96272171D01*
X170383425Y-96264158D01*
X170253494Y-96078597D01*
X170086402Y-95911506D01*
X170086396Y-95911501D01*
X169900842Y-95781575D01*
X169857217Y-95726998D01*
X169850023Y-95657500D01*
X169881546Y-95595145D01*
X169900842Y-95578425D01*
X169923026Y-95562891D01*
X170086401Y-95448495D01*
X170253495Y-95281401D01*
X170389035Y-95087830D01*
X170488903Y-94873663D01*
X170550063Y-94645408D01*
X170570659Y-94410000D01*
X170550063Y-94174592D01*
X170488903Y-93946337D01*
X170389035Y-93732171D01*
X170383425Y-93724158D01*
X170253494Y-93538597D01*
X170086402Y-93371506D01*
X170086396Y-93371501D01*
X169900842Y-93241575D01*
X169857217Y-93186998D01*
X169850023Y-93117500D01*
X169881546Y-93055145D01*
X169900842Y-93038425D01*
X169923026Y-93022891D01*
X170086401Y-92908495D01*
X170253495Y-92741401D01*
X170389035Y-92547830D01*
X170488903Y-92333663D01*
X170550063Y-92105408D01*
X170570659Y-91870000D01*
X170550063Y-91634592D01*
X170488903Y-91406337D01*
X170389035Y-91192171D01*
X170383425Y-91184158D01*
X170253494Y-90998597D01*
X170086402Y-90831506D01*
X170086396Y-90831501D01*
X169900842Y-90701575D01*
X169857217Y-90646998D01*
X169850023Y-90577500D01*
X169881546Y-90515145D01*
X169900842Y-90498425D01*
X169923026Y-90482891D01*
X170086401Y-90368495D01*
X170253495Y-90201401D01*
X170389035Y-90007830D01*
X170488903Y-89793663D01*
X170550063Y-89565408D01*
X170570659Y-89330000D01*
X170550063Y-89094592D01*
X170488903Y-88866337D01*
X170389035Y-88652171D01*
X170383425Y-88644158D01*
X170253494Y-88458597D01*
X170086402Y-88291506D01*
X170086396Y-88291501D01*
X169900842Y-88161575D01*
X169857217Y-88106998D01*
X169850023Y-88037500D01*
X169881546Y-87975145D01*
X169900842Y-87958425D01*
X169923026Y-87942891D01*
X170086401Y-87828495D01*
X170253495Y-87661401D01*
X170389035Y-87467830D01*
X170488903Y-87253663D01*
X170550063Y-87025408D01*
X170570659Y-86790000D01*
X170550063Y-86554592D01*
X170488903Y-86326337D01*
X170389035Y-86112171D01*
X170383425Y-86104158D01*
X170253494Y-85918597D01*
X170086402Y-85751506D01*
X170086396Y-85751501D01*
X169900842Y-85621575D01*
X169857217Y-85566998D01*
X169850023Y-85497500D01*
X169881546Y-85435145D01*
X169900842Y-85418425D01*
X169923026Y-85402891D01*
X170086401Y-85288495D01*
X170253495Y-85121401D01*
X170389035Y-84927830D01*
X170488903Y-84713663D01*
X170550063Y-84485408D01*
X170570659Y-84250000D01*
X170550063Y-84014592D01*
X170488903Y-83786337D01*
X170389035Y-83572171D01*
X170383425Y-83564158D01*
X170253494Y-83378597D01*
X170086402Y-83211506D01*
X170086396Y-83211501D01*
X169900842Y-83081575D01*
X169857217Y-83026998D01*
X169850023Y-82957500D01*
X169881546Y-82895145D01*
X169900842Y-82878425D01*
X169923026Y-82862891D01*
X170086401Y-82748495D01*
X170253495Y-82581401D01*
X170389035Y-82387830D01*
X170488903Y-82173663D01*
X170550063Y-81945408D01*
X170570659Y-81710000D01*
X170550063Y-81474592D01*
X170488903Y-81246337D01*
X170389035Y-81032171D01*
X170383425Y-81024158D01*
X170253494Y-80838597D01*
X170086402Y-80671506D01*
X170086396Y-80671501D01*
X169900842Y-80541575D01*
X169857217Y-80486998D01*
X169850023Y-80417500D01*
X169881546Y-80355145D01*
X169900842Y-80338425D01*
X169923026Y-80322891D01*
X170086401Y-80208495D01*
X170253495Y-80041401D01*
X170389035Y-79847830D01*
X170488903Y-79633663D01*
X170550063Y-79405408D01*
X170570659Y-79170000D01*
X170550063Y-78934592D01*
X170488903Y-78706337D01*
X170389035Y-78492171D01*
X170383425Y-78484158D01*
X170253494Y-78298597D01*
X170086402Y-78131506D01*
X170086396Y-78131501D01*
X169900842Y-78001575D01*
X169857217Y-77946998D01*
X169850023Y-77877500D01*
X169881546Y-77815145D01*
X169900842Y-77798425D01*
X169923026Y-77782891D01*
X170086401Y-77668495D01*
X170253495Y-77501401D01*
X170389035Y-77307830D01*
X170488903Y-77093663D01*
X170550063Y-76865408D01*
X170570659Y-76630000D01*
X170550063Y-76394592D01*
X170488903Y-76166337D01*
X170389035Y-75952171D01*
X170383425Y-75944158D01*
X170253494Y-75758597D01*
X170086402Y-75591506D01*
X170086396Y-75591501D01*
X169900842Y-75461575D01*
X169857217Y-75406998D01*
X169850023Y-75337500D01*
X169881546Y-75275145D01*
X169900842Y-75258425D01*
X169923026Y-75242891D01*
X170086401Y-75128495D01*
X170253495Y-74961401D01*
X170389035Y-74767830D01*
X170488903Y-74553663D01*
X170550063Y-74325408D01*
X170570659Y-74090000D01*
X170550063Y-73854592D01*
X170488903Y-73626337D01*
X170389035Y-73412171D01*
X170384772Y-73406082D01*
X170253494Y-73218597D01*
X170086402Y-73051506D01*
X170086396Y-73051501D01*
X169900842Y-72921575D01*
X169857217Y-72866998D01*
X169850023Y-72797500D01*
X169881546Y-72735145D01*
X169900842Y-72718425D01*
X169923026Y-72702891D01*
X170086401Y-72588495D01*
X170253495Y-72421401D01*
X170389035Y-72227830D01*
X170488903Y-72013663D01*
X170550063Y-71785408D01*
X170570659Y-71550000D01*
X170550063Y-71314592D01*
X170488903Y-71086337D01*
X170389035Y-70872171D01*
X170383953Y-70864912D01*
X170253494Y-70678597D01*
X170086402Y-70511506D01*
X170086401Y-70511505D01*
X169900405Y-70381269D01*
X169856781Y-70326692D01*
X169849588Y-70257193D01*
X169881110Y-70194839D01*
X169900405Y-70178119D01*
X170086082Y-70048105D01*
X170253105Y-69881082D01*
X170388600Y-69687578D01*
X170488429Y-69473492D01*
X170488432Y-69473486D01*
X170545636Y-69260000D01*
X169648012Y-69260000D01*
X169680925Y-69202993D01*
X169715000Y-69075826D01*
X169715000Y-68944174D01*
X169680925Y-68817007D01*
X169648012Y-68760000D01*
X170545636Y-68760000D01*
X170545635Y-68759999D01*
X170488432Y-68546513D01*
X170488429Y-68546507D01*
X170388600Y-68332422D01*
X170388599Y-68332420D01*
X170253113Y-68138926D01*
X170253108Y-68138920D01*
X170086082Y-67971894D01*
X169899968Y-67841575D01*
X169856344Y-67786998D01*
X169849151Y-67717499D01*
X169880673Y-67655145D01*
X169899968Y-67638425D01*
X170086082Y-67508105D01*
X170253105Y-67341082D01*
X170388600Y-67147578D01*
X170488429Y-66933492D01*
X170488432Y-66933486D01*
X170545636Y-66720000D01*
X169648012Y-66720000D01*
X169680925Y-66662993D01*
X169715000Y-66535826D01*
X169715000Y-66404174D01*
X169680925Y-66277007D01*
X169648012Y-66220000D01*
X170545636Y-66220000D01*
X170545635Y-66219999D01*
X170488432Y-66006513D01*
X170488429Y-66006507D01*
X170388600Y-65792422D01*
X170388599Y-65792420D01*
X170253113Y-65598926D01*
X170253108Y-65598920D01*
X170086082Y-65431894D01*
X169892578Y-65296399D01*
X169678492Y-65196570D01*
X169678486Y-65196567D01*
X169465000Y-65139364D01*
X169465000Y-66036988D01*
X169407993Y-66004075D01*
X169280826Y-65970000D01*
X169149174Y-65970000D01*
X169022007Y-66004075D01*
X168965000Y-66036988D01*
X168965000Y-65139364D01*
X168964999Y-65139364D01*
X168751513Y-65196567D01*
X168751507Y-65196570D01*
X168537422Y-65296399D01*
X168537420Y-65296400D01*
X168343926Y-65431886D01*
X168343920Y-65431891D01*
X168176891Y-65598920D01*
X168176890Y-65598922D01*
X168046575Y-65785031D01*
X167991998Y-65828655D01*
X167922499Y-65835848D01*
X167860145Y-65804326D01*
X167843425Y-65785031D01*
X167713109Y-65598922D01*
X167713108Y-65598920D01*
X167546082Y-65431894D01*
X167352578Y-65296399D01*
X167138492Y-65196570D01*
X167138486Y-65196567D01*
X166925000Y-65139364D01*
X166925000Y-66036988D01*
X166867993Y-66004075D01*
X166740826Y-65970000D01*
X166609174Y-65970000D01*
X166482007Y-66004075D01*
X166425000Y-66036988D01*
X166425000Y-65139364D01*
X166424999Y-65139364D01*
X166211513Y-65196567D01*
X166211507Y-65196570D01*
X165997422Y-65296399D01*
X165997420Y-65296400D01*
X165803926Y-65431886D01*
X165803920Y-65431891D01*
X165636891Y-65598920D01*
X165636886Y-65598926D01*
X165501400Y-65792420D01*
X165501399Y-65792422D01*
X165401570Y-66006507D01*
X165401567Y-66006513D01*
X165344364Y-66219999D01*
X165344364Y-66220000D01*
X166241988Y-66220000D01*
X166209075Y-66277007D01*
X166175000Y-66404174D01*
X166175000Y-66535826D01*
X166209075Y-66662993D01*
X166241988Y-66720000D01*
X165344364Y-66720000D01*
X165401567Y-66933486D01*
X165401570Y-66933492D01*
X165501399Y-67147578D01*
X165636894Y-67341082D01*
X165803917Y-67508105D01*
X165990031Y-67638425D01*
X166033656Y-67693003D01*
X166040848Y-67762501D01*
X166009326Y-67824856D01*
X165990031Y-67841575D01*
X165803922Y-67971890D01*
X165803920Y-67971891D01*
X165636891Y-68138920D01*
X165636886Y-68138926D01*
X165501400Y-68332420D01*
X165501399Y-68332422D01*
X165401570Y-68546507D01*
X165401567Y-68546513D01*
X165344364Y-68759999D01*
X165344364Y-68760000D01*
X166241988Y-68760000D01*
X166209075Y-68817007D01*
X166175000Y-68944174D01*
X166175000Y-69075826D01*
X166209075Y-69202993D01*
X166241988Y-69260000D01*
X165344364Y-69260000D01*
X165401567Y-69473486D01*
X165401570Y-69473492D01*
X165501399Y-69687578D01*
X165636894Y-69881082D01*
X165803917Y-70048105D01*
X165989595Y-70178119D01*
X166033219Y-70232696D01*
X166040412Y-70302195D01*
X166008890Y-70364549D01*
X165989595Y-70381269D01*
X165803594Y-70511508D01*
X165636505Y-70678597D01*
X165500965Y-70872169D01*
X165500964Y-70872171D01*
X165401098Y-71086335D01*
X165401094Y-71086344D01*
X165339938Y-71314586D01*
X165339936Y-71314596D01*
X165319341Y-71549999D01*
X165319341Y-71550000D01*
X165339936Y-71785403D01*
X165339938Y-71785413D01*
X165401094Y-72013655D01*
X165401096Y-72013659D01*
X165401097Y-72013663D01*
X165405000Y-72022032D01*
X165500965Y-72227830D01*
X165500967Y-72227834D01*
X165577280Y-72336819D01*
X165636501Y-72421396D01*
X165636506Y-72421402D01*
X165803597Y-72588493D01*
X165803603Y-72588498D01*
X165989158Y-72718425D01*
X166032783Y-72773002D01*
X166039977Y-72842500D01*
X166008454Y-72904855D01*
X165989158Y-72921575D01*
X165803597Y-73051505D01*
X165636505Y-73218597D01*
X165500965Y-73412169D01*
X165500964Y-73412171D01*
X165401098Y-73626335D01*
X165401094Y-73626344D01*
X165339938Y-73854586D01*
X165339936Y-73854596D01*
X165319341Y-74089999D01*
X165319341Y-74090000D01*
X165339936Y-74325403D01*
X165339938Y-74325413D01*
X165401094Y-74553655D01*
X165401096Y-74553659D01*
X165401097Y-74553663D01*
X165413689Y-74580666D01*
X165500965Y-74767830D01*
X165500967Y-74767834D01*
X165609281Y-74922521D01*
X165636501Y-74961396D01*
X165636506Y-74961402D01*
X165803597Y-75128493D01*
X165803603Y-75128498D01*
X165989158Y-75258425D01*
X166032783Y-75313002D01*
X166039977Y-75382500D01*
X166008454Y-75444855D01*
X165989158Y-75461575D01*
X165803597Y-75591505D01*
X165636506Y-75758596D01*
X165588874Y-75826623D01*
X165534297Y-75870248D01*
X165487299Y-75879500D01*
X163517229Y-75879500D01*
X163450190Y-75859815D01*
X163429548Y-75843181D01*
X163011818Y-75425450D01*
X162978333Y-75364127D01*
X162975499Y-75337769D01*
X162975499Y-74849998D01*
X162975498Y-74849981D01*
X162964999Y-74747203D01*
X162964998Y-74747200D01*
X162957649Y-74725023D01*
X162909814Y-74580666D01*
X162817712Y-74431344D01*
X162693656Y-74307288D01*
X162544334Y-74215186D01*
X162377797Y-74160001D01*
X162377795Y-74160000D01*
X162275010Y-74149500D01*
X161474998Y-74149500D01*
X161474980Y-74149501D01*
X161372203Y-74160000D01*
X161372200Y-74160001D01*
X161205668Y-74215185D01*
X161205663Y-74215187D01*
X161056342Y-74307289D01*
X160962681Y-74400951D01*
X160901358Y-74434436D01*
X160831666Y-74429452D01*
X160787319Y-74400951D01*
X160693655Y-74307287D01*
X160684402Y-74301580D01*
X160637678Y-74249632D01*
X160625500Y-74196042D01*
X160625500Y-73406079D01*
X160596659Y-73261092D01*
X160596658Y-73261091D01*
X160596658Y-73261087D01*
X160579058Y-73218597D01*
X160540087Y-73124511D01*
X160540080Y-73124498D01*
X160457952Y-73001585D01*
X160457951Y-73001584D01*
X160353416Y-72897049D01*
X159877762Y-72421395D01*
X158403421Y-70947052D01*
X158403420Y-70947051D01*
X158344650Y-70907783D01*
X158310427Y-70884916D01*
X158280495Y-70864916D01*
X158280488Y-70864912D01*
X158143917Y-70808343D01*
X158143907Y-70808340D01*
X157998920Y-70779500D01*
X157998918Y-70779500D01*
X157748917Y-70779500D01*
X157601082Y-70779500D01*
X157601080Y-70779500D01*
X157512518Y-70797117D01*
X157488326Y-70799500D01*
X155677701Y-70799500D01*
X155610662Y-70779815D01*
X155576126Y-70746623D01*
X155528494Y-70678597D01*
X155361402Y-70511506D01*
X155361401Y-70511505D01*
X155175405Y-70381269D01*
X155131781Y-70326692D01*
X155124588Y-70257193D01*
X155156110Y-70194839D01*
X155175405Y-70178119D01*
X155251373Y-70124925D01*
X154619409Y-69492962D01*
X154682993Y-69475925D01*
X154797007Y-69410099D01*
X154890099Y-69317007D01*
X154955925Y-69202993D01*
X154972962Y-69139410D01*
X155604925Y-69771373D01*
X155604926Y-69771373D01*
X155663598Y-69687582D01*
X155663600Y-69687578D01*
X155763429Y-69473492D01*
X155763433Y-69473483D01*
X155824567Y-69245326D01*
X155824569Y-69245315D01*
X155845157Y-69010001D01*
X155845157Y-69009998D01*
X155824569Y-68774684D01*
X155824567Y-68774673D01*
X155763433Y-68546516D01*
X155763429Y-68546507D01*
X155663600Y-68332423D01*
X155663599Y-68332421D01*
X155604925Y-68248626D01*
X155604925Y-68248625D01*
X154972962Y-68880589D01*
X154955925Y-68817007D01*
X154890099Y-68702993D01*
X154797007Y-68609901D01*
X154682993Y-68544075D01*
X154619410Y-68527037D01*
X155251373Y-67895073D01*
X155174969Y-67841576D01*
X155131344Y-67786999D01*
X155124150Y-67717501D01*
X155155672Y-67655146D01*
X155174968Y-67638425D01*
X155251373Y-67584925D01*
X154619409Y-66952962D01*
X154682993Y-66935925D01*
X154797007Y-66870099D01*
X154890099Y-66777007D01*
X154955925Y-66662993D01*
X154972962Y-66599410D01*
X155604925Y-67231373D01*
X155604926Y-67231373D01*
X155663598Y-67147582D01*
X155663600Y-67147578D01*
X155763429Y-66933492D01*
X155763433Y-66933483D01*
X155824567Y-66705326D01*
X155824569Y-66705315D01*
X155845157Y-66470001D01*
X155845157Y-66469998D01*
X155824569Y-66234684D01*
X155824567Y-66234673D01*
X155763433Y-66006516D01*
X155763429Y-66006507D01*
X155663600Y-65792423D01*
X155663599Y-65792421D01*
X155604925Y-65708626D01*
X155604925Y-65708625D01*
X154972962Y-66340589D01*
X154955925Y-66277007D01*
X154890099Y-66162993D01*
X154797007Y-66069901D01*
X154682993Y-66004075D01*
X154619410Y-65987037D01*
X155251373Y-65355073D01*
X155251373Y-65355072D01*
X155167583Y-65296402D01*
X155167579Y-65296400D01*
X154953492Y-65196570D01*
X154953483Y-65196566D01*
X154725326Y-65135432D01*
X154725315Y-65135430D01*
X154490002Y-65114843D01*
X154489998Y-65114843D01*
X154254684Y-65135430D01*
X154254673Y-65135432D01*
X154026516Y-65196566D01*
X154026507Y-65196570D01*
X153812419Y-65296401D01*
X153728625Y-65355072D01*
X154360590Y-65987037D01*
X154297007Y-66004075D01*
X154182993Y-66069901D01*
X154089901Y-66162993D01*
X154024075Y-66277007D01*
X154007037Y-66340589D01*
X153375073Y-65708625D01*
X153375072Y-65708625D01*
X153316401Y-65792419D01*
X153216570Y-66006507D01*
X153216566Y-66006516D01*
X153155432Y-66234673D01*
X153155430Y-66234684D01*
X153134843Y-66469998D01*
X153134843Y-66470001D01*
X153155430Y-66705315D01*
X153155432Y-66705326D01*
X153216566Y-66933483D01*
X153216570Y-66933492D01*
X153316400Y-67147579D01*
X153316402Y-67147583D01*
X153375072Y-67231373D01*
X153375073Y-67231373D01*
X154007037Y-66599409D01*
X154024075Y-66662993D01*
X154089901Y-66777007D01*
X154182993Y-66870099D01*
X154297007Y-66935925D01*
X154360590Y-66952962D01*
X153728625Y-67584925D01*
X153805031Y-67638425D01*
X153848655Y-67693002D01*
X153855848Y-67762501D01*
X153824326Y-67824855D01*
X153805029Y-67841576D01*
X153728625Y-67895072D01*
X154360590Y-68527037D01*
X154297007Y-68544075D01*
X154182993Y-68609901D01*
X154089901Y-68702993D01*
X154024075Y-68817007D01*
X154007037Y-68880589D01*
X153375073Y-68248625D01*
X153375072Y-68248625D01*
X153316401Y-68332419D01*
X153216570Y-68546507D01*
X153216566Y-68546516D01*
X153155432Y-68774673D01*
X153155430Y-68774684D01*
X153134843Y-69009998D01*
X153134843Y-69010001D01*
X153155430Y-69245315D01*
X153155432Y-69245326D01*
X153216566Y-69473483D01*
X153216570Y-69473492D01*
X153316400Y-69687579D01*
X153316402Y-69687583D01*
X153375072Y-69771373D01*
X153375073Y-69771373D01*
X154007037Y-69139409D01*
X154024075Y-69202993D01*
X154089901Y-69317007D01*
X154182993Y-69410099D01*
X154297007Y-69475925D01*
X154360590Y-69492962D01*
X153728625Y-70124925D01*
X153804594Y-70178119D01*
X153848219Y-70232696D01*
X153855413Y-70302194D01*
X153823890Y-70364549D01*
X153804595Y-70381269D01*
X153618594Y-70511508D01*
X153451505Y-70678597D01*
X153315965Y-70872169D01*
X153315964Y-70872171D01*
X153216098Y-71086335D01*
X153216094Y-71086344D01*
X153154938Y-71314586D01*
X153154936Y-71314596D01*
X153134341Y-71549999D01*
X153134341Y-71550000D01*
X153154936Y-71785403D01*
X153154938Y-71785413D01*
X153216094Y-72013655D01*
X153216096Y-72013659D01*
X153216097Y-72013663D01*
X153220000Y-72022032D01*
X153315965Y-72227830D01*
X153315967Y-72227834D01*
X153392280Y-72336819D01*
X153451501Y-72421396D01*
X153451506Y-72421402D01*
X153618597Y-72588493D01*
X153618603Y-72588498D01*
X153804158Y-72718425D01*
X153847783Y-72773002D01*
X153854977Y-72842500D01*
X153823454Y-72904855D01*
X153804158Y-72921575D01*
X153618597Y-73051505D01*
X153451505Y-73218597D01*
X153315965Y-73412169D01*
X153315964Y-73412171D01*
X153216098Y-73626335D01*
X153216094Y-73626344D01*
X153154938Y-73854586D01*
X153154936Y-73854596D01*
X153134341Y-74089999D01*
X153134341Y-74090000D01*
X153154936Y-74325403D01*
X153154938Y-74325413D01*
X153216094Y-74553655D01*
X153216096Y-74553659D01*
X153216097Y-74553663D01*
X153228689Y-74580666D01*
X153315965Y-74767830D01*
X153315967Y-74767834D01*
X153424281Y-74922521D01*
X153451501Y-74961396D01*
X153451506Y-74961402D01*
X153618597Y-75128493D01*
X153618603Y-75128498D01*
X153804158Y-75258425D01*
X153847783Y-75313002D01*
X153854977Y-75382500D01*
X153823454Y-75444855D01*
X153804158Y-75461575D01*
X153618597Y-75591505D01*
X153451505Y-75758597D01*
X153315965Y-75952169D01*
X153315964Y-75952171D01*
X153216098Y-76166335D01*
X153216094Y-76166344D01*
X153154938Y-76394586D01*
X153154936Y-76394596D01*
X153134341Y-76629999D01*
X153134341Y-76630000D01*
X153154936Y-76865403D01*
X153154938Y-76865413D01*
X153216094Y-77093655D01*
X153216096Y-77093659D01*
X153216097Y-77093663D01*
X153220000Y-77102032D01*
X153315965Y-77307830D01*
X153315967Y-77307834D01*
X153403873Y-77433376D01*
X153451501Y-77501396D01*
X153451506Y-77501402D01*
X153618597Y-77668493D01*
X153618603Y-77668498D01*
X153804158Y-77798425D01*
X153847783Y-77853002D01*
X153854977Y-77922500D01*
X153823454Y-77984855D01*
X153804158Y-78001575D01*
X153618597Y-78131505D01*
X153451505Y-78298597D01*
X153315965Y-78492169D01*
X153315964Y-78492171D01*
X153216098Y-78706335D01*
X153216094Y-78706344D01*
X153154938Y-78934586D01*
X153154936Y-78934596D01*
X153134341Y-79169999D01*
X153134341Y-79170000D01*
X153154936Y-79405403D01*
X153154938Y-79405413D01*
X153216094Y-79633655D01*
X153216096Y-79633659D01*
X153216097Y-79633663D01*
X153228689Y-79660666D01*
X153315965Y-79847830D01*
X153315967Y-79847834D01*
X153392280Y-79956819D01*
X153451501Y-80041396D01*
X153451506Y-80041402D01*
X153618597Y-80208493D01*
X153618603Y-80208498D01*
X153804158Y-80338425D01*
X153847783Y-80393002D01*
X153854977Y-80462500D01*
X153823454Y-80524855D01*
X153804158Y-80541575D01*
X153618597Y-80671505D01*
X153451505Y-80838597D01*
X153315965Y-81032169D01*
X153315964Y-81032171D01*
X153216098Y-81246335D01*
X153216094Y-81246344D01*
X153154938Y-81474586D01*
X153154936Y-81474596D01*
X153134341Y-81709999D01*
X153134341Y-81710000D01*
X153154936Y-81945403D01*
X153154938Y-81945413D01*
X153216094Y-82173655D01*
X153216096Y-82173659D01*
X153216097Y-82173663D01*
X153220000Y-82182032D01*
X153315965Y-82387830D01*
X153315967Y-82387834D01*
X153424281Y-82542521D01*
X153451501Y-82581396D01*
X153451506Y-82581402D01*
X153618597Y-82748493D01*
X153618603Y-82748498D01*
X153804158Y-82878425D01*
X153847783Y-82933002D01*
X153854977Y-83002500D01*
X153823454Y-83064855D01*
X153804158Y-83081575D01*
X153618597Y-83211505D01*
X153451505Y-83378597D01*
X153315965Y-83572169D01*
X153315964Y-83572171D01*
X153216098Y-83786335D01*
X153216094Y-83786344D01*
X153154938Y-84014586D01*
X153154936Y-84014596D01*
X153134341Y-84249999D01*
X153134341Y-84250000D01*
X153154936Y-84485403D01*
X153154938Y-84485413D01*
X153216094Y-84713655D01*
X153216096Y-84713659D01*
X153216097Y-84713663D01*
X153220000Y-84722032D01*
X153315965Y-84927830D01*
X153315967Y-84927834D01*
X153424281Y-85082521D01*
X153451501Y-85121396D01*
X153451506Y-85121402D01*
X153618597Y-85288493D01*
X153618603Y-85288498D01*
X153804158Y-85418425D01*
X153847783Y-85473002D01*
X153854977Y-85542500D01*
X153823454Y-85604855D01*
X153804158Y-85621575D01*
X153618597Y-85751505D01*
X153451505Y-85918597D01*
X153315965Y-86112169D01*
X153315964Y-86112171D01*
X153216098Y-86326335D01*
X153216094Y-86326344D01*
X153154938Y-86554586D01*
X153154936Y-86554596D01*
X153147624Y-86638175D01*
X153122171Y-86703244D01*
X153065580Y-86744222D01*
X152995818Y-86748100D01*
X152936415Y-86715048D01*
X152547711Y-86326344D01*
X152061819Y-85840451D01*
X152028334Y-85779128D01*
X152025500Y-85752770D01*
X152025500Y-64342229D01*
X152045185Y-64275190D01*
X152061819Y-64254548D01*
X153799548Y-62516819D01*
X153860871Y-62483334D01*
X153887229Y-62480500D01*
X165098918Y-62480500D01*
X165112075Y-62477882D01*
X165136267Y-62475500D01*
X166298920Y-62475500D01*
X166396462Y-62456096D01*
X166443913Y-62446658D01*
X166580495Y-62390084D01*
X166629729Y-62357186D01*
X166703416Y-62307952D01*
X168607951Y-60403416D01*
X168690084Y-60280495D01*
X168746658Y-60143913D01*
X168775500Y-59998918D01*
X168775500Y-59851083D01*
X168775500Y-58707700D01*
X168795185Y-58640661D01*
X168828375Y-58606126D01*
X168896401Y-58558495D01*
X169063495Y-58391401D01*
X169199035Y-58197830D01*
X169298903Y-57983663D01*
X169360063Y-57755408D01*
X169380659Y-57520000D01*
X169360063Y-57284592D01*
X169298903Y-57056337D01*
X169199035Y-56842171D01*
X169193425Y-56834158D01*
X169063494Y-56648597D01*
X168896402Y-56481506D01*
X168896396Y-56481501D01*
X168710842Y-56351575D01*
X168667217Y-56296998D01*
X168660023Y-56227500D01*
X168691546Y-56165145D01*
X168710842Y-56148425D01*
X168770950Y-56106337D01*
X168896401Y-56018495D01*
X169063495Y-55851401D01*
X169199035Y-55657830D01*
X169298903Y-55443663D01*
X169360063Y-55215408D01*
X169380659Y-54980000D01*
X169360063Y-54744592D01*
X169298903Y-54516337D01*
X169199035Y-54302171D01*
X169193425Y-54294158D01*
X169063494Y-54108597D01*
X168896402Y-53941506D01*
X168896395Y-53941501D01*
X168888407Y-53935908D01*
X168747163Y-53837007D01*
X168702834Y-53805967D01*
X168702830Y-53805965D01*
X168702828Y-53805964D01*
X168488663Y-53706097D01*
X168488659Y-53706096D01*
X168488655Y-53706094D01*
X168260413Y-53644938D01*
X168260403Y-53644936D01*
X168025001Y-53624341D01*
X168024999Y-53624341D01*
X167789596Y-53644936D01*
X167789586Y-53644938D01*
X167561344Y-53706094D01*
X167561335Y-53706098D01*
X167347171Y-53805964D01*
X167347169Y-53805965D01*
X167153597Y-53941505D01*
X166986505Y-54108597D01*
X166856575Y-54294158D01*
X166801998Y-54337783D01*
X166732500Y-54344977D01*
X166670145Y-54313454D01*
X166653425Y-54294158D01*
X166523494Y-54108597D01*
X166356402Y-53941506D01*
X166356395Y-53941501D01*
X166348407Y-53935908D01*
X166207163Y-53837007D01*
X166162834Y-53805967D01*
X166162830Y-53805965D01*
X166162828Y-53805964D01*
X165948663Y-53706097D01*
X165948659Y-53706096D01*
X165948655Y-53706094D01*
X165720413Y-53644938D01*
X165720403Y-53644936D01*
X165485001Y-53624341D01*
X165484999Y-53624341D01*
X165249596Y-53644936D01*
X165249586Y-53644938D01*
X165021344Y-53706094D01*
X165021335Y-53706098D01*
X164807171Y-53805964D01*
X164807169Y-53805965D01*
X164613597Y-53941505D01*
X164446505Y-54108597D01*
X164316575Y-54294158D01*
X164261998Y-54337783D01*
X164192500Y-54344977D01*
X164130145Y-54313454D01*
X164113425Y-54294158D01*
X163983494Y-54108597D01*
X163816402Y-53941506D01*
X163816395Y-53941501D01*
X163808407Y-53935908D01*
X163667163Y-53837007D01*
X163622834Y-53805967D01*
X163622830Y-53805965D01*
X163622828Y-53805964D01*
X163408663Y-53706097D01*
X163408659Y-53706096D01*
X163408655Y-53706094D01*
X163180413Y-53644938D01*
X163180403Y-53644936D01*
X162945001Y-53624341D01*
X162944999Y-53624341D01*
X162709596Y-53644936D01*
X162709586Y-53644938D01*
X162481344Y-53706094D01*
X162481335Y-53706098D01*
X162267171Y-53805964D01*
X162267169Y-53805965D01*
X162073597Y-53941505D01*
X161906505Y-54108597D01*
X161776575Y-54294158D01*
X161721998Y-54337783D01*
X161652500Y-54344977D01*
X161590145Y-54313454D01*
X161573425Y-54294158D01*
X161443494Y-54108597D01*
X161276402Y-53941506D01*
X161276395Y-53941501D01*
X161268407Y-53935908D01*
X161127163Y-53837007D01*
X161082834Y-53805967D01*
X161082830Y-53805965D01*
X161082828Y-53805964D01*
X160868663Y-53706097D01*
X160868659Y-53706096D01*
X160868655Y-53706094D01*
X160640413Y-53644938D01*
X160640403Y-53644936D01*
X160405001Y-53624341D01*
X160404999Y-53624341D01*
X160169596Y-53644936D01*
X160169586Y-53644938D01*
X159941344Y-53706094D01*
X159941335Y-53706098D01*
X159727171Y-53805964D01*
X159727169Y-53805965D01*
X159533597Y-53941505D01*
X159366505Y-54108597D01*
X159230965Y-54302169D01*
X159230964Y-54302171D01*
X159131098Y-54516335D01*
X159131094Y-54516344D01*
X159069938Y-54744586D01*
X159069936Y-54744596D01*
X159049341Y-54979999D01*
X159049341Y-54980000D01*
X159069936Y-55215403D01*
X159069938Y-55215413D01*
X159131094Y-55443655D01*
X159131096Y-55443659D01*
X159131097Y-55443663D01*
X159193682Y-55577876D01*
X159230965Y-55657830D01*
X159230967Y-55657834D01*
X159311142Y-55772335D01*
X159366501Y-55851396D01*
X159366506Y-55851402D01*
X159488818Y-55973714D01*
X159522303Y-56035037D01*
X159517319Y-56104729D01*
X159475447Y-56160662D01*
X159444471Y-56177577D01*
X159312912Y-56226646D01*
X159312906Y-56226649D01*
X159197812Y-56312809D01*
X159197809Y-56312812D01*
X159111649Y-56427906D01*
X159111645Y-56427913D01*
X159061403Y-56562620D01*
X159061401Y-56562627D01*
X159055000Y-56622155D01*
X159055000Y-57270000D01*
X159971988Y-57270000D01*
X159939075Y-57327007D01*
X159905000Y-57454174D01*
X159905000Y-57585826D01*
X159939075Y-57712993D01*
X159971988Y-57770000D01*
X159055000Y-57770000D01*
X159055000Y-58417844D01*
X159061401Y-58477372D01*
X159061403Y-58477379D01*
X159111645Y-58612086D01*
X159111649Y-58612093D01*
X159197809Y-58727187D01*
X159197812Y-58727190D01*
X159312906Y-58813350D01*
X159312913Y-58813354D01*
X159447620Y-58863596D01*
X159447627Y-58863598D01*
X159507155Y-58869999D01*
X159507172Y-58870000D01*
X160155000Y-58870000D01*
X160155000Y-57953012D01*
X160212007Y-57985925D01*
X160339174Y-58020000D01*
X160470826Y-58020000D01*
X160597993Y-57985925D01*
X160655000Y-57953012D01*
X160655000Y-58870000D01*
X161302828Y-58870000D01*
X161302844Y-58869999D01*
X161362372Y-58863598D01*
X161362379Y-58863596D01*
X161497086Y-58813354D01*
X161497093Y-58813350D01*
X161612187Y-58727190D01*
X161612190Y-58727187D01*
X161698350Y-58612093D01*
X161698354Y-58612086D01*
X161747422Y-58480529D01*
X161789293Y-58424595D01*
X161854757Y-58400178D01*
X161923030Y-58415030D01*
X161951285Y-58436181D01*
X162073599Y-58558495D01*
X162141620Y-58606124D01*
X162267165Y-58694032D01*
X162267167Y-58694033D01*
X162267170Y-58694035D01*
X162481337Y-58793903D01*
X162709592Y-58855063D01*
X162880319Y-58870000D01*
X162944999Y-58875659D01*
X162945000Y-58875659D01*
X162945001Y-58875659D01*
X163009681Y-58870000D01*
X163180408Y-58855063D01*
X163408663Y-58793903D01*
X163622830Y-58694035D01*
X163816401Y-58558495D01*
X163983495Y-58391401D01*
X164113425Y-58205842D01*
X164168002Y-58162217D01*
X164237500Y-58155023D01*
X164299855Y-58186546D01*
X164316575Y-58205842D01*
X164446501Y-58391396D01*
X164446506Y-58391402D01*
X164613595Y-58558492D01*
X164613598Y-58558494D01*
X164613599Y-58558495D01*
X164681623Y-58606125D01*
X164725248Y-58660701D01*
X164734500Y-58707700D01*
X164734500Y-58802770D01*
X164714815Y-58869809D01*
X164698181Y-58890451D01*
X163975451Y-59613181D01*
X163914128Y-59646666D01*
X163887770Y-59649500D01*
X153276080Y-59649500D01*
X153131092Y-59678340D01*
X153131082Y-59678343D01*
X152994509Y-59734913D01*
X152994504Y-59734916D01*
X152974996Y-59747950D01*
X152974997Y-59747951D01*
X152871579Y-59817051D01*
X149317050Y-63371580D01*
X149317044Y-63371588D01*
X149267812Y-63445268D01*
X149267813Y-63445269D01*
X149234921Y-63494496D01*
X149234914Y-63494508D01*
X149178342Y-63631086D01*
X149178340Y-63631092D01*
X149149500Y-63776079D01*
X149149500Y-63776082D01*
X149149500Y-87353918D01*
X149149500Y-87353920D01*
X149149499Y-87353920D01*
X140477152Y-87353920D01*
X140523903Y-87253663D01*
X140585063Y-87025408D01*
X140605659Y-86790000D01*
X140585063Y-86554592D01*
X140523903Y-86326337D01*
X140424035Y-86112171D01*
X140418425Y-86104158D01*
X140288494Y-85918597D01*
X140121402Y-85751506D01*
X140121396Y-85751501D01*
X139935842Y-85621575D01*
X139892217Y-85566998D01*
X139885023Y-85497500D01*
X139916546Y-85435145D01*
X139935842Y-85418425D01*
X139958026Y-85402891D01*
X140121401Y-85288495D01*
X140288495Y-85121401D01*
X140424035Y-84927830D01*
X140523903Y-84713663D01*
X140585063Y-84485408D01*
X140605659Y-84250000D01*
X140585063Y-84014592D01*
X140523903Y-83786337D01*
X140424035Y-83572171D01*
X140418425Y-83564158D01*
X140288494Y-83378597D01*
X140121402Y-83211506D01*
X140121396Y-83211501D01*
X139935842Y-83081575D01*
X139892217Y-83026998D01*
X139885023Y-82957500D01*
X139916546Y-82895145D01*
X139935842Y-82878425D01*
X139958026Y-82862891D01*
X140121401Y-82748495D01*
X140288495Y-82581401D01*
X140424035Y-82387830D01*
X140523903Y-82173663D01*
X140585063Y-81945408D01*
X140605659Y-81710000D01*
X140585063Y-81474592D01*
X140523903Y-81246337D01*
X140424035Y-81032171D01*
X140418425Y-81024158D01*
X140288494Y-80838597D01*
X140121402Y-80671506D01*
X140121396Y-80671501D01*
X139935842Y-80541575D01*
X139892217Y-80486998D01*
X139885023Y-80417500D01*
X139916546Y-80355145D01*
X139935842Y-80338425D01*
X139958026Y-80322891D01*
X140121401Y-80208495D01*
X140288495Y-80041401D01*
X140424035Y-79847830D01*
X140523903Y-79633663D01*
X140585063Y-79405408D01*
X140605659Y-79170000D01*
X140585063Y-78934592D01*
X140523903Y-78706337D01*
X140424035Y-78492171D01*
X140418425Y-78484158D01*
X140288494Y-78298597D01*
X140121402Y-78131506D01*
X140121396Y-78131501D01*
X139935842Y-78001575D01*
X139892217Y-77946998D01*
X139885023Y-77877500D01*
X139916546Y-77815145D01*
X139935842Y-77798425D01*
X139958026Y-77782891D01*
X140121401Y-77668495D01*
X140288495Y-77501401D01*
X140424035Y-77307830D01*
X140523903Y-77093663D01*
X140585063Y-76865408D01*
X140605659Y-76630000D01*
X140585063Y-76394592D01*
X140523903Y-76166337D01*
X140424035Y-75952171D01*
X140418425Y-75944158D01*
X140288494Y-75758597D01*
X140121402Y-75591506D01*
X140121396Y-75591501D01*
X139935842Y-75461575D01*
X139892217Y-75406998D01*
X139885023Y-75337500D01*
X139916546Y-75275145D01*
X139935842Y-75258425D01*
X139958026Y-75242891D01*
X140121401Y-75128495D01*
X140288495Y-74961401D01*
X140424035Y-74767830D01*
X140523903Y-74553663D01*
X140585063Y-74325408D01*
X140605659Y-74090000D01*
X140585063Y-73854592D01*
X140523903Y-73626337D01*
X140424035Y-73412171D01*
X140419772Y-73406082D01*
X140288494Y-73218597D01*
X140121402Y-73051506D01*
X140121396Y-73051501D01*
X139935842Y-72921575D01*
X139892217Y-72866998D01*
X139885023Y-72797500D01*
X139916546Y-72735145D01*
X139935842Y-72718425D01*
X139958026Y-72702891D01*
X140121401Y-72588495D01*
X140288495Y-72421401D01*
X140424035Y-72227830D01*
X140523903Y-72013663D01*
X140585063Y-71785408D01*
X140605659Y-71550000D01*
X140585063Y-71314592D01*
X140523903Y-71086337D01*
X140424035Y-70872171D01*
X140418953Y-70864912D01*
X140288494Y-70678597D01*
X140121402Y-70511506D01*
X140121396Y-70511501D01*
X139935842Y-70381575D01*
X139892217Y-70326998D01*
X139885023Y-70257500D01*
X139916546Y-70195145D01*
X139935842Y-70178425D01*
X140012248Y-70124925D01*
X140121401Y-70048495D01*
X140288495Y-69881401D01*
X140424035Y-69687830D01*
X140523903Y-69473663D01*
X140585063Y-69245408D01*
X140605659Y-69010000D01*
X140585063Y-68774592D01*
X140523903Y-68546337D01*
X140424035Y-68332171D01*
X140418424Y-68324158D01*
X140288496Y-68138600D01*
X140288493Y-68138597D01*
X140166567Y-68016671D01*
X140133084Y-67955351D01*
X140138068Y-67885659D01*
X140179939Y-67829725D01*
X140210915Y-67812810D01*
X140342331Y-67763796D01*
X140457546Y-67677546D01*
X140543796Y-67562331D01*
X140594091Y-67427483D01*
X140600500Y-67367873D01*
X140600499Y-65572128D01*
X140594091Y-65512517D01*
X140564019Y-65431891D01*
X140543797Y-65377671D01*
X140543793Y-65377664D01*
X140457547Y-65262455D01*
X140457544Y-65262452D01*
X140342335Y-65176206D01*
X140342328Y-65176202D01*
X140207482Y-65125908D01*
X140207483Y-65125908D01*
X140147883Y-65119501D01*
X140147881Y-65119500D01*
X140147873Y-65119500D01*
X140147864Y-65119500D01*
X138352129Y-65119500D01*
X138352123Y-65119501D01*
X138292516Y-65125908D01*
X138157671Y-65176202D01*
X138157664Y-65176206D01*
X138042455Y-65262452D01*
X138042452Y-65262455D01*
X137956206Y-65377664D01*
X137956202Y-65377671D01*
X137905908Y-65512517D01*
X137899501Y-65572116D01*
X137899501Y-65572123D01*
X137899500Y-65572135D01*
X137899500Y-67367870D01*
X137899501Y-67367876D01*
X137905908Y-67427483D01*
X137956202Y-67562328D01*
X137956206Y-67562335D01*
X138042452Y-67677544D01*
X138042455Y-67677547D01*
X138157664Y-67763793D01*
X138157671Y-67763797D01*
X138289081Y-67812810D01*
X138345015Y-67854681D01*
X138369432Y-67920145D01*
X138354580Y-67988418D01*
X138333430Y-68016673D01*
X138211503Y-68138600D01*
X138075965Y-68332169D01*
X138075964Y-68332171D01*
X137976098Y-68546335D01*
X137976094Y-68546344D01*
X137914938Y-68774586D01*
X137914936Y-68774596D01*
X137894341Y-69009999D01*
X137894341Y-69010000D01*
X137914936Y-69245403D01*
X137914938Y-69245413D01*
X137976094Y-69473655D01*
X137976096Y-69473659D01*
X137976097Y-69473663D01*
X138055597Y-69644151D01*
X138075965Y-69687830D01*
X138075967Y-69687834D01*
X138134462Y-69771373D01*
X138211501Y-69881396D01*
X138211506Y-69881402D01*
X138378597Y-70048493D01*
X138378603Y-70048498D01*
X138564158Y-70178425D01*
X138607783Y-70233002D01*
X138614977Y-70302500D01*
X138583454Y-70364855D01*
X138564158Y-70381575D01*
X138378597Y-70511505D01*
X138211505Y-70678597D01*
X138075965Y-70872169D01*
X138075964Y-70872171D01*
X137976098Y-71086335D01*
X137976094Y-71086344D01*
X137914938Y-71314586D01*
X137914936Y-71314596D01*
X137894341Y-71549999D01*
X137894341Y-71550000D01*
X137914936Y-71785403D01*
X137914938Y-71785413D01*
X137976094Y-72013655D01*
X137976096Y-72013659D01*
X137976097Y-72013663D01*
X137980000Y-72022032D01*
X138075965Y-72227830D01*
X138075967Y-72227834D01*
X138152280Y-72336819D01*
X138211501Y-72421396D01*
X138211506Y-72421402D01*
X138378597Y-72588493D01*
X138378603Y-72588498D01*
X138564158Y-72718425D01*
X138607783Y-72773002D01*
X138614977Y-72842500D01*
X138583454Y-72904855D01*
X138564158Y-72921575D01*
X138378597Y-73051505D01*
X138211505Y-73218597D01*
X138075965Y-73412169D01*
X138075964Y-73412171D01*
X137976098Y-73626335D01*
X137976094Y-73626344D01*
X137914938Y-73854586D01*
X137914936Y-73854596D01*
X137894341Y-74089999D01*
X137894341Y-74090000D01*
X137914936Y-74325403D01*
X137914938Y-74325413D01*
X137976094Y-74553655D01*
X137976096Y-74553659D01*
X137976097Y-74553663D01*
X137988689Y-74580666D01*
X138075965Y-74767830D01*
X138075967Y-74767834D01*
X138184281Y-74922521D01*
X138211501Y-74961396D01*
X138211506Y-74961402D01*
X138378597Y-75128493D01*
X138378603Y-75128498D01*
X138564158Y-75258425D01*
X138607783Y-75313002D01*
X138614977Y-75382500D01*
X138583454Y-75444855D01*
X138564158Y-75461575D01*
X138378597Y-75591505D01*
X138211505Y-75758597D01*
X138075965Y-75952169D01*
X138075964Y-75952171D01*
X137976098Y-76166335D01*
X137976094Y-76166344D01*
X137914938Y-76394586D01*
X137914936Y-76394596D01*
X137894341Y-76629999D01*
X137894341Y-76630000D01*
X137914936Y-76865403D01*
X137914938Y-76865413D01*
X137976094Y-77093655D01*
X137976096Y-77093659D01*
X137976097Y-77093663D01*
X137980000Y-77102032D01*
X138075965Y-77307830D01*
X138075967Y-77307834D01*
X138163873Y-77433376D01*
X138211501Y-77501396D01*
X138211506Y-77501402D01*
X138378597Y-77668493D01*
X138378603Y-77668498D01*
X138564158Y-77798425D01*
X138607783Y-77853002D01*
X138614977Y-77922500D01*
X138583454Y-77984855D01*
X138564158Y-78001575D01*
X138378597Y-78131505D01*
X138211505Y-78298597D01*
X138075965Y-78492169D01*
X138075964Y-78492171D01*
X137976098Y-78706335D01*
X137976094Y-78706344D01*
X137914938Y-78934586D01*
X137914936Y-78934596D01*
X137894341Y-79169999D01*
X137894341Y-79170000D01*
X137914936Y-79405403D01*
X137914938Y-79405413D01*
X137976094Y-79633655D01*
X137976096Y-79633659D01*
X137976097Y-79633663D01*
X137988689Y-79660666D01*
X138075965Y-79847830D01*
X138075967Y-79847834D01*
X138152280Y-79956819D01*
X138211501Y-80041396D01*
X138211506Y-80041402D01*
X138378597Y-80208493D01*
X138378603Y-80208498D01*
X138564158Y-80338425D01*
X138607783Y-80393002D01*
X138614977Y-80462500D01*
X138583454Y-80524855D01*
X138564158Y-80541575D01*
X138378597Y-80671505D01*
X138211505Y-80838597D01*
X138075965Y-81032169D01*
X138075964Y-81032171D01*
X137976098Y-81246335D01*
X137976094Y-81246344D01*
X137914938Y-81474586D01*
X137914936Y-81474596D01*
X137894341Y-81709999D01*
X137894341Y-81710000D01*
X137914936Y-81945403D01*
X137914938Y-81945413D01*
X137976094Y-82173655D01*
X137976096Y-82173659D01*
X137976097Y-82173663D01*
X137980000Y-82182032D01*
X138075965Y-82387830D01*
X138075967Y-82387834D01*
X138184281Y-82542521D01*
X138211501Y-82581396D01*
X138211506Y-82581402D01*
X138378597Y-82748493D01*
X138378603Y-82748498D01*
X138564158Y-82878425D01*
X138607783Y-82933002D01*
X138614977Y-83002500D01*
X138583454Y-83064855D01*
X138564158Y-83081575D01*
X138378597Y-83211505D01*
X138211505Y-83378597D01*
X138075965Y-83572169D01*
X138075964Y-83572171D01*
X137976098Y-83786335D01*
X137976094Y-83786344D01*
X137914938Y-84014586D01*
X137914936Y-84014596D01*
X137894341Y-84249999D01*
X137894341Y-84250000D01*
X137914936Y-84485403D01*
X137914938Y-84485413D01*
X137976094Y-84713655D01*
X137976096Y-84713659D01*
X137976097Y-84713663D01*
X137980000Y-84722032D01*
X138075965Y-84927830D01*
X138075967Y-84927834D01*
X138184281Y-85082521D01*
X138211501Y-85121396D01*
X138211506Y-85121402D01*
X138378597Y-85288493D01*
X138378603Y-85288498D01*
X138564158Y-85418425D01*
X138607783Y-85473002D01*
X138614977Y-85542500D01*
X138583454Y-85604855D01*
X138564158Y-85621575D01*
X138378597Y-85751505D01*
X138211505Y-85918597D01*
X138075965Y-86112169D01*
X138075964Y-86112171D01*
X137976098Y-86326335D01*
X137976094Y-86326344D01*
X137914938Y-86554586D01*
X137914936Y-86554596D01*
X137894341Y-86789999D01*
X137894341Y-86790000D01*
X137914936Y-87025403D01*
X137914938Y-87025413D01*
X137976094Y-87253655D01*
X137976096Y-87253659D01*
X137976097Y-87253663D01*
X137980000Y-87262032D01*
X138075965Y-87467830D01*
X138075967Y-87467834D01*
X138097732Y-87498917D01*
X138211504Y-87661399D01*
X138211505Y-87661401D01*
X138378597Y-87828493D01*
X138378603Y-87828498D01*
X138564158Y-87958425D01*
X138607783Y-88013002D01*
X138614977Y-88082500D01*
X138583454Y-88144855D01*
X138564158Y-88161575D01*
X138378597Y-88291505D01*
X138211505Y-88458597D01*
X138075965Y-88652169D01*
X138075964Y-88652171D01*
X137976098Y-88866335D01*
X137976094Y-88866344D01*
X137914938Y-89094586D01*
X137914936Y-89094596D01*
X137894341Y-89329999D01*
X137894341Y-89330000D01*
X137914936Y-89565403D01*
X137914938Y-89565413D01*
X137976094Y-89793655D01*
X137976096Y-89793659D01*
X137976097Y-89793663D01*
X137980000Y-89802032D01*
X138075965Y-90007830D01*
X138075967Y-90007834D01*
X138184281Y-90162521D01*
X138211501Y-90201396D01*
X138211506Y-90201402D01*
X138378597Y-90368493D01*
X138378603Y-90368498D01*
X138564158Y-90498425D01*
X138607783Y-90553002D01*
X138614977Y-90622500D01*
X138583454Y-90684855D01*
X138564158Y-90701575D01*
X138378597Y-90831505D01*
X138211505Y-90998597D01*
X138075965Y-91192169D01*
X138075964Y-91192171D01*
X137976098Y-91406335D01*
X137976094Y-91406344D01*
X137914938Y-91634586D01*
X137914936Y-91634596D01*
X137894341Y-91869999D01*
X137894341Y-91870000D01*
X137914936Y-92105403D01*
X137914938Y-92105413D01*
X137976094Y-92333655D01*
X137976096Y-92333659D01*
X137976097Y-92333663D01*
X137980000Y-92342032D01*
X138075965Y-92547830D01*
X138075967Y-92547834D01*
X138184281Y-92702521D01*
X138211501Y-92741396D01*
X138211506Y-92741402D01*
X138378597Y-92908493D01*
X138378603Y-92908498D01*
X138564158Y-93038425D01*
X138607783Y-93093002D01*
X138614977Y-93162500D01*
X138583454Y-93224855D01*
X138564158Y-93241575D01*
X138378597Y-93371505D01*
X138211505Y-93538597D01*
X138075965Y-93732169D01*
X138075964Y-93732171D01*
X137976098Y-93946335D01*
X137976094Y-93946344D01*
X137914938Y-94174586D01*
X137914936Y-94174596D01*
X137894341Y-94409999D01*
X137894341Y-94410000D01*
X137914936Y-94645403D01*
X137914938Y-94645413D01*
X137976094Y-94873655D01*
X137976096Y-94873659D01*
X137976097Y-94873663D01*
X137980000Y-94882032D01*
X138075965Y-95087830D01*
X138075967Y-95087834D01*
X138184281Y-95242521D01*
X138211501Y-95281396D01*
X138211506Y-95281402D01*
X138378597Y-95448493D01*
X138378603Y-95448498D01*
X138564158Y-95578425D01*
X138607783Y-95633002D01*
X138614977Y-95702500D01*
X138583454Y-95764855D01*
X138564158Y-95781575D01*
X138378597Y-95911505D01*
X138211505Y-96078597D01*
X138075965Y-96272169D01*
X138075964Y-96272171D01*
X137976098Y-96486335D01*
X137976094Y-96486344D01*
X137914938Y-96714586D01*
X137914936Y-96714596D01*
X137894341Y-96949999D01*
X137894341Y-96950000D01*
X137914936Y-97185403D01*
X137914938Y-97185413D01*
X137976094Y-97413655D01*
X137976096Y-97413659D01*
X137976097Y-97413663D01*
X138056004Y-97585023D01*
X138075965Y-97627830D01*
X138075967Y-97627834D01*
X138110534Y-97677200D01*
X138211501Y-97821396D01*
X138211506Y-97821402D01*
X138378597Y-97988493D01*
X138378603Y-97988498D01*
X138564158Y-98118425D01*
X138607783Y-98173002D01*
X138614977Y-98242500D01*
X138583454Y-98304855D01*
X138564158Y-98321575D01*
X138378597Y-98451505D01*
X138211505Y-98618597D01*
X138075965Y-98812169D01*
X138075964Y-98812171D01*
X137976098Y-99026335D01*
X137976094Y-99026344D01*
X137914938Y-99254586D01*
X137914936Y-99254596D01*
X137894341Y-99489999D01*
X137894341Y-99490000D01*
X137914936Y-99725403D01*
X137914938Y-99725413D01*
X137976094Y-99953655D01*
X137976096Y-99953659D01*
X137976097Y-99953663D01*
X138054681Y-100122186D01*
X138075965Y-100167830D01*
X138075967Y-100167834D01*
X138163873Y-100293376D01*
X138211501Y-100361396D01*
X138211506Y-100361402D01*
X138378597Y-100528493D01*
X138378603Y-100528498D01*
X138564158Y-100658425D01*
X138607783Y-100713002D01*
X138614977Y-100782500D01*
X138583454Y-100844855D01*
X138564158Y-100861575D01*
X138378597Y-100991505D01*
X138211505Y-101158597D01*
X138075965Y-101352169D01*
X138075964Y-101352171D01*
X137976098Y-101566335D01*
X137976094Y-101566344D01*
X137914938Y-101794586D01*
X137914936Y-101794596D01*
X137894341Y-102029999D01*
X137894341Y-102030000D01*
X137914936Y-102265403D01*
X137914938Y-102265413D01*
X137976094Y-102493655D01*
X137976096Y-102493659D01*
X137976097Y-102493663D01*
X137984026Y-102510666D01*
X138075965Y-102707830D01*
X138075967Y-102707834D01*
X138152280Y-102816819D01*
X138211501Y-102901396D01*
X138211506Y-102901402D01*
X138378597Y-103068493D01*
X138378603Y-103068498D01*
X138564158Y-103198425D01*
X138607783Y-103253002D01*
X138614977Y-103322500D01*
X138583454Y-103384855D01*
X138564158Y-103401575D01*
X138378597Y-103531505D01*
X138211505Y-103698597D01*
X138075965Y-103892169D01*
X138075964Y-103892171D01*
X137976098Y-104106335D01*
X137976094Y-104106344D01*
X137914938Y-104334586D01*
X137914936Y-104334596D01*
X137894341Y-104569999D01*
X137894341Y-104570000D01*
X137914936Y-104805403D01*
X137914938Y-104805413D01*
X137976094Y-105033655D01*
X137976096Y-105033659D01*
X137976097Y-105033663D01*
X137980000Y-105042032D01*
X138075965Y-105247830D01*
X138075967Y-105247834D01*
X138184281Y-105402521D01*
X138211501Y-105441396D01*
X138211506Y-105441402D01*
X138378597Y-105608493D01*
X138378603Y-105608498D01*
X138564158Y-105738425D01*
X138607783Y-105793002D01*
X138614977Y-105862500D01*
X138583454Y-105924855D01*
X138564158Y-105941575D01*
X138378597Y-106071505D01*
X138211505Y-106238597D01*
X138075965Y-106432169D01*
X138075964Y-106432171D01*
X137976098Y-106646335D01*
X137976094Y-106646344D01*
X137914938Y-106874586D01*
X137914936Y-106874596D01*
X137894341Y-107109999D01*
X137894341Y-107110000D01*
X137914936Y-107345403D01*
X137914938Y-107345413D01*
X137976094Y-107573655D01*
X137976096Y-107573659D01*
X137976097Y-107573663D01*
X137980000Y-107582032D01*
X138075965Y-107787830D01*
X138075967Y-107787834D01*
X138184281Y-107942521D01*
X138211501Y-107981396D01*
X138211506Y-107981402D01*
X138378597Y-108148493D01*
X138378603Y-108148498D01*
X138564158Y-108278425D01*
X138607783Y-108333002D01*
X138614977Y-108402500D01*
X138583454Y-108464855D01*
X138564158Y-108481575D01*
X138378597Y-108611505D01*
X138211505Y-108778597D01*
X138075965Y-108972169D01*
X138075964Y-108972171D01*
X137976098Y-109186335D01*
X137976094Y-109186344D01*
X137914938Y-109414586D01*
X137914936Y-109414596D01*
X137894341Y-109649999D01*
X137894341Y-109650000D01*
X137914936Y-109885403D01*
X137914938Y-109885413D01*
X137976094Y-110113655D01*
X137976096Y-110113659D01*
X137976097Y-110113663D01*
X137980000Y-110122032D01*
X138075965Y-110327830D01*
X138075967Y-110327834D01*
X138184281Y-110482521D01*
X138211505Y-110521401D01*
X138378599Y-110688495D01*
X138564158Y-110818425D01*
X138564594Y-110818730D01*
X138608218Y-110873307D01*
X138615411Y-110942806D01*
X138583889Y-111005160D01*
X138564593Y-111021880D01*
X138488626Y-111075072D01*
X138488625Y-111075072D01*
X139120590Y-111707037D01*
X139057007Y-111724075D01*
X138942993Y-111789901D01*
X138849901Y-111882993D01*
X138784075Y-111997007D01*
X138767037Y-112060589D01*
X138135073Y-111428625D01*
X138135072Y-111428625D01*
X138076401Y-111512419D01*
X137976570Y-111726507D01*
X137976566Y-111726516D01*
X137915432Y-111954673D01*
X137915430Y-111954684D01*
X137894843Y-112189998D01*
X137894843Y-112190001D01*
X137915430Y-112425315D01*
X137915432Y-112425326D01*
X137976566Y-112653483D01*
X137976570Y-112653492D01*
X138076400Y-112867579D01*
X138076402Y-112867583D01*
X138135072Y-112951373D01*
X138135073Y-112951373D01*
X138767037Y-112319409D01*
X138784075Y-112382993D01*
X138849901Y-112497007D01*
X138942993Y-112590099D01*
X139057007Y-112655925D01*
X139120590Y-112672962D01*
X138488625Y-113304925D01*
X138564594Y-113358119D01*
X138608219Y-113412696D01*
X138615413Y-113482194D01*
X138583890Y-113544549D01*
X138564595Y-113561269D01*
X138378594Y-113691508D01*
X138211506Y-113858596D01*
X138163874Y-113926623D01*
X138109297Y-113970248D01*
X138062299Y-113979500D01*
X136987229Y-113979500D01*
X136920190Y-113959815D01*
X136899548Y-113943181D01*
X134961819Y-112005451D01*
X134928334Y-111944128D01*
X134925500Y-111917770D01*
X134925500Y-104433957D01*
X134945185Y-104366918D01*
X134984407Y-104328416D01*
X134993656Y-104322712D01*
X135117712Y-104198656D01*
X135209814Y-104049334D01*
X135264999Y-103882797D01*
X135275500Y-103780009D01*
X135275499Y-102779992D01*
X135264999Y-102677203D01*
X135209814Y-102510666D01*
X135117712Y-102361344D01*
X134993656Y-102237288D01*
X134993655Y-102237287D01*
X134984402Y-102231580D01*
X134937678Y-102179632D01*
X134925500Y-102126042D01*
X134925500Y-99433957D01*
X134945185Y-99366918D01*
X134984407Y-99328416D01*
X134993656Y-99322712D01*
X135117712Y-99198656D01*
X135209814Y-99049334D01*
X135264999Y-98882797D01*
X135275500Y-98780009D01*
X135275499Y-97779992D01*
X135264999Y-97677203D01*
X135209814Y-97510666D01*
X135117712Y-97361344D01*
X134993656Y-97237288D01*
X134844334Y-97145186D01*
X134677797Y-97090001D01*
X134677795Y-97090000D01*
X134575010Y-97079500D01*
X133774998Y-97079500D01*
X133774980Y-97079501D01*
X133672203Y-97090000D01*
X133672200Y-97090001D01*
X133505668Y-97145185D01*
X133505663Y-97145187D01*
X133356342Y-97237289D01*
X133262681Y-97330951D01*
X133201358Y-97364436D01*
X133131666Y-97359452D01*
X133087319Y-97330951D01*
X132993657Y-97237289D01*
X132993656Y-97237288D01*
X132844334Y-97145186D01*
X132677797Y-97090001D01*
X132677795Y-97090000D01*
X132575010Y-97079500D01*
X131774998Y-97079500D01*
X131774980Y-97079501D01*
X131672203Y-97090000D01*
X131672200Y-97090001D01*
X131505668Y-97145185D01*
X131505663Y-97145187D01*
X131356342Y-97237289D01*
X131232289Y-97361342D01*
X131140187Y-97510663D01*
X131140186Y-97510666D01*
X131085001Y-97677203D01*
X131085001Y-97677204D01*
X131085000Y-97677204D01*
X131074500Y-97779983D01*
X131074500Y-98267769D01*
X131054815Y-98334808D01*
X131038181Y-98355450D01*
X130690451Y-98703181D01*
X130629128Y-98736666D01*
X130602770Y-98739500D01*
X128402701Y-98739500D01*
X128335662Y-98719815D01*
X128301126Y-98686623D01*
X128253494Y-98618597D01*
X128086402Y-98451506D01*
X128086396Y-98451501D01*
X127900842Y-98321575D01*
X127857217Y-98266998D01*
X127850023Y-98197500D01*
X127881546Y-98135145D01*
X127900842Y-98118425D01*
X127923026Y-98102891D01*
X128086401Y-97988495D01*
X128253495Y-97821401D01*
X128389035Y-97627830D01*
X128488903Y-97413663D01*
X128550063Y-97185408D01*
X128570659Y-96950000D01*
X128550063Y-96714592D01*
X128488903Y-96486337D01*
X128389035Y-96272171D01*
X128383425Y-96264158D01*
X128253494Y-96078597D01*
X128086402Y-95911506D01*
X128086396Y-95911501D01*
X127900842Y-95781575D01*
X127857217Y-95726998D01*
X127850023Y-95657500D01*
X127881546Y-95595145D01*
X127900842Y-95578425D01*
X127923026Y-95562891D01*
X128086401Y-95448495D01*
X128253495Y-95281401D01*
X128389035Y-95087830D01*
X128488903Y-94873663D01*
X128550063Y-94645408D01*
X128570659Y-94410000D01*
X128550063Y-94174592D01*
X128488903Y-93946337D01*
X128389035Y-93732171D01*
X128383425Y-93724158D01*
X128253494Y-93538597D01*
X128086402Y-93371506D01*
X128086396Y-93371501D01*
X127900842Y-93241575D01*
X127857217Y-93186998D01*
X127850023Y-93117500D01*
X127881546Y-93055145D01*
X127900842Y-93038425D01*
X127923026Y-93022891D01*
X128086401Y-92908495D01*
X128253495Y-92741401D01*
X128389035Y-92547830D01*
X128488903Y-92333663D01*
X128550063Y-92105408D01*
X128570659Y-91870000D01*
X128550063Y-91634592D01*
X128488903Y-91406337D01*
X128389035Y-91192171D01*
X128383425Y-91184158D01*
X128253494Y-90998597D01*
X128086402Y-90831506D01*
X128086396Y-90831501D01*
X127900842Y-90701575D01*
X127857217Y-90646998D01*
X127850023Y-90577500D01*
X127881546Y-90515145D01*
X127900842Y-90498425D01*
X127923026Y-90482891D01*
X128086401Y-90368495D01*
X128253495Y-90201401D01*
X128389035Y-90007830D01*
X128488903Y-89793663D01*
X128550063Y-89565408D01*
X128570659Y-89330000D01*
X128550063Y-89094592D01*
X128488903Y-88866337D01*
X128389035Y-88652171D01*
X128383425Y-88644158D01*
X128253494Y-88458597D01*
X128086402Y-88291506D01*
X128086396Y-88291501D01*
X127900842Y-88161575D01*
X127857217Y-88106998D01*
X127850023Y-88037500D01*
X127881546Y-87975145D01*
X127900842Y-87958425D01*
X127923026Y-87942891D01*
X128086401Y-87828495D01*
X128253495Y-87661401D01*
X128389035Y-87467830D01*
X128488903Y-87253663D01*
X128550063Y-87025408D01*
X128570659Y-86790000D01*
X128550063Y-86554592D01*
X128488903Y-86326337D01*
X128389035Y-86112171D01*
X128383425Y-86104158D01*
X128253494Y-85918597D01*
X128086402Y-85751506D01*
X128086396Y-85751501D01*
X127900842Y-85621575D01*
X127857217Y-85566998D01*
X127850023Y-85497500D01*
X127881546Y-85435145D01*
X127900842Y-85418425D01*
X127923026Y-85402891D01*
X128086401Y-85288495D01*
X128253495Y-85121401D01*
X128389035Y-84927830D01*
X128488903Y-84713663D01*
X128550063Y-84485408D01*
X128570659Y-84250000D01*
X128550063Y-84014592D01*
X128488903Y-83786337D01*
X128389035Y-83572171D01*
X128383425Y-83564158D01*
X128253494Y-83378597D01*
X128086402Y-83211506D01*
X128086396Y-83211501D01*
X127900842Y-83081575D01*
X127857217Y-83026998D01*
X127850023Y-82957500D01*
X127881546Y-82895145D01*
X127900842Y-82878425D01*
X127923026Y-82862891D01*
X128086401Y-82748495D01*
X128253495Y-82581401D01*
X128389035Y-82387830D01*
X128488903Y-82173663D01*
X128550063Y-81945408D01*
X128570659Y-81710000D01*
X128550063Y-81474592D01*
X128488903Y-81246337D01*
X128389035Y-81032171D01*
X128383425Y-81024158D01*
X128253494Y-80838597D01*
X128086402Y-80671506D01*
X128086396Y-80671501D01*
X127900842Y-80541575D01*
X127857217Y-80486998D01*
X127850023Y-80417500D01*
X127881546Y-80355145D01*
X127900842Y-80338425D01*
X127923026Y-80322891D01*
X128086401Y-80208495D01*
X128253495Y-80041401D01*
X128389035Y-79847830D01*
X128488903Y-79633663D01*
X128550063Y-79405408D01*
X128570659Y-79170000D01*
X128550063Y-78934592D01*
X128488903Y-78706337D01*
X128389035Y-78492171D01*
X128383425Y-78484158D01*
X128253494Y-78298597D01*
X128086402Y-78131506D01*
X128086396Y-78131501D01*
X127900842Y-78001575D01*
X127857217Y-77946998D01*
X127850023Y-77877500D01*
X127881546Y-77815145D01*
X127900842Y-77798425D01*
X127923026Y-77782891D01*
X128086401Y-77668495D01*
X128253495Y-77501401D01*
X128389035Y-77307830D01*
X128488903Y-77093663D01*
X128550063Y-76865408D01*
X128570659Y-76630000D01*
X128550063Y-76394592D01*
X128488903Y-76166337D01*
X128389035Y-75952171D01*
X128383425Y-75944158D01*
X128253494Y-75758597D01*
X128086402Y-75591506D01*
X128086396Y-75591501D01*
X127900842Y-75461575D01*
X127857217Y-75406998D01*
X127850023Y-75337500D01*
X127881546Y-75275145D01*
X127900842Y-75258425D01*
X127923026Y-75242891D01*
X128086401Y-75128495D01*
X128253495Y-74961401D01*
X128389035Y-74767830D01*
X128488903Y-74553663D01*
X128550063Y-74325408D01*
X128570659Y-74090000D01*
X128550063Y-73854592D01*
X128488903Y-73626337D01*
X128389035Y-73412171D01*
X128384772Y-73406082D01*
X128253494Y-73218597D01*
X128086402Y-73051506D01*
X128086396Y-73051501D01*
X127900842Y-72921575D01*
X127857217Y-72866998D01*
X127850023Y-72797500D01*
X127881546Y-72735145D01*
X127900842Y-72718425D01*
X127923026Y-72702891D01*
X128086401Y-72588495D01*
X128253495Y-72421401D01*
X128389035Y-72227830D01*
X128488903Y-72013663D01*
X128550063Y-71785408D01*
X128570659Y-71550000D01*
X128550063Y-71314592D01*
X128488903Y-71086337D01*
X128389035Y-70872171D01*
X128383953Y-70864912D01*
X128253494Y-70678597D01*
X128086402Y-70511506D01*
X128086396Y-70511501D01*
X127900842Y-70381575D01*
X127857217Y-70326998D01*
X127850023Y-70257500D01*
X127881546Y-70195145D01*
X127900842Y-70178425D01*
X127977248Y-70124925D01*
X128086401Y-70048495D01*
X128253495Y-69881401D01*
X128389035Y-69687830D01*
X128488903Y-69473663D01*
X128550063Y-69245408D01*
X128570659Y-69010000D01*
X128550063Y-68774592D01*
X128488903Y-68546337D01*
X128389035Y-68332171D01*
X128383425Y-68324158D01*
X128253494Y-68138597D01*
X128086402Y-67971506D01*
X128086396Y-67971501D01*
X127900842Y-67841575D01*
X127857217Y-67786998D01*
X127850023Y-67717500D01*
X127881546Y-67655145D01*
X127900842Y-67638425D01*
X127977248Y-67584925D01*
X128086401Y-67508495D01*
X128253495Y-67341401D01*
X128389035Y-67147830D01*
X128488903Y-66933663D01*
X128550063Y-66705408D01*
X128570659Y-66470000D01*
X128550063Y-66234592D01*
X128488903Y-66006337D01*
X128389035Y-65792171D01*
X128383425Y-65784158D01*
X128253494Y-65598597D01*
X128086402Y-65431506D01*
X128086395Y-65431501D01*
X127892834Y-65295967D01*
X127892830Y-65295965D01*
X127892828Y-65295964D01*
X127678663Y-65196097D01*
X127678659Y-65196096D01*
X127678655Y-65196094D01*
X127450413Y-65134938D01*
X127450403Y-65134936D01*
X127215001Y-65114341D01*
X127214999Y-65114341D01*
X126979596Y-65134936D01*
X126979586Y-65134938D01*
X126751344Y-65196094D01*
X126751335Y-65196098D01*
X126537171Y-65295964D01*
X126537169Y-65295965D01*
X126343597Y-65431505D01*
X126176505Y-65598597D01*
X126046575Y-65784158D01*
X125991998Y-65827783D01*
X125922500Y-65834977D01*
X125860145Y-65803454D01*
X125843425Y-65784158D01*
X125713494Y-65598597D01*
X125546402Y-65431506D01*
X125546395Y-65431501D01*
X125352834Y-65295967D01*
X125352830Y-65295965D01*
X125352828Y-65295964D01*
X125138663Y-65196097D01*
X125138659Y-65196096D01*
X125138655Y-65196094D01*
X124910413Y-65134938D01*
X124910403Y-65134936D01*
X124675001Y-65114341D01*
X124674999Y-65114341D01*
X124439596Y-65134936D01*
X124439586Y-65134938D01*
X124211344Y-65196094D01*
X124211335Y-65196098D01*
X123997171Y-65295964D01*
X123997169Y-65295965D01*
X123803597Y-65431505D01*
X123636505Y-65598597D01*
X123500965Y-65792169D01*
X123500964Y-65792171D01*
X123401098Y-66006335D01*
X123401094Y-66006344D01*
X123339938Y-66234586D01*
X123339936Y-66234596D01*
X123319341Y-66469999D01*
X113275500Y-66469999D01*
X113275500Y-56569999D01*
X121039341Y-56569999D01*
X121039341Y-56570000D01*
X121059936Y-56805403D01*
X121059938Y-56805413D01*
X121121094Y-57033655D01*
X121121096Y-57033659D01*
X121121097Y-57033663D01*
X121201004Y-57205023D01*
X121220965Y-57247830D01*
X121220967Y-57247834D01*
X121287246Y-57342489D01*
X121356505Y-57441401D01*
X121523599Y-57608495D01*
X121620384Y-57676265D01*
X121717165Y-57744032D01*
X121717167Y-57744033D01*
X121717170Y-57744035D01*
X121931337Y-57843903D01*
X122159592Y-57905063D01*
X122347918Y-57921539D01*
X122394999Y-57925659D01*
X122395000Y-57925659D01*
X122395001Y-57925659D01*
X122434234Y-57922226D01*
X122630408Y-57905063D01*
X122858663Y-57843903D01*
X123072830Y-57744035D01*
X123266401Y-57608495D01*
X123433495Y-57441401D01*
X123563425Y-57255842D01*
X123618002Y-57212217D01*
X123687500Y-57205023D01*
X123749855Y-57236546D01*
X123766575Y-57255842D01*
X123896500Y-57441395D01*
X123896505Y-57441401D01*
X124063599Y-57608495D01*
X124160384Y-57676265D01*
X124257165Y-57744032D01*
X124257167Y-57744033D01*
X124257170Y-57744035D01*
X124471337Y-57843903D01*
X124699592Y-57905063D01*
X124887918Y-57921539D01*
X124934999Y-57925659D01*
X124935000Y-57925659D01*
X124935001Y-57925659D01*
X124974234Y-57922226D01*
X125170408Y-57905063D01*
X125398663Y-57843903D01*
X125612830Y-57744035D01*
X125806401Y-57608495D01*
X125973495Y-57441401D01*
X126103425Y-57255842D01*
X126158002Y-57212217D01*
X126227500Y-57205023D01*
X126289855Y-57236546D01*
X126306575Y-57255842D01*
X126436500Y-57441395D01*
X126436505Y-57441401D01*
X126603599Y-57608495D01*
X126700384Y-57676265D01*
X126797165Y-57744032D01*
X126797167Y-57744033D01*
X126797170Y-57744035D01*
X127011337Y-57843903D01*
X127239592Y-57905063D01*
X127427918Y-57921539D01*
X127474999Y-57925659D01*
X127475000Y-57925659D01*
X127475001Y-57925659D01*
X127514234Y-57922226D01*
X127710408Y-57905063D01*
X127938663Y-57843903D01*
X128152830Y-57744035D01*
X128346401Y-57608495D01*
X128513495Y-57441401D01*
X128643425Y-57255842D01*
X128698002Y-57212217D01*
X128767500Y-57205023D01*
X128829855Y-57236546D01*
X128846575Y-57255842D01*
X128976500Y-57441395D01*
X128976505Y-57441401D01*
X129143599Y-57608495D01*
X129240384Y-57676265D01*
X129337165Y-57744032D01*
X129337167Y-57744033D01*
X129337170Y-57744035D01*
X129551337Y-57843903D01*
X129779592Y-57905063D01*
X129967918Y-57921539D01*
X130014999Y-57925659D01*
X130015000Y-57925659D01*
X130015001Y-57925659D01*
X130054234Y-57922226D01*
X130250408Y-57905063D01*
X130478663Y-57843903D01*
X130692830Y-57744035D01*
X130886401Y-57608495D01*
X131053495Y-57441401D01*
X131183425Y-57255842D01*
X131238002Y-57212217D01*
X131307500Y-57205023D01*
X131369855Y-57236546D01*
X131386575Y-57255842D01*
X131516500Y-57441395D01*
X131516505Y-57441401D01*
X131683599Y-57608495D01*
X131780384Y-57676265D01*
X131877165Y-57744032D01*
X131877167Y-57744033D01*
X131877170Y-57744035D01*
X132091337Y-57843903D01*
X132319592Y-57905063D01*
X132507918Y-57921539D01*
X132554999Y-57925659D01*
X132555000Y-57925659D01*
X132555001Y-57925659D01*
X132594234Y-57922226D01*
X132790408Y-57905063D01*
X133018663Y-57843903D01*
X133232830Y-57744035D01*
X133426401Y-57608495D01*
X133593495Y-57441401D01*
X133723425Y-57255842D01*
X133778002Y-57212217D01*
X133847500Y-57205023D01*
X133909855Y-57236546D01*
X133926575Y-57255842D01*
X134056500Y-57441395D01*
X134056505Y-57441401D01*
X134223599Y-57608495D01*
X134320384Y-57676265D01*
X134417165Y-57744032D01*
X134417167Y-57744033D01*
X134417170Y-57744035D01*
X134631337Y-57843903D01*
X134859592Y-57905063D01*
X135047918Y-57921539D01*
X135094999Y-57925659D01*
X135095000Y-57925659D01*
X135095001Y-57925659D01*
X135134234Y-57922226D01*
X135330408Y-57905063D01*
X135558663Y-57843903D01*
X135772830Y-57744035D01*
X135966401Y-57608495D01*
X136133495Y-57441401D01*
X136263425Y-57255842D01*
X136318002Y-57212217D01*
X136387500Y-57205023D01*
X136449855Y-57236546D01*
X136466575Y-57255842D01*
X136596500Y-57441395D01*
X136596505Y-57441401D01*
X136763599Y-57608495D01*
X136860384Y-57676265D01*
X136957165Y-57744032D01*
X136957167Y-57744033D01*
X136957170Y-57744035D01*
X137171337Y-57843903D01*
X137399592Y-57905063D01*
X137587918Y-57921539D01*
X137634999Y-57925659D01*
X137635000Y-57925659D01*
X137635001Y-57925659D01*
X137674234Y-57922226D01*
X137870408Y-57905063D01*
X138098663Y-57843903D01*
X138312830Y-57744035D01*
X138506401Y-57608495D01*
X138673495Y-57441401D01*
X138803730Y-57255405D01*
X138858307Y-57211781D01*
X138927805Y-57204587D01*
X138990160Y-57236110D01*
X139006879Y-57255405D01*
X139136890Y-57441078D01*
X139303917Y-57608105D01*
X139497421Y-57743600D01*
X139711507Y-57843429D01*
X139711516Y-57843433D01*
X139925000Y-57900634D01*
X139925000Y-57003012D01*
X139982007Y-57035925D01*
X140109174Y-57070000D01*
X140240826Y-57070000D01*
X140367993Y-57035925D01*
X140425000Y-57003012D01*
X140425000Y-57900633D01*
X140638483Y-57843433D01*
X140638492Y-57843429D01*
X140852578Y-57743600D01*
X141046082Y-57608105D01*
X141174187Y-57480000D01*
X152969919Y-57480000D01*
X152990191Y-57685834D01*
X153050233Y-57883766D01*
X153125975Y-58025469D01*
X153125976Y-58025469D01*
X153650000Y-57501446D01*
X153650000Y-57529370D01*
X153675556Y-57624745D01*
X153724925Y-57710255D01*
X153794745Y-57780075D01*
X153880255Y-57829444D01*
X153975630Y-57855000D01*
X154003553Y-57855000D01*
X153479528Y-58379023D01*
X153621233Y-58454766D01*
X153819165Y-58514808D01*
X154025000Y-58535080D01*
X154230834Y-58514808D01*
X154428764Y-58454766D01*
X154570470Y-58379022D01*
X154046448Y-57855000D01*
X154074370Y-57855000D01*
X154169745Y-57829444D01*
X154255255Y-57780075D01*
X154325075Y-57710255D01*
X154374444Y-57624745D01*
X154400000Y-57529370D01*
X154400000Y-57501447D01*
X154924022Y-58025469D01*
X154999766Y-57883764D01*
X155059808Y-57685834D01*
X155080080Y-57480000D01*
X155059808Y-57274165D01*
X154999766Y-57076233D01*
X154924023Y-56934528D01*
X154400000Y-57458551D01*
X154400000Y-57430630D01*
X154374444Y-57335255D01*
X154325075Y-57249745D01*
X154255255Y-57179925D01*
X154169745Y-57130556D01*
X154074370Y-57105000D01*
X154046448Y-57105000D01*
X154570469Y-56580976D01*
X154570469Y-56580975D01*
X154428766Y-56505233D01*
X154230834Y-56445191D01*
X154025000Y-56424919D01*
X153819166Y-56445191D01*
X153621234Y-56505234D01*
X153479529Y-56580975D01*
X153479529Y-56580976D01*
X154003553Y-57105000D01*
X153975630Y-57105000D01*
X153880255Y-57130556D01*
X153794745Y-57179925D01*
X153724925Y-57249745D01*
X153675556Y-57335255D01*
X153650000Y-57430630D01*
X153650000Y-57458552D01*
X153125976Y-56934529D01*
X153125975Y-56934529D01*
X153050234Y-57076234D01*
X152990191Y-57274166D01*
X152969919Y-57480000D01*
X141174187Y-57480000D01*
X141213105Y-57441082D01*
X141348600Y-57247578D01*
X141448429Y-57033492D01*
X141448432Y-57033486D01*
X141505636Y-56820000D01*
X140608012Y-56820000D01*
X140640925Y-56762993D01*
X140675000Y-56635826D01*
X140675000Y-56504174D01*
X140640925Y-56377007D01*
X140608012Y-56320000D01*
X141505636Y-56320000D01*
X141505635Y-56319999D01*
X141448432Y-56106513D01*
X141448429Y-56106507D01*
X141348600Y-55892422D01*
X141348599Y-55892420D01*
X141213113Y-55698926D01*
X141213108Y-55698920D01*
X141046082Y-55531894D01*
X140859968Y-55401575D01*
X140816344Y-55346998D01*
X140809151Y-55277499D01*
X140840673Y-55215145D01*
X140859968Y-55198425D01*
X141046082Y-55068105D01*
X141213105Y-54901082D01*
X141348600Y-54707578D01*
X141448429Y-54493492D01*
X141448432Y-54493486D01*
X141478269Y-54382135D01*
X152974500Y-54382135D01*
X152974500Y-55577870D01*
X152974501Y-55577876D01*
X152980908Y-55637483D01*
X153031202Y-55772328D01*
X153031206Y-55772335D01*
X153117452Y-55887544D01*
X153117455Y-55887547D01*
X153232664Y-55973793D01*
X153232671Y-55973797D01*
X153367517Y-56024091D01*
X153367516Y-56024091D01*
X153374444Y-56024835D01*
X153427127Y-56030500D01*
X154622872Y-56030499D01*
X154682483Y-56024091D01*
X154817331Y-55973796D01*
X154932546Y-55887546D01*
X155018796Y-55772331D01*
X155069091Y-55637483D01*
X155075500Y-55577873D01*
X155075499Y-54382128D01*
X155069091Y-54322517D01*
X155061502Y-54302171D01*
X155018797Y-54187671D01*
X155018793Y-54187664D01*
X154932547Y-54072455D01*
X154932544Y-54072452D01*
X154817335Y-53986206D01*
X154817328Y-53986202D01*
X154682482Y-53935908D01*
X154682483Y-53935908D01*
X154622883Y-53929501D01*
X154622881Y-53929500D01*
X154622873Y-53929500D01*
X154622864Y-53929500D01*
X153427129Y-53929500D01*
X153427123Y-53929501D01*
X153367516Y-53935908D01*
X153232671Y-53986202D01*
X153232664Y-53986206D01*
X153117455Y-54072452D01*
X153117452Y-54072455D01*
X153031206Y-54187664D01*
X153031202Y-54187671D01*
X152980908Y-54322517D01*
X152978494Y-54344977D01*
X152974501Y-54382123D01*
X152974500Y-54382135D01*
X141478269Y-54382135D01*
X141505636Y-54280000D01*
X140608012Y-54280000D01*
X140640925Y-54222993D01*
X140675000Y-54095826D01*
X140675000Y-53964174D01*
X140640925Y-53837007D01*
X140608012Y-53780000D01*
X141505636Y-53780000D01*
X141505635Y-53779999D01*
X141448432Y-53566513D01*
X141448429Y-53566507D01*
X141348600Y-53352422D01*
X141348599Y-53352420D01*
X141213113Y-53158926D01*
X141213108Y-53158920D01*
X141046082Y-52991894D01*
X140852578Y-52856399D01*
X140638492Y-52756570D01*
X140638486Y-52756567D01*
X140425000Y-52699364D01*
X140425000Y-53596988D01*
X140367993Y-53564075D01*
X140240826Y-53530000D01*
X140109174Y-53530000D01*
X139982007Y-53564075D01*
X139925000Y-53596988D01*
X139925000Y-52699364D01*
X139924999Y-52699364D01*
X139711513Y-52756567D01*
X139711507Y-52756570D01*
X139497422Y-52856399D01*
X139497420Y-52856400D01*
X139303926Y-52991886D01*
X139303920Y-52991891D01*
X139136891Y-53158920D01*
X139136890Y-53158922D01*
X139006880Y-53344595D01*
X138952303Y-53388219D01*
X138882804Y-53395412D01*
X138820450Y-53363890D01*
X138803730Y-53344594D01*
X138673494Y-53158597D01*
X138506402Y-52991506D01*
X138506395Y-52991501D01*
X138312834Y-52855967D01*
X138312830Y-52855965D01*
X138312828Y-52855964D01*
X138098663Y-52756097D01*
X138098659Y-52756096D01*
X138098655Y-52756094D01*
X137870413Y-52694938D01*
X137870403Y-52694936D01*
X137635001Y-52674341D01*
X137634999Y-52674341D01*
X137399596Y-52694936D01*
X137399586Y-52694938D01*
X137171344Y-52756094D01*
X137171335Y-52756098D01*
X136957171Y-52855964D01*
X136957169Y-52855965D01*
X136763597Y-52991505D01*
X136596505Y-53158597D01*
X136466575Y-53344158D01*
X136411998Y-53387783D01*
X136342500Y-53394977D01*
X136280145Y-53363454D01*
X136263425Y-53344158D01*
X136133494Y-53158597D01*
X135966402Y-52991506D01*
X135966395Y-52991501D01*
X135772834Y-52855967D01*
X135772830Y-52855965D01*
X135772828Y-52855964D01*
X135558663Y-52756097D01*
X135558659Y-52756096D01*
X135558655Y-52756094D01*
X135330413Y-52694938D01*
X135330403Y-52694936D01*
X135095001Y-52674341D01*
X135094999Y-52674341D01*
X134859596Y-52694936D01*
X134859586Y-52694938D01*
X134631344Y-52756094D01*
X134631335Y-52756098D01*
X134417171Y-52855964D01*
X134417169Y-52855965D01*
X134223597Y-52991505D01*
X134056505Y-53158597D01*
X133926575Y-53344158D01*
X133871998Y-53387783D01*
X133802500Y-53394977D01*
X133740145Y-53363454D01*
X133723425Y-53344158D01*
X133593494Y-53158597D01*
X133426402Y-52991506D01*
X133426395Y-52991501D01*
X133232834Y-52855967D01*
X133232830Y-52855965D01*
X133232828Y-52855964D01*
X133018663Y-52756097D01*
X133018659Y-52756096D01*
X133018655Y-52756094D01*
X132790413Y-52694938D01*
X132790403Y-52694936D01*
X132555001Y-52674341D01*
X132554999Y-52674341D01*
X132319596Y-52694936D01*
X132319586Y-52694938D01*
X132091344Y-52756094D01*
X132091335Y-52756098D01*
X131877171Y-52855964D01*
X131877169Y-52855965D01*
X131683597Y-52991505D01*
X131516505Y-53158597D01*
X131386575Y-53344158D01*
X131331998Y-53387783D01*
X131262500Y-53394977D01*
X131200145Y-53363454D01*
X131183425Y-53344158D01*
X131053494Y-53158597D01*
X130886402Y-52991506D01*
X130886395Y-52991501D01*
X130692834Y-52855967D01*
X130692830Y-52855965D01*
X130692828Y-52855964D01*
X130478663Y-52756097D01*
X130478659Y-52756096D01*
X130478655Y-52756094D01*
X130250413Y-52694938D01*
X130250403Y-52694936D01*
X130015001Y-52674341D01*
X130014999Y-52674341D01*
X129779596Y-52694936D01*
X129779586Y-52694938D01*
X129551344Y-52756094D01*
X129551335Y-52756098D01*
X129337171Y-52855964D01*
X129337169Y-52855965D01*
X129143597Y-52991505D01*
X128976505Y-53158597D01*
X128846575Y-53344158D01*
X128791998Y-53387783D01*
X128722500Y-53394977D01*
X128660145Y-53363454D01*
X128643425Y-53344158D01*
X128513494Y-53158597D01*
X128346402Y-52991506D01*
X128346395Y-52991501D01*
X128152834Y-52855967D01*
X128152830Y-52855965D01*
X128152828Y-52855964D01*
X127938663Y-52756097D01*
X127938659Y-52756096D01*
X127938655Y-52756094D01*
X127710413Y-52694938D01*
X127710403Y-52694936D01*
X127475001Y-52674341D01*
X127474999Y-52674341D01*
X127239596Y-52694936D01*
X127239586Y-52694938D01*
X127011344Y-52756094D01*
X127011335Y-52756098D01*
X126797171Y-52855964D01*
X126797169Y-52855965D01*
X126603597Y-52991505D01*
X126436505Y-53158597D01*
X126306575Y-53344158D01*
X126251998Y-53387783D01*
X126182500Y-53394977D01*
X126120145Y-53363454D01*
X126103425Y-53344158D01*
X125973494Y-53158597D01*
X125806402Y-52991506D01*
X125806395Y-52991501D01*
X125612834Y-52855967D01*
X125612830Y-52855965D01*
X125612828Y-52855964D01*
X125398663Y-52756097D01*
X125398659Y-52756096D01*
X125398655Y-52756094D01*
X125170413Y-52694938D01*
X125170403Y-52694936D01*
X124935001Y-52674341D01*
X124934999Y-52674341D01*
X124699596Y-52694936D01*
X124699586Y-52694938D01*
X124471344Y-52756094D01*
X124471335Y-52756098D01*
X124257171Y-52855964D01*
X124257169Y-52855965D01*
X124063600Y-52991503D01*
X123941673Y-53113430D01*
X123880350Y-53146914D01*
X123810658Y-53141930D01*
X123754725Y-53100058D01*
X123737810Y-53069081D01*
X123688797Y-52937671D01*
X123688793Y-52937664D01*
X123602547Y-52822455D01*
X123602544Y-52822452D01*
X123487335Y-52736206D01*
X123487328Y-52736202D01*
X123352482Y-52685908D01*
X123352483Y-52685908D01*
X123292883Y-52679501D01*
X123292881Y-52679500D01*
X123292873Y-52679500D01*
X123292864Y-52679500D01*
X121497129Y-52679500D01*
X121497123Y-52679501D01*
X121437516Y-52685908D01*
X121302671Y-52736202D01*
X121302664Y-52736206D01*
X121187455Y-52822452D01*
X121187452Y-52822455D01*
X121101206Y-52937664D01*
X121101202Y-52937671D01*
X121050908Y-53072517D01*
X121044501Y-53132116D01*
X121044500Y-53132135D01*
X121044500Y-54927870D01*
X121044501Y-54927876D01*
X121050908Y-54987483D01*
X121101202Y-55122328D01*
X121101206Y-55122335D01*
X121187452Y-55237544D01*
X121187455Y-55237547D01*
X121302664Y-55323793D01*
X121302671Y-55323797D01*
X121434081Y-55372810D01*
X121490015Y-55414681D01*
X121514432Y-55480145D01*
X121499580Y-55548418D01*
X121478430Y-55576673D01*
X121356503Y-55698600D01*
X121220965Y-55892169D01*
X121220964Y-55892171D01*
X121121098Y-56106335D01*
X121121094Y-56106344D01*
X121059938Y-56334586D01*
X121059936Y-56334596D01*
X121039341Y-56569999D01*
X113275500Y-56569999D01*
X113275500Y-46604500D01*
X113295185Y-46537461D01*
X113347989Y-46491706D01*
X113399500Y-46480500D01*
X180150500Y-46480500D01*
X180217539Y-46500185D01*
G37*
%TD.AperFunction*%
%TD*%
M02*
