%TF.GenerationSoftware,KiCad,Pcbnew,8.0.6*%
%TF.CreationDate,2024-11-07T15:38:19-03:00*%
%TF.ProjectId,Blue Pill extension board v2 (sin PTH),426c7565-2050-4696-9c6c-20657874656e,rev?*%
%TF.SameCoordinates,Original*%
%TF.FileFunction,Copper,L2,Bot*%
%TF.FilePolarity,Positive*%
%FSLAX46Y46*%
G04 Gerber Fmt 4.6, Leading zero omitted, Abs format (unit mm)*
G04 Created by KiCad (PCBNEW 8.0.6) date 2024-11-07 15:38:19*
%MOMM*%
%LPD*%
G01*
G04 APERTURE LIST*
%TA.AperFunction,ComponentPad*%
%ADD10R,1.700000X1.700000*%
%TD*%
%TA.AperFunction,ComponentPad*%
%ADD11O,1.700000X1.700000*%
%TD*%
%TA.AperFunction,ComponentPad*%
%ADD12C,1.700000*%
%TD*%
%TA.AperFunction,ComponentPad*%
%ADD13C,1.100000*%
%TD*%
%TA.AperFunction,ComponentPad*%
%ADD14R,1.100000X1.100000*%
%TD*%
%TA.AperFunction,ViaPad*%
%ADD15C,1.200000*%
%TD*%
%TA.AperFunction,Conductor*%
%ADD16C,0.500000*%
%TD*%
G04 APERTURE END LIST*
D10*
%TO.P,J2,1,Pin_1*%
%TO.N,3V3_L*%
X124675000Y-114730000D03*
D11*
%TO.P,J2,2,Pin_2*%
X127215000Y-114730000D03*
%TO.P,J2,3,Pin_3*%
%TO.N,GND*%
X124675000Y-112190000D03*
%TO.P,J2,4,Pin_4*%
X127215000Y-112190000D03*
%TO.P,J2,5,Pin_5*%
%TO.N,5V*%
X124675000Y-109650000D03*
%TO.P,J2,6,Pin_6*%
X127215000Y-109650000D03*
%TO.P,J2,7,Pin_7*%
%TO.N,PB9*%
X124675000Y-107110000D03*
%TO.P,J2,8,Pin_8*%
X127215000Y-107110000D03*
%TO.P,J2,9,Pin_9*%
%TO.N,PB8*%
X124675000Y-104570000D03*
%TO.P,J2,10,Pin_10*%
X127215000Y-104570000D03*
%TO.P,J2,11,Pin_11*%
%TO.N,SDA1*%
X124675000Y-102030000D03*
%TO.P,J2,12,Pin_12*%
X127215000Y-102030000D03*
%TO.P,J2,13,Pin_13*%
%TO.N,SCL1*%
X124675000Y-99490000D03*
%TO.P,J2,14,Pin_14*%
X127215000Y-99490000D03*
%TO.P,J2,15,Pin_15*%
%TO.N,PB5*%
X124675000Y-96950000D03*
%TO.P,J2,16,Pin_16*%
X127215000Y-96950000D03*
%TO.P,J2,17,Pin_17*%
%TO.N,PB4*%
X124675000Y-94410000D03*
%TO.P,J2,18,Pin_18*%
X127215000Y-94410000D03*
%TO.P,J2,19,Pin_19*%
%TO.N,PB3*%
X124675000Y-91870000D03*
%TO.P,J2,20,Pin_20*%
X127215000Y-91870000D03*
%TO.P,J2,21,Pin_21*%
%TO.N,PA15*%
X124675000Y-89330000D03*
%TO.P,J2,22,Pin_22*%
X127215000Y-89330000D03*
%TO.P,J2,23,Pin_23*%
%TO.N,PA12*%
X124675000Y-86790000D03*
%TO.P,J2,24,Pin_24*%
X127215000Y-86790000D03*
%TO.P,J2,25,Pin_25*%
%TO.N,PA11*%
X124675000Y-84250000D03*
%TO.P,J2,26,Pin_26*%
X127215000Y-84250000D03*
%TO.P,J2,27,Pin_27*%
%TO.N,RX1*%
X124675000Y-81710000D03*
%TO.P,J2,28,Pin_28*%
X127215000Y-81710000D03*
%TO.P,J2,29,Pin_29*%
%TO.N,TX1*%
X124675000Y-79170000D03*
%TO.P,J2,30,Pin_30*%
X127215000Y-79170000D03*
%TO.P,J2,31,Pin_31*%
%TO.N,PA8*%
X124675000Y-76630000D03*
%TO.P,J2,32,Pin_32*%
X127215000Y-76630000D03*
%TO.P,J2,33,Pin_33*%
%TO.N,MOSI2*%
X124675000Y-74090000D03*
%TO.P,J2,34,Pin_34*%
X127215000Y-74090000D03*
%TO.P,J2,35,Pin_35*%
%TO.N,MISO2*%
X124675000Y-71550000D03*
%TO.P,J2,36,Pin_36*%
X127215000Y-71550000D03*
%TO.P,J2,37,Pin_37*%
%TO.N,SCK2*%
X124675000Y-69010000D03*
%TO.P,J2,38,Pin_38*%
X127215000Y-69010000D03*
%TO.P,J2,39,Pin_39*%
%TO.N,NSS2*%
X124675000Y-66470000D03*
%TO.P,J2,40,Pin_40*%
X127215000Y-66470000D03*
%TD*%
D10*
%TO.P,U1,1,PB12*%
%TO.N,NSS2*%
X139250000Y-66470000D03*
D12*
%TO.P,U1,2,PB13*%
%TO.N,SCK2*%
X139250000Y-69010000D03*
%TO.P,U1,3,PB14*%
%TO.N,MISO2*%
X139250000Y-71550000D03*
%TO.P,U1,4,PB15*%
%TO.N,MOSI2*%
X139250000Y-74090000D03*
%TO.P,U1,5,PA8*%
%TO.N,PA8*%
X139250000Y-76630000D03*
%TO.P,U1,6,PA9*%
%TO.N,TX1*%
X139250000Y-79170000D03*
%TO.P,U1,7,PA10*%
%TO.N,RX1*%
X139250000Y-81710000D03*
%TO.P,U1,8,PA11*%
%TO.N,PA11*%
X139250000Y-84250000D03*
%TO.P,U1,9,PA12*%
%TO.N,PA12*%
X139250000Y-86790000D03*
%TO.P,U1,10,PA15*%
%TO.N,PA15*%
X139250000Y-89330000D03*
%TO.P,U1,11,PB3*%
%TO.N,PB3*%
X139250000Y-91870000D03*
%TO.P,U1,12,PB4*%
%TO.N,PB4*%
X139250000Y-94410000D03*
%TO.P,U1,13,PB5*%
%TO.N,PB5*%
X139250000Y-96950000D03*
%TO.P,U1,14,PB6*%
%TO.N,SCL1*%
X139250000Y-99490000D03*
%TO.P,U1,15,PB7*%
%TO.N,SDA1*%
X139250000Y-102030000D03*
%TO.P,U1,16,PB8*%
%TO.N,PB8*%
X139250000Y-104570000D03*
%TO.P,U1,17,PB9*%
%TO.N,PB9*%
X139250000Y-107110000D03*
%TO.P,U1,18,5V*%
%TO.N,5V*%
X139250000Y-109650000D03*
%TO.P,U1,19,GND*%
%TO.N,GND*%
X139250000Y-112190000D03*
%TO.P,U1,20,3V3*%
%TO.N,3V3_L*%
X139250000Y-114730000D03*
%TO.P,U1,21,VBat*%
%TO.N,VBAT*%
X154490000Y-114730000D03*
%TO.P,U1,22,PC13*%
%TO.N,PC13*%
X154490000Y-112190000D03*
%TO.P,U1,23,PC14*%
%TO.N,PC14*%
X154490000Y-109650000D03*
%TO.P,U1,24,PC15*%
%TO.N,PC15*%
X154490000Y-107110000D03*
%TO.P,U1,25,PA0*%
%TO.N,PA0*%
X154490000Y-104570000D03*
%TO.P,U1,26,PA1*%
%TO.N,PA1*%
X154490000Y-102030000D03*
%TO.P,U1,27,PA2*%
%TO.N,TX2*%
X154490000Y-99490000D03*
%TO.P,U1,28,PA3*%
%TO.N,RX2*%
X154490000Y-96950000D03*
%TO.P,U1,29,PA4*%
%TO.N,NSS1*%
X154490000Y-94410000D03*
%TO.P,U1,30,PA5*%
%TO.N,SCK1*%
X154490000Y-91870000D03*
%TO.P,U1,31,PA6*%
%TO.N,MISO1*%
X154490000Y-89330000D03*
%TO.P,U1,32,PA7*%
%TO.N,MOSI1*%
X154490000Y-86790000D03*
%TO.P,U1,33,PB0*%
%TO.N,PB0*%
X154490000Y-84250000D03*
%TO.P,U1,34,PB1*%
%TO.N,PB1*%
X154490000Y-81710000D03*
%TO.P,U1,35,PB10*%
%TO.N,SCL2*%
X154490000Y-79170000D03*
%TO.P,U1,36,PB11*%
%TO.N,SDA2*%
X154490000Y-76630000D03*
%TO.P,U1,37,RST*%
%TO.N,RST*%
X154490000Y-74090000D03*
%TO.P,U1,38,3V3*%
%TO.N,3V3_R*%
X154490000Y-71550000D03*
%TO.P,U1,39,GND*%
%TO.N,GND*%
X154490000Y-69010000D03*
%TO.P,U1,40,GND*%
X154490000Y-66470000D03*
%TD*%
D10*
%TO.P,J4,1,Pin_1*%
%TO.N,VBAT*%
X166675000Y-114730000D03*
D11*
%TO.P,J4,2,Pin_2*%
X169215000Y-114730000D03*
%TO.P,J4,3,Pin_3*%
%TO.N,PC13*%
X166675000Y-112190000D03*
%TO.P,J4,4,Pin_4*%
X169215000Y-112190000D03*
%TO.P,J4,5,Pin_5*%
%TO.N,PC14*%
X166675000Y-109650000D03*
%TO.P,J4,6,Pin_6*%
X169215000Y-109650000D03*
%TO.P,J4,7,Pin_7*%
%TO.N,PC15*%
X166675000Y-107110000D03*
%TO.P,J4,8,Pin_8*%
X169215000Y-107110000D03*
%TO.P,J4,9,Pin_9*%
%TO.N,PA0*%
X166675000Y-104570000D03*
%TO.P,J4,10,Pin_10*%
X169215000Y-104570000D03*
%TO.P,J4,11,Pin_11*%
%TO.N,PA1*%
X166675000Y-102030000D03*
%TO.P,J4,12,Pin_12*%
X169215000Y-102030000D03*
%TO.P,J4,13,Pin_13*%
%TO.N,TX2*%
X166675000Y-99490000D03*
%TO.P,J4,14,Pin_14*%
X169215000Y-99490000D03*
%TO.P,J4,15,Pin_15*%
%TO.N,RX2*%
X166675000Y-96950000D03*
%TO.P,J4,16,Pin_16*%
X169215000Y-96950000D03*
%TO.P,J4,17,Pin_17*%
%TO.N,NSS1*%
X166675000Y-94410000D03*
%TO.P,J4,18,Pin_18*%
X169215000Y-94410000D03*
%TO.P,J4,19,Pin_19*%
%TO.N,SCK1*%
X166675000Y-91870000D03*
%TO.P,J4,20,Pin_20*%
X169215000Y-91870000D03*
%TO.P,J4,21,Pin_21*%
%TO.N,MISO1*%
X166675000Y-89330000D03*
%TO.P,J4,22,Pin_22*%
X169215000Y-89330000D03*
%TO.P,J4,23,Pin_23*%
%TO.N,MOSI1*%
X166675000Y-86790000D03*
%TO.P,J4,24,Pin_24*%
X169215000Y-86790000D03*
%TO.P,J4,25,Pin_25*%
%TO.N,PB0*%
X166675000Y-84250000D03*
%TO.P,J4,26,Pin_26*%
X169215000Y-84250000D03*
%TO.P,J4,27,Pin_27*%
%TO.N,PB1*%
X166675000Y-81710000D03*
%TO.P,J4,28,Pin_28*%
X169215000Y-81710000D03*
%TO.P,J4,29,Pin_29*%
%TO.N,SCL2*%
X166675000Y-79170000D03*
%TO.P,J4,30,Pin_30*%
X169215000Y-79170000D03*
%TO.P,J4,31,Pin_31*%
%TO.N,SDA2*%
X166675000Y-76630000D03*
%TO.P,J4,32,Pin_32*%
X169215000Y-76630000D03*
%TO.P,J4,33,Pin_33*%
%TO.N,RST*%
X166675000Y-74090000D03*
%TO.P,J4,34,Pin_34*%
X169215000Y-74090000D03*
%TO.P,J4,35,Pin_35*%
%TO.N,3V3_R*%
X166675000Y-71550000D03*
%TO.P,J4,36,Pin_36*%
X169215000Y-71550000D03*
%TO.P,J4,37,Pin_37*%
%TO.N,GND*%
X166675000Y-69010000D03*
%TO.P,J4,38,Pin_38*%
X169215000Y-69010000D03*
%TO.P,J4,39,Pin_39*%
X166675000Y-66470000D03*
%TO.P,J4,40,Pin_40*%
X169215000Y-66470000D03*
%TD*%
D10*
%TO.P,J3,1,Pin_1*%
%TO.N,unconnected-(J3-Pin_1-Pad1)*%
X122395000Y-54030000D03*
D11*
%TO.P,J3,2,Pin_2*%
%TO.N,unconnected-(J3-Pin_2-Pad2)*%
X122395000Y-56570000D03*
%TO.P,J3,3,Pin_3*%
%TO.N,MISO2*%
X124935000Y-54030000D03*
%TO.P,J3,4,Pin_4*%
X124935000Y-56570000D03*
%TO.P,J3,5,Pin_5*%
%TO.N,SCK2*%
X127475000Y-54030000D03*
%TO.P,J3,6,Pin_6*%
X127475000Y-56570000D03*
%TO.P,J3,7,Pin_7*%
%TO.N,MOSI2*%
X130015000Y-54030000D03*
%TO.P,J3,8,Pin_8*%
X130015000Y-56570000D03*
%TO.P,J3,9,Pin_9*%
%TO.N,NSS2*%
X132555000Y-54030000D03*
%TO.P,J3,10,Pin_10*%
X132555000Y-56570000D03*
%TO.P,J3,11,Pin_11*%
%TO.N,unconnected-(J3-Pin_11-Pad11)*%
X135095000Y-54030000D03*
%TO.P,J3,12,Pin_12*%
%TO.N,unconnected-(J3-Pin_12-Pad12)*%
X135095000Y-56570000D03*
%TO.P,J3,13,Pin_13*%
%TO.N,3V3_R*%
X137635000Y-54030000D03*
%TO.P,J3,14,Pin_14*%
X137635000Y-56570000D03*
%TO.P,J3,15,Pin_15*%
%TO.N,GND*%
X140175000Y-54030000D03*
%TO.P,J3,16,Pin_16*%
X140175000Y-56570000D03*
%TD*%
D13*
%TO.P,C1,N*%
%TO.N,GND*%
X154025000Y-57480000D03*
D14*
%TO.P,C1,P*%
%TO.N,3V3_R*%
X154025000Y-54980000D03*
%TD*%
D10*
%TO.P,J5,1,Pin_1*%
%TO.N,GND*%
X169175000Y-124280000D03*
D11*
%TO.P,J5,2,Pin_2*%
%TO.N,TX2*%
X166635000Y-124280000D03*
%TO.P,J5,3,Pin_3*%
%TO.N,RX2*%
X164095000Y-124280000D03*
%TO.P,J5,4,Pin_4*%
%TO.N,3V3_L*%
X161555000Y-124280000D03*
%TD*%
D10*
%TO.P,J1,1,Pin_1*%
%TO.N,GND*%
X160405000Y-57520000D03*
D11*
%TO.P,J1,2,Pin_2*%
%TO.N,3V3_R*%
X160405000Y-54980000D03*
%TO.P,J1,3,Pin_3*%
%TO.N,PB1*%
X162945000Y-57520000D03*
%TO.P,J1,4,Pin_4*%
%TO.N,NSS1*%
X162945000Y-54980000D03*
%TO.P,J1,5,Pin_5*%
%TO.N,SCK1*%
X165485000Y-57520000D03*
%TO.P,J1,6,Pin_6*%
%TO.N,MOSI1*%
X165485000Y-54980000D03*
%TO.P,J1,7,Pin_7*%
%TO.N,MISO1*%
X168025000Y-57520000D03*
%TO.P,J1,8,Pin_8*%
%TO.N,PB0*%
X168025000Y-54980000D03*
%TD*%
D10*
%TO.P,J6,1,Pin_1*%
%TO.N,SDA1*%
X124675000Y-124280000D03*
D11*
%TO.P,J6,2,Pin_2*%
%TO.N,SCL1*%
X127215000Y-124280000D03*
%TO.P,J6,3,Pin_3*%
%TO.N,GND*%
X129755000Y-124280000D03*
%TO.P,J6,4,Pin_4*%
%TO.N,3V3_L*%
X132295000Y-124280000D03*
%TD*%
D15*
%TO.N,GND*%
X145450000Y-90900000D03*
X146950000Y-56925000D03*
X139850000Y-121450000D03*
%TD*%
D16*
%TO.N,MOSI1*%
X174475000Y-81530000D02*
X169215000Y-86790000D01*
X171200000Y-53475000D02*
X174475000Y-56750000D01*
X169215000Y-86790000D02*
X154490000Y-86790000D01*
X165485000Y-54980000D02*
X165485000Y-54515000D01*
X166525000Y-53475000D02*
X171200000Y-53475000D01*
X174475000Y-56750000D02*
X174475000Y-81530000D01*
X165485000Y-54515000D02*
X166525000Y-53475000D01*
%TO.N,VBAT*%
X169215000Y-114730000D02*
X154490000Y-114730000D01*
%TO.N,NSS1*%
X162945000Y-54780000D02*
X165675000Y-52050000D01*
X166675000Y-94410000D02*
X154490000Y-94410000D01*
X165675000Y-52050000D02*
X171950000Y-52050000D01*
X171950000Y-52050000D02*
X176050000Y-56150000D01*
X176050000Y-91475000D02*
X173115000Y-94410000D01*
X173115000Y-94410000D02*
X169215000Y-94410000D01*
X162945000Y-54980000D02*
X162945000Y-54780000D01*
X169215000Y-94410000D02*
X166675000Y-94410000D01*
X176050000Y-56150000D02*
X176050000Y-91475000D01*
%TO.N,SCK1*%
X169215000Y-91870000D02*
X154490000Y-91870000D01*
%TO.N,SDA2*%
X154490000Y-76630000D02*
X169215000Y-76630000D01*
X154475000Y-76615000D02*
X154490000Y-76630000D01*
%TO.N,PA1*%
X169215000Y-102030000D02*
X154490000Y-102030000D01*
%TO.N,PB1*%
X166675000Y-81710000D02*
X154490000Y-81710000D01*
X162945000Y-59195000D02*
X162945000Y-57520000D01*
X169215000Y-81710000D02*
X166675000Y-81710000D01*
X169100000Y-61250000D02*
X165000000Y-61250000D01*
X171650000Y-79275000D02*
X171650000Y-63800000D01*
X165000000Y-61250000D02*
X162945000Y-59195000D01*
X169215000Y-81710000D02*
X171650000Y-79275000D01*
X171650000Y-63800000D02*
X169100000Y-61250000D01*
%TO.N,PC13*%
X169215000Y-112190000D02*
X154490000Y-112190000D01*
%TO.N,PC15*%
X169215000Y-107110000D02*
X154490000Y-107110000D01*
%TO.N,SCL2*%
X166675000Y-79170000D02*
X154490000Y-79170000D01*
X169215000Y-79170000D02*
X166675000Y-79170000D01*
X169200000Y-79185000D02*
X169215000Y-79170000D01*
%TO.N,PC14*%
X169215000Y-109650000D02*
X154490000Y-109650000D01*
%TO.N,RST*%
X154490000Y-74090000D02*
X169215000Y-74090000D01*
%TO.N,PA0*%
X169215000Y-104570000D02*
X154490000Y-104570000D01*
%TO.N,PB0*%
X154490000Y-84250000D02*
X166675000Y-84250000D01*
X169215000Y-84250000D02*
X171395000Y-82070000D01*
X171395000Y-82070000D02*
X172800000Y-80665000D01*
X170775000Y-54980000D02*
X168025000Y-54980000D01*
X172800000Y-80665000D02*
X172800000Y-57005000D01*
X166675000Y-84250000D02*
X169215000Y-84250000D01*
X172800000Y-57005000D02*
X170775000Y-54980000D01*
%TO.N,PA8*%
X124675000Y-76630000D02*
X139250000Y-76630000D01*
%TO.N,PB4*%
X124675000Y-94410000D02*
X139250000Y-94410000D01*
%TO.N,PB3*%
X124675000Y-91870000D02*
X139250000Y-91870000D01*
%TO.N,PB5*%
X124675000Y-96950000D02*
X139250000Y-96950000D01*
%TO.N,PA11*%
X124675000Y-84250000D02*
X139250000Y-84250000D01*
%TO.N,MISO1*%
X166675000Y-89330000D02*
X154490000Y-89330000D01*
X165865000Y-89325000D02*
X165870000Y-89330000D01*
X165870000Y-89330000D02*
X169215000Y-89330000D01*
X169215000Y-89330000D02*
X166675000Y-89330000D01*
%TO.N,PA15*%
X124675000Y-89330000D02*
X139250000Y-89330000D01*
%TO.N,PA12*%
X124675000Y-86790000D02*
X139250000Y-86790000D01*
%TO.N,SDA1*%
X121925000Y-124280000D02*
X121175000Y-123530000D01*
X124680000Y-102035000D02*
X124675000Y-102030000D01*
X124675000Y-102030000D02*
X126595000Y-102030000D01*
X122175000Y-102030000D02*
X124675000Y-102030000D01*
X121175000Y-123530000D02*
X121175000Y-103030000D01*
X124675000Y-124280000D02*
X121925000Y-124280000D01*
X121175000Y-103030000D02*
X122175000Y-102030000D01*
X127215000Y-102030000D02*
X139250000Y-102030000D01*
%TO.N,SCL1*%
X139250000Y-99490000D02*
X127215000Y-99490000D01*
X124675000Y-99490000D02*
X121465000Y-99490000D01*
X121425000Y-127030000D02*
X125675000Y-127030000D01*
X118925000Y-102030000D02*
X118925000Y-124530000D01*
X121465000Y-99490000D02*
X118925000Y-102030000D01*
X127215000Y-99490000D02*
X124675000Y-99490000D01*
X124690000Y-99505000D02*
X124675000Y-99490000D01*
X127215000Y-125490000D02*
X127215000Y-124280000D01*
X125675000Y-127030000D02*
X127215000Y-125490000D01*
X118925000Y-124530000D02*
X121425000Y-127030000D01*
%TO.N,5V*%
X124675000Y-109650000D02*
X139250000Y-109650000D01*
%TO.N,NSS2*%
X132555000Y-61130000D02*
X127215000Y-66470000D01*
X132555000Y-56570000D02*
X132555000Y-61130000D01*
X132555000Y-54030000D02*
X132555000Y-56570000D01*
X124675000Y-66470000D02*
X127405000Y-66470000D01*
X124675000Y-66470000D02*
X139250000Y-66470000D01*
%TO.N,SCK2*%
X127475000Y-58230000D02*
X120925000Y-64780000D01*
X120925000Y-67280000D02*
X122655000Y-69010000D01*
X127475000Y-54030000D02*
X127475000Y-56570000D01*
X127475000Y-56570000D02*
X127475000Y-58230000D01*
X124675000Y-69010000D02*
X139250000Y-69010000D01*
X120925000Y-64780000D02*
X120925000Y-67280000D01*
X122655000Y-69010000D02*
X124675000Y-69010000D01*
%TO.N,MOSI2*%
X118375000Y-51575000D02*
X116725000Y-53225000D01*
X124675000Y-74090000D02*
X124735000Y-74030000D01*
X124675000Y-74090000D02*
X139250000Y-74090000D01*
X130015000Y-52190000D02*
X129400000Y-51575000D01*
X130015000Y-54030000D02*
X130015000Y-52190000D01*
X121015000Y-74090000D02*
X124675000Y-74090000D01*
X116725000Y-53225000D02*
X116725000Y-69800000D01*
X129400000Y-51575000D02*
X118375000Y-51575000D01*
X116725000Y-69800000D02*
X121015000Y-74090000D01*
X124735000Y-74030000D02*
X128175000Y-74030000D01*
X130015000Y-54030000D02*
X130015000Y-56570000D01*
%TO.N,PB8*%
X124675000Y-104570000D02*
X139250000Y-104570000D01*
%TO.N,PB9*%
X124675000Y-107110000D02*
X139250000Y-107110000D01*
%TO.N,GND*%
X169215000Y-66470000D02*
X166675000Y-66470000D01*
X127215000Y-112190000D02*
X139250000Y-112190000D01*
X140175000Y-54030000D02*
X140175000Y-56570000D01*
X124675000Y-112190000D02*
X124685000Y-112180000D01*
X154490000Y-69010000D02*
X169215000Y-69010000D01*
X139240000Y-112180000D02*
X139250000Y-112190000D01*
X166675000Y-66470000D02*
X154490000Y-66470000D01*
X124675000Y-112190000D02*
X127215000Y-112190000D01*
%TO.N,MISO2*%
X124935000Y-54030000D02*
X124935000Y-56570000D01*
X118925000Y-68780000D02*
X121695000Y-71550000D01*
X124935000Y-56570000D02*
X124935000Y-58020000D01*
X121695000Y-71550000D02*
X124675000Y-71550000D01*
X118925000Y-64030000D02*
X118925000Y-68780000D01*
X124675000Y-71550000D02*
X139250000Y-71550000D01*
X124935000Y-58020000D02*
X118925000Y-64030000D01*
%TO.N,RX1*%
X124675000Y-81710000D02*
X139250000Y-81710000D01*
%TO.N,TX1*%
X124675000Y-79170000D02*
X139250000Y-79170000D01*
%TO.N,RX2*%
X164095000Y-124280000D02*
X164095000Y-120950000D01*
X162425000Y-119280000D02*
X152675000Y-119280000D01*
X148675000Y-115280000D02*
X148675000Y-99030000D01*
X154490000Y-96950000D02*
X169215000Y-96950000D01*
X148675000Y-99030000D02*
X150755000Y-96950000D01*
X150755000Y-96950000D02*
X154490000Y-96950000D01*
X164095000Y-120950000D02*
X162425000Y-119280000D01*
X152675000Y-119280000D02*
X148675000Y-115280000D01*
%TO.N,TX2*%
X150925000Y-101030000D02*
X150925000Y-115030000D01*
X166635000Y-124280000D02*
X166635000Y-120240000D01*
X152465000Y-99490000D02*
X150925000Y-101030000D01*
X166635000Y-120240000D02*
X163925000Y-117530000D01*
X150925000Y-115030000D02*
X153425000Y-117530000D01*
X154490000Y-99490000D02*
X169215000Y-99490000D01*
X154490000Y-99490000D02*
X152465000Y-99490000D01*
X153425000Y-117530000D02*
X163925000Y-117530000D01*
%TO.N,3V3_R*%
X151775000Y-50980000D02*
X154025000Y-53230000D01*
X154490000Y-71550000D02*
X166675000Y-71550000D01*
X166675000Y-71550000D02*
X169215000Y-71550000D01*
X154490000Y-71550000D02*
X150195000Y-71550000D01*
X137635000Y-54030000D02*
X137635000Y-56570000D01*
X139025000Y-50980000D02*
X151775000Y-50980000D01*
X150195000Y-71550000D02*
X137635000Y-58990000D01*
X154025000Y-53230000D02*
X154025000Y-54980000D01*
X160405000Y-54980000D02*
X154025000Y-54980000D01*
X137635000Y-52370000D02*
X139025000Y-50980000D01*
X137635000Y-54030000D02*
X137635000Y-52370000D01*
X137635000Y-58990000D02*
X137635000Y-56570000D01*
%TO.N,3V3_L*%
X160675000Y-121030000D02*
X145550000Y-121030000D01*
X132295000Y-121685000D02*
X139250000Y-114730000D01*
X161555000Y-121910000D02*
X160675000Y-121030000D01*
X145550000Y-121030000D02*
X139250000Y-114730000D01*
X132295000Y-124280000D02*
X132295000Y-121685000D01*
X161555000Y-124280000D02*
X161555000Y-121910000D01*
X124675000Y-114730000D02*
X139250000Y-114730000D01*
%TD*%
%TA.AperFunction,Conductor*%
%TO.N,GND*%
G36*
X123554338Y-102800185D02*
G01*
X123588873Y-102833376D01*
X123636505Y-102901401D01*
X123803597Y-103068493D01*
X123803603Y-103068498D01*
X123989158Y-103198425D01*
X124032783Y-103253002D01*
X124039977Y-103322500D01*
X124008454Y-103384855D01*
X123989158Y-103401575D01*
X123803597Y-103531505D01*
X123636505Y-103698597D01*
X123500965Y-103892169D01*
X123500964Y-103892171D01*
X123401098Y-104106335D01*
X123401094Y-104106344D01*
X123339938Y-104334586D01*
X123339936Y-104334596D01*
X123319341Y-104569999D01*
X123319341Y-104570000D01*
X123339936Y-104805403D01*
X123339938Y-104805413D01*
X123401094Y-105033655D01*
X123401096Y-105033659D01*
X123401097Y-105033663D01*
X123500965Y-105247830D01*
X123500967Y-105247834D01*
X123636501Y-105441395D01*
X123636506Y-105441402D01*
X123803597Y-105608493D01*
X123803603Y-105608498D01*
X123989158Y-105738425D01*
X124032783Y-105793002D01*
X124039977Y-105862500D01*
X124008454Y-105924855D01*
X123989158Y-105941575D01*
X123803597Y-106071505D01*
X123636505Y-106238597D01*
X123500965Y-106432169D01*
X123500964Y-106432171D01*
X123401098Y-106646335D01*
X123401094Y-106646344D01*
X123339938Y-106874586D01*
X123339936Y-106874596D01*
X123319341Y-107109999D01*
X123319341Y-107110000D01*
X123339936Y-107345403D01*
X123339938Y-107345413D01*
X123401094Y-107573655D01*
X123401096Y-107573659D01*
X123401097Y-107573663D01*
X123500965Y-107787830D01*
X123500967Y-107787834D01*
X123636501Y-107981395D01*
X123636506Y-107981402D01*
X123803597Y-108148493D01*
X123803603Y-108148498D01*
X123989158Y-108278425D01*
X124032783Y-108333002D01*
X124039977Y-108402500D01*
X124008454Y-108464855D01*
X123989158Y-108481575D01*
X123803597Y-108611505D01*
X123636505Y-108778597D01*
X123500965Y-108972169D01*
X123500964Y-108972171D01*
X123401098Y-109186335D01*
X123401094Y-109186344D01*
X123339938Y-109414586D01*
X123339936Y-109414596D01*
X123319341Y-109649999D01*
X123319341Y-109650000D01*
X123339936Y-109885403D01*
X123339938Y-109885413D01*
X123401094Y-110113655D01*
X123401096Y-110113659D01*
X123401097Y-110113663D01*
X123500965Y-110327830D01*
X123500967Y-110327834D01*
X123636501Y-110521395D01*
X123636506Y-110521402D01*
X123803597Y-110688493D01*
X123803603Y-110688498D01*
X123989594Y-110818730D01*
X124033219Y-110873307D01*
X124040413Y-110942805D01*
X124008890Y-111005160D01*
X123989595Y-111021880D01*
X123803922Y-111151890D01*
X123803920Y-111151891D01*
X123636891Y-111318920D01*
X123636886Y-111318926D01*
X123501400Y-111512420D01*
X123501399Y-111512422D01*
X123401570Y-111726507D01*
X123401567Y-111726513D01*
X123344364Y-111939999D01*
X123344364Y-111940000D01*
X124241988Y-111940000D01*
X124209075Y-111997007D01*
X124175000Y-112124174D01*
X124175000Y-112255826D01*
X124209075Y-112382993D01*
X124241988Y-112440000D01*
X123344364Y-112440000D01*
X123401567Y-112653486D01*
X123401570Y-112653492D01*
X123501399Y-112867578D01*
X123636894Y-113061082D01*
X123758946Y-113183134D01*
X123792431Y-113244457D01*
X123787447Y-113314149D01*
X123745575Y-113370082D01*
X123714598Y-113386997D01*
X123582671Y-113436202D01*
X123582664Y-113436206D01*
X123467455Y-113522452D01*
X123467452Y-113522455D01*
X123381206Y-113637664D01*
X123381202Y-113637671D01*
X123330908Y-113772517D01*
X123324501Y-113832116D01*
X123324500Y-113832135D01*
X123324500Y-115627870D01*
X123324501Y-115627876D01*
X123330908Y-115687483D01*
X123381202Y-115822328D01*
X123381206Y-115822335D01*
X123467452Y-115937544D01*
X123467455Y-115937547D01*
X123582664Y-116023793D01*
X123582671Y-116023797D01*
X123717517Y-116074091D01*
X123717516Y-116074091D01*
X123724444Y-116074835D01*
X123777127Y-116080500D01*
X125572872Y-116080499D01*
X125632483Y-116074091D01*
X125767331Y-116023796D01*
X125882546Y-115937546D01*
X125968796Y-115822331D01*
X126017810Y-115690916D01*
X126059681Y-115634984D01*
X126125145Y-115610566D01*
X126193418Y-115625417D01*
X126221673Y-115646569D01*
X126343599Y-115768495D01*
X126440384Y-115836265D01*
X126537165Y-115904032D01*
X126537167Y-115904033D01*
X126537170Y-115904035D01*
X126751337Y-116003903D01*
X126979592Y-116065063D01*
X127167918Y-116081539D01*
X127214999Y-116085659D01*
X127215000Y-116085659D01*
X127215001Y-116085659D01*
X127254234Y-116082226D01*
X127450408Y-116065063D01*
X127678663Y-116003903D01*
X127892830Y-115904035D01*
X128086401Y-115768495D01*
X128253495Y-115601401D01*
X128301127Y-115533376D01*
X128355704Y-115489751D01*
X128402701Y-115480500D01*
X137138771Y-115480500D01*
X137205810Y-115500185D01*
X137251565Y-115552989D01*
X137261509Y-115622147D01*
X137232484Y-115685703D01*
X137226452Y-115692181D01*
X131712050Y-121206580D01*
X131712044Y-121206588D01*
X131662812Y-121280268D01*
X131662813Y-121280269D01*
X131629921Y-121329496D01*
X131629914Y-121329508D01*
X131573343Y-121466085D01*
X131573340Y-121466092D01*
X131544500Y-121611079D01*
X131544500Y-123092298D01*
X131524815Y-123159337D01*
X131491625Y-123193872D01*
X131423595Y-123241507D01*
X131256508Y-123408594D01*
X131126269Y-123594595D01*
X131071692Y-123638219D01*
X131002193Y-123645412D01*
X130939839Y-123613890D01*
X130923119Y-123594594D01*
X130793113Y-123408926D01*
X130793108Y-123408920D01*
X130626082Y-123241894D01*
X130432578Y-123106399D01*
X130218492Y-123006570D01*
X130218486Y-123006567D01*
X130005000Y-122949364D01*
X130005000Y-123846988D01*
X129947993Y-123814075D01*
X129820826Y-123780000D01*
X129689174Y-123780000D01*
X129562007Y-123814075D01*
X129505000Y-123846988D01*
X129505000Y-122949364D01*
X129504999Y-122949364D01*
X129291513Y-123006567D01*
X129291507Y-123006570D01*
X129077422Y-123106399D01*
X129077420Y-123106400D01*
X128883926Y-123241886D01*
X128883920Y-123241891D01*
X128716891Y-123408920D01*
X128716890Y-123408922D01*
X128586880Y-123594595D01*
X128532303Y-123638219D01*
X128462804Y-123645412D01*
X128400450Y-123613890D01*
X128383730Y-123594594D01*
X128253494Y-123408597D01*
X128086402Y-123241506D01*
X128086395Y-123241501D01*
X127892834Y-123105967D01*
X127892830Y-123105965D01*
X127821727Y-123072809D01*
X127678663Y-123006097D01*
X127678659Y-123006096D01*
X127678655Y-123006094D01*
X127450413Y-122944938D01*
X127450403Y-122944936D01*
X127215001Y-122924341D01*
X127214999Y-122924341D01*
X126979596Y-122944936D01*
X126979586Y-122944938D01*
X126751344Y-123006094D01*
X126751335Y-123006098D01*
X126537171Y-123105964D01*
X126537169Y-123105965D01*
X126343600Y-123241503D01*
X126221673Y-123363430D01*
X126160350Y-123396914D01*
X126090658Y-123391930D01*
X126034725Y-123350058D01*
X126017810Y-123319081D01*
X125968797Y-123187671D01*
X125968793Y-123187664D01*
X125882547Y-123072455D01*
X125882544Y-123072452D01*
X125767335Y-122986206D01*
X125767328Y-122986202D01*
X125632482Y-122935908D01*
X125632483Y-122935908D01*
X125572883Y-122929501D01*
X125572881Y-122929500D01*
X125572873Y-122929500D01*
X125572864Y-122929500D01*
X123777129Y-122929500D01*
X123777123Y-122929501D01*
X123717516Y-122935908D01*
X123582671Y-122986202D01*
X123582664Y-122986206D01*
X123467455Y-123072452D01*
X123467452Y-123072455D01*
X123381206Y-123187664D01*
X123381202Y-123187671D01*
X123330908Y-123322517D01*
X123324501Y-123382116D01*
X123324500Y-123382135D01*
X123324500Y-123405500D01*
X123304815Y-123472539D01*
X123252011Y-123518294D01*
X123200500Y-123529500D01*
X122287229Y-123529500D01*
X122220190Y-123509815D01*
X122199548Y-123493181D01*
X121961819Y-123255451D01*
X121928334Y-123194128D01*
X121925500Y-123167770D01*
X121925500Y-103392229D01*
X121945185Y-103325190D01*
X121961819Y-103304548D01*
X122449548Y-102816819D01*
X122510871Y-102783334D01*
X122537229Y-102780500D01*
X123487299Y-102780500D01*
X123554338Y-102800185D01*
G37*
%TD.AperFunction*%
%TA.AperFunction,Conductor*%
G36*
X136449855Y-57236546D02*
G01*
X136466575Y-57255842D01*
X136596501Y-57441396D01*
X136596506Y-57441402D01*
X136763595Y-57608492D01*
X136763598Y-57608494D01*
X136763599Y-57608495D01*
X136831623Y-57656125D01*
X136875248Y-57710701D01*
X136884500Y-57757700D01*
X136884500Y-59063918D01*
X136884500Y-59063920D01*
X136884499Y-59063920D01*
X136913340Y-59208907D01*
X136913343Y-59208917D01*
X136969914Y-59345492D01*
X137002812Y-59394727D01*
X137002813Y-59394730D01*
X137052046Y-59468414D01*
X137052052Y-59468421D01*
X149716580Y-72132948D01*
X149716584Y-72132951D01*
X149839498Y-72215080D01*
X149839511Y-72215087D01*
X149976082Y-72271656D01*
X149976087Y-72271658D01*
X149976091Y-72271658D01*
X149976092Y-72271659D01*
X150121079Y-72300500D01*
X150121082Y-72300500D01*
X150268917Y-72300500D01*
X153302299Y-72300500D01*
X153369338Y-72320185D01*
X153403873Y-72353376D01*
X153451505Y-72421401D01*
X153618597Y-72588493D01*
X153618603Y-72588498D01*
X153804158Y-72718425D01*
X153847783Y-72773002D01*
X153854977Y-72842500D01*
X153823454Y-72904855D01*
X153804158Y-72921575D01*
X153618597Y-73051505D01*
X153451505Y-73218597D01*
X153315965Y-73412169D01*
X153315964Y-73412171D01*
X153216098Y-73626335D01*
X153216094Y-73626344D01*
X153154938Y-73854586D01*
X153154936Y-73854596D01*
X153134341Y-74089999D01*
X153134341Y-74090000D01*
X153154936Y-74325403D01*
X153154938Y-74325413D01*
X153216094Y-74553655D01*
X153216096Y-74553659D01*
X153216097Y-74553663D01*
X153271721Y-74672948D01*
X153315965Y-74767830D01*
X153315967Y-74767834D01*
X153451501Y-74961395D01*
X153451506Y-74961402D01*
X153618597Y-75128493D01*
X153618603Y-75128498D01*
X153804158Y-75258425D01*
X153847783Y-75313002D01*
X153854977Y-75382500D01*
X153823454Y-75444855D01*
X153804158Y-75461575D01*
X153618597Y-75591505D01*
X153451505Y-75758597D01*
X153315965Y-75952169D01*
X153315964Y-75952171D01*
X153216098Y-76166335D01*
X153216094Y-76166344D01*
X153154938Y-76394586D01*
X153154936Y-76394596D01*
X153134341Y-76629999D01*
X153134341Y-76630000D01*
X153154936Y-76865403D01*
X153154938Y-76865413D01*
X153216094Y-77093655D01*
X153216096Y-77093659D01*
X153216097Y-77093663D01*
X153315965Y-77307830D01*
X153315967Y-77307834D01*
X153451501Y-77501395D01*
X153451506Y-77501402D01*
X153618597Y-77668493D01*
X153618603Y-77668498D01*
X153804158Y-77798425D01*
X153847783Y-77853002D01*
X153854977Y-77922500D01*
X153823454Y-77984855D01*
X153804158Y-78001575D01*
X153618597Y-78131505D01*
X153451505Y-78298597D01*
X153315965Y-78492169D01*
X153315964Y-78492171D01*
X153216098Y-78706335D01*
X153216094Y-78706344D01*
X153154938Y-78934586D01*
X153154936Y-78934596D01*
X153134341Y-79169999D01*
X153134341Y-79170000D01*
X153154936Y-79405403D01*
X153154938Y-79405413D01*
X153216094Y-79633655D01*
X153216096Y-79633659D01*
X153216097Y-79633663D01*
X153315965Y-79847830D01*
X153315967Y-79847834D01*
X153451501Y-80041395D01*
X153451506Y-80041402D01*
X153618597Y-80208493D01*
X153618603Y-80208498D01*
X153804158Y-80338425D01*
X153847783Y-80393002D01*
X153854977Y-80462500D01*
X153823454Y-80524855D01*
X153804158Y-80541575D01*
X153618597Y-80671505D01*
X153451505Y-80838597D01*
X153315965Y-81032169D01*
X153315964Y-81032171D01*
X153216098Y-81246335D01*
X153216094Y-81246344D01*
X153154938Y-81474586D01*
X153154936Y-81474596D01*
X153134341Y-81709999D01*
X153134341Y-81710000D01*
X153154936Y-81945403D01*
X153154938Y-81945413D01*
X153216094Y-82173655D01*
X153216096Y-82173659D01*
X153216097Y-82173663D01*
X153315965Y-82387830D01*
X153315967Y-82387834D01*
X153451501Y-82581395D01*
X153451506Y-82581402D01*
X153618597Y-82748493D01*
X153618603Y-82748498D01*
X153804158Y-82878425D01*
X153847783Y-82933002D01*
X153854977Y-83002500D01*
X153823454Y-83064855D01*
X153804158Y-83081575D01*
X153618597Y-83211505D01*
X153451505Y-83378597D01*
X153315965Y-83572169D01*
X153315964Y-83572171D01*
X153216098Y-83786335D01*
X153216094Y-83786344D01*
X153154938Y-84014586D01*
X153154936Y-84014596D01*
X153134341Y-84249999D01*
X153134341Y-84250000D01*
X153154936Y-84485403D01*
X153154938Y-84485413D01*
X153216094Y-84713655D01*
X153216096Y-84713659D01*
X153216097Y-84713663D01*
X153315965Y-84927830D01*
X153315967Y-84927834D01*
X153451501Y-85121395D01*
X153451506Y-85121402D01*
X153618597Y-85288493D01*
X153618603Y-85288498D01*
X153804158Y-85418425D01*
X153847783Y-85473002D01*
X153854977Y-85542500D01*
X153823454Y-85604855D01*
X153804158Y-85621575D01*
X153618597Y-85751505D01*
X153451505Y-85918597D01*
X153315965Y-86112169D01*
X153315964Y-86112171D01*
X153216098Y-86326335D01*
X153216094Y-86326344D01*
X153154938Y-86554586D01*
X153154936Y-86554596D01*
X153134341Y-86789999D01*
X153134341Y-86790000D01*
X153154936Y-87025403D01*
X153154938Y-87025413D01*
X153216094Y-87253655D01*
X153216096Y-87253659D01*
X153216097Y-87253663D01*
X153315965Y-87467830D01*
X153315967Y-87467834D01*
X153451501Y-87661395D01*
X153451506Y-87661402D01*
X153618597Y-87828493D01*
X153618603Y-87828498D01*
X153804158Y-87958425D01*
X153847783Y-88013002D01*
X153854977Y-88082500D01*
X153823454Y-88144855D01*
X153804158Y-88161575D01*
X153618597Y-88291505D01*
X153451505Y-88458597D01*
X153315965Y-88652169D01*
X153315964Y-88652171D01*
X153216098Y-88866335D01*
X153216094Y-88866344D01*
X153154938Y-89094586D01*
X153154936Y-89094596D01*
X153134341Y-89329999D01*
X153134341Y-89330000D01*
X153154936Y-89565403D01*
X153154938Y-89565413D01*
X153216094Y-89793655D01*
X153216096Y-89793659D01*
X153216097Y-89793663D01*
X153315965Y-90007830D01*
X153315967Y-90007834D01*
X153451501Y-90201395D01*
X153451506Y-90201402D01*
X153618597Y-90368493D01*
X153618603Y-90368498D01*
X153804158Y-90498425D01*
X153847783Y-90553002D01*
X153854977Y-90622500D01*
X153823454Y-90684855D01*
X153804158Y-90701575D01*
X153618597Y-90831505D01*
X153451505Y-90998597D01*
X153315965Y-91192169D01*
X153315964Y-91192171D01*
X153216098Y-91406335D01*
X153216094Y-91406344D01*
X153154938Y-91634586D01*
X153154936Y-91634596D01*
X153134341Y-91869999D01*
X153154936Y-92105403D01*
X153154938Y-92105413D01*
X153216094Y-92333655D01*
X153216096Y-92333659D01*
X153216097Y-92333663D01*
X153315965Y-92547830D01*
X153315967Y-92547834D01*
X153451501Y-92741395D01*
X153451506Y-92741402D01*
X153618597Y-92908493D01*
X153618603Y-92908498D01*
X153804158Y-93038425D01*
X153847783Y-93093002D01*
X153854977Y-93162500D01*
X153823454Y-93224855D01*
X153804158Y-93241575D01*
X153618597Y-93371505D01*
X153451505Y-93538597D01*
X153315965Y-93732169D01*
X153315964Y-93732171D01*
X153216098Y-93946335D01*
X153216094Y-93946344D01*
X153154938Y-94174586D01*
X153154936Y-94174596D01*
X153134341Y-94409999D01*
X153134341Y-94410000D01*
X153154936Y-94645403D01*
X153154938Y-94645413D01*
X153216094Y-94873655D01*
X153216096Y-94873659D01*
X153216097Y-94873663D01*
X153294681Y-95042186D01*
X153315965Y-95087830D01*
X153315967Y-95087834D01*
X153451501Y-95281395D01*
X153451506Y-95281402D01*
X153618597Y-95448493D01*
X153618603Y-95448498D01*
X153804158Y-95578425D01*
X153847783Y-95633002D01*
X153854977Y-95702500D01*
X153823454Y-95764855D01*
X153804158Y-95781575D01*
X153618597Y-95911505D01*
X153451506Y-96078596D01*
X153403874Y-96146623D01*
X153349297Y-96190248D01*
X153302299Y-96199500D01*
X150681080Y-96199500D01*
X150536092Y-96228340D01*
X150536082Y-96228343D01*
X150399511Y-96284912D01*
X150399498Y-96284919D01*
X150276584Y-96367048D01*
X150276580Y-96367051D01*
X148092045Y-98551586D01*
X148067315Y-98588600D01*
X148057448Y-98603368D01*
X148047271Y-98618599D01*
X148009914Y-98674507D01*
X147953343Y-98811082D01*
X147953340Y-98811092D01*
X147924500Y-98956079D01*
X147924500Y-98956082D01*
X147924500Y-115353918D01*
X147924500Y-115353920D01*
X147924499Y-115353920D01*
X147953340Y-115498907D01*
X147953343Y-115498917D01*
X148009914Y-115635492D01*
X148042812Y-115684727D01*
X148042813Y-115684730D01*
X148092046Y-115758414D01*
X148092052Y-115758421D01*
X152196580Y-119862948D01*
X152196584Y-119862951D01*
X152319498Y-119945080D01*
X152319511Y-119945087D01*
X152456082Y-120001656D01*
X152456087Y-120001658D01*
X152456091Y-120001658D01*
X152456092Y-120001659D01*
X152601079Y-120030500D01*
X152601082Y-120030500D01*
X152748917Y-120030500D01*
X162062770Y-120030500D01*
X162129809Y-120050185D01*
X162150451Y-120066819D01*
X163308181Y-121224548D01*
X163341666Y-121285871D01*
X163344500Y-121312229D01*
X163344500Y-123092298D01*
X163324815Y-123159337D01*
X163291625Y-123193872D01*
X163223595Y-123241507D01*
X163056505Y-123408597D01*
X162926575Y-123594158D01*
X162871998Y-123637783D01*
X162802500Y-123644977D01*
X162740145Y-123613454D01*
X162723425Y-123594158D01*
X162593494Y-123408597D01*
X162426404Y-123241507D01*
X162358375Y-123193872D01*
X162314751Y-123139294D01*
X162305500Y-123092298D01*
X162305500Y-121836079D01*
X162276659Y-121691092D01*
X162276658Y-121691091D01*
X162276658Y-121691087D01*
X162276656Y-121691082D01*
X162220085Y-121554507D01*
X162189288Y-121508416D01*
X162161006Y-121466088D01*
X162137952Y-121431584D01*
X161912948Y-121206580D01*
X161153421Y-120447052D01*
X161153414Y-120447046D01*
X161079729Y-120397812D01*
X161079729Y-120397813D01*
X161030491Y-120364913D01*
X160893917Y-120308343D01*
X160893907Y-120308340D01*
X160748920Y-120279500D01*
X160748918Y-120279500D01*
X145912229Y-120279500D01*
X145845190Y-120259815D01*
X145824548Y-120243181D01*
X140622869Y-115041501D01*
X140589384Y-114980178D01*
X140587022Y-114943012D01*
X140589231Y-114917770D01*
X140605659Y-114730000D01*
X140585063Y-114494592D01*
X140523903Y-114266337D01*
X140424035Y-114052171D01*
X140373151Y-113979500D01*
X140288494Y-113858597D01*
X140121402Y-113691506D01*
X140121401Y-113691505D01*
X139935405Y-113561269D01*
X139891781Y-113506692D01*
X139884588Y-113437193D01*
X139916110Y-113374839D01*
X139935405Y-113358119D01*
X140011373Y-113304925D01*
X139379409Y-112672962D01*
X139442993Y-112655925D01*
X139557007Y-112590099D01*
X139650099Y-112497007D01*
X139715925Y-112382993D01*
X139732962Y-112319410D01*
X140364925Y-112951373D01*
X140364926Y-112951373D01*
X140423598Y-112867582D01*
X140423600Y-112867578D01*
X140523429Y-112653492D01*
X140523433Y-112653483D01*
X140584567Y-112425326D01*
X140584569Y-112425315D01*
X140605157Y-112190001D01*
X140605157Y-112189998D01*
X140584569Y-111954684D01*
X140584567Y-111954673D01*
X140523433Y-111726516D01*
X140523429Y-111726507D01*
X140423600Y-111512423D01*
X140423599Y-111512421D01*
X140364925Y-111428626D01*
X140364925Y-111428625D01*
X139732962Y-112060589D01*
X139715925Y-111997007D01*
X139650099Y-111882993D01*
X139557007Y-111789901D01*
X139442993Y-111724075D01*
X139379410Y-111707037D01*
X140011373Y-111075073D01*
X140011373Y-111075072D01*
X139935405Y-111021880D01*
X139891780Y-110967304D01*
X139884586Y-110897805D01*
X139916108Y-110835451D01*
X139935399Y-110818734D01*
X140121401Y-110688495D01*
X140288495Y-110521401D01*
X140424035Y-110327830D01*
X140523903Y-110113663D01*
X140585063Y-109885408D01*
X140605659Y-109650000D01*
X140585063Y-109414592D01*
X140523903Y-109186337D01*
X140424035Y-108972171D01*
X140373151Y-108899500D01*
X140288494Y-108778597D01*
X140121402Y-108611506D01*
X140121396Y-108611501D01*
X139935842Y-108481575D01*
X139892217Y-108426998D01*
X139885023Y-108357500D01*
X139916546Y-108295145D01*
X139935842Y-108278425D01*
X139958026Y-108262891D01*
X140121401Y-108148495D01*
X140288495Y-107981401D01*
X140424035Y-107787830D01*
X140523903Y-107573663D01*
X140585063Y-107345408D01*
X140605659Y-107110000D01*
X140585063Y-106874592D01*
X140523903Y-106646337D01*
X140424035Y-106432171D01*
X140373151Y-106359500D01*
X140288494Y-106238597D01*
X140121402Y-106071506D01*
X140121396Y-106071501D01*
X139935842Y-105941575D01*
X139892217Y-105886998D01*
X139885023Y-105817500D01*
X139916546Y-105755145D01*
X139935842Y-105738425D01*
X139958026Y-105722891D01*
X140121401Y-105608495D01*
X140288495Y-105441401D01*
X140424035Y-105247830D01*
X140523903Y-105033663D01*
X140585063Y-104805408D01*
X140605659Y-104570000D01*
X140585063Y-104334592D01*
X140523903Y-104106337D01*
X140424035Y-103892171D01*
X140373151Y-103819500D01*
X140288494Y-103698597D01*
X140121402Y-103531506D01*
X140121396Y-103531501D01*
X139935842Y-103401575D01*
X139892217Y-103346998D01*
X139885023Y-103277500D01*
X139916546Y-103215145D01*
X139935842Y-103198425D01*
X139958026Y-103182891D01*
X140121401Y-103068495D01*
X140288495Y-102901401D01*
X140424035Y-102707830D01*
X140523903Y-102493663D01*
X140585063Y-102265408D01*
X140605659Y-102030000D01*
X140585063Y-101794592D01*
X140523903Y-101566337D01*
X140424035Y-101352171D01*
X140416550Y-101341480D01*
X140288494Y-101158597D01*
X140121402Y-100991506D01*
X140121396Y-100991501D01*
X139935842Y-100861575D01*
X139892217Y-100806998D01*
X139885023Y-100737500D01*
X139916546Y-100675145D01*
X139935842Y-100658425D01*
X139983192Y-100625270D01*
X140121401Y-100528495D01*
X140288495Y-100361401D01*
X140424035Y-100167830D01*
X140523903Y-99953663D01*
X140585063Y-99725408D01*
X140605659Y-99490000D01*
X140585063Y-99254592D01*
X140523903Y-99026337D01*
X140424035Y-98812171D01*
X140423280Y-98811092D01*
X140288494Y-98618597D01*
X140121402Y-98451506D01*
X140121396Y-98451501D01*
X139935842Y-98321575D01*
X139892217Y-98266998D01*
X139885023Y-98197500D01*
X139916546Y-98135145D01*
X139935842Y-98118425D01*
X139958026Y-98102891D01*
X140121401Y-97988495D01*
X140288495Y-97821401D01*
X140424035Y-97627830D01*
X140523903Y-97413663D01*
X140585063Y-97185408D01*
X140605659Y-96950000D01*
X140585063Y-96714592D01*
X140523903Y-96486337D01*
X140424035Y-96272171D01*
X140393347Y-96228343D01*
X140288494Y-96078597D01*
X140121402Y-95911506D01*
X140121396Y-95911501D01*
X139935842Y-95781575D01*
X139892217Y-95726998D01*
X139885023Y-95657500D01*
X139916546Y-95595145D01*
X139935842Y-95578425D01*
X139958026Y-95562891D01*
X140121401Y-95448495D01*
X140288495Y-95281401D01*
X140424035Y-95087830D01*
X140523903Y-94873663D01*
X140585063Y-94645408D01*
X140605659Y-94410000D01*
X140585063Y-94174592D01*
X140523903Y-93946337D01*
X140424035Y-93732171D01*
X140373151Y-93659500D01*
X140288494Y-93538597D01*
X140121402Y-93371506D01*
X140121396Y-93371501D01*
X139935842Y-93241575D01*
X139892217Y-93186998D01*
X139885023Y-93117500D01*
X139916546Y-93055145D01*
X139935842Y-93038425D01*
X139958026Y-93022891D01*
X140121401Y-92908495D01*
X140288495Y-92741401D01*
X140424035Y-92547830D01*
X140523903Y-92333663D01*
X140585063Y-92105408D01*
X140605659Y-91870000D01*
X140585063Y-91634592D01*
X140523903Y-91406337D01*
X140424035Y-91192171D01*
X140373151Y-91119500D01*
X140288494Y-90998597D01*
X140121402Y-90831506D01*
X140121396Y-90831501D01*
X139935842Y-90701575D01*
X139892217Y-90646998D01*
X139885023Y-90577500D01*
X139916546Y-90515145D01*
X139935842Y-90498425D01*
X139958026Y-90482891D01*
X140121401Y-90368495D01*
X140288495Y-90201401D01*
X140424035Y-90007830D01*
X140523903Y-89793663D01*
X140585063Y-89565408D01*
X140605659Y-89330000D01*
X140585063Y-89094592D01*
X140523903Y-88866337D01*
X140424035Y-88652171D01*
X140373151Y-88579500D01*
X140288494Y-88458597D01*
X140121402Y-88291506D01*
X140121396Y-88291501D01*
X139935842Y-88161575D01*
X139892217Y-88106998D01*
X139885023Y-88037500D01*
X139916546Y-87975145D01*
X139935842Y-87958425D01*
X139958026Y-87942891D01*
X140121401Y-87828495D01*
X140288495Y-87661401D01*
X140424035Y-87467830D01*
X140523903Y-87253663D01*
X140585063Y-87025408D01*
X140605659Y-86790000D01*
X140585063Y-86554592D01*
X140523903Y-86326337D01*
X140424035Y-86112171D01*
X140373151Y-86039500D01*
X140288494Y-85918597D01*
X140121402Y-85751506D01*
X140121396Y-85751501D01*
X139935842Y-85621575D01*
X139892217Y-85566998D01*
X139885023Y-85497500D01*
X139916546Y-85435145D01*
X139935842Y-85418425D01*
X139958026Y-85402891D01*
X140121401Y-85288495D01*
X140288495Y-85121401D01*
X140424035Y-84927830D01*
X140523903Y-84713663D01*
X140585063Y-84485408D01*
X140605659Y-84250000D01*
X140585063Y-84014592D01*
X140523903Y-83786337D01*
X140424035Y-83572171D01*
X140373151Y-83499500D01*
X140288494Y-83378597D01*
X140121402Y-83211506D01*
X140121396Y-83211501D01*
X139935842Y-83081575D01*
X139892217Y-83026998D01*
X139885023Y-82957500D01*
X139916546Y-82895145D01*
X139935842Y-82878425D01*
X139958026Y-82862891D01*
X140121401Y-82748495D01*
X140288495Y-82581401D01*
X140424035Y-82387830D01*
X140523903Y-82173663D01*
X140585063Y-81945408D01*
X140605659Y-81710000D01*
X140585063Y-81474592D01*
X140523903Y-81246337D01*
X140424035Y-81032171D01*
X140415863Y-81020499D01*
X140288494Y-80838597D01*
X140121402Y-80671506D01*
X140121396Y-80671501D01*
X139935842Y-80541575D01*
X139892217Y-80486998D01*
X139885023Y-80417500D01*
X139916546Y-80355145D01*
X139935842Y-80338425D01*
X139986762Y-80302770D01*
X140121401Y-80208495D01*
X140288495Y-80041401D01*
X140424035Y-79847830D01*
X140523903Y-79633663D01*
X140585063Y-79405408D01*
X140605659Y-79170000D01*
X140585063Y-78934592D01*
X140523903Y-78706337D01*
X140424035Y-78492171D01*
X140373151Y-78419500D01*
X140288494Y-78298597D01*
X140121402Y-78131506D01*
X140121396Y-78131501D01*
X139935842Y-78001575D01*
X139892217Y-77946998D01*
X139885023Y-77877500D01*
X139916546Y-77815145D01*
X139935842Y-77798425D01*
X139958026Y-77782891D01*
X140121401Y-77668495D01*
X140288495Y-77501401D01*
X140424035Y-77307830D01*
X140523903Y-77093663D01*
X140585063Y-76865408D01*
X140605659Y-76630000D01*
X140585063Y-76394592D01*
X140523903Y-76166337D01*
X140424035Y-75952171D01*
X140373151Y-75879500D01*
X140288494Y-75758597D01*
X140121402Y-75591506D01*
X140121396Y-75591501D01*
X139935842Y-75461575D01*
X139892217Y-75406998D01*
X139885023Y-75337500D01*
X139916546Y-75275145D01*
X139935842Y-75258425D01*
X139958026Y-75242891D01*
X140121401Y-75128495D01*
X140288495Y-74961401D01*
X140424035Y-74767830D01*
X140523903Y-74553663D01*
X140585063Y-74325408D01*
X140605659Y-74090000D01*
X140585063Y-73854592D01*
X140523903Y-73626337D01*
X140424035Y-73412171D01*
X140373151Y-73339500D01*
X140288494Y-73218597D01*
X140121402Y-73051506D01*
X140121396Y-73051501D01*
X139935842Y-72921575D01*
X139892217Y-72866998D01*
X139885023Y-72797500D01*
X139916546Y-72735145D01*
X139935842Y-72718425D01*
X139958026Y-72702891D01*
X140121401Y-72588495D01*
X140288495Y-72421401D01*
X140424035Y-72227830D01*
X140523903Y-72013663D01*
X140585063Y-71785408D01*
X140605659Y-71550000D01*
X140585063Y-71314592D01*
X140523903Y-71086337D01*
X140424035Y-70872171D01*
X140373151Y-70799500D01*
X140288494Y-70678597D01*
X140121402Y-70511506D01*
X140121396Y-70511501D01*
X139935842Y-70381575D01*
X139892217Y-70326998D01*
X139885023Y-70257500D01*
X139916546Y-70195145D01*
X139935842Y-70178425D01*
X140012248Y-70124925D01*
X140121401Y-70048495D01*
X140288495Y-69881401D01*
X140424035Y-69687830D01*
X140523903Y-69473663D01*
X140585063Y-69245408D01*
X140605659Y-69010000D01*
X140604688Y-68998907D01*
X140585063Y-68774596D01*
X140585063Y-68774592D01*
X140523903Y-68546337D01*
X140424035Y-68332171D01*
X140373150Y-68259500D01*
X140288496Y-68138600D01*
X140288492Y-68138596D01*
X140166567Y-68016671D01*
X140133084Y-67955351D01*
X140138068Y-67885659D01*
X140179939Y-67829725D01*
X140210915Y-67812810D01*
X140342331Y-67763796D01*
X140457546Y-67677546D01*
X140543796Y-67562331D01*
X140594091Y-67427483D01*
X140600500Y-67367873D01*
X140600499Y-65572128D01*
X140594091Y-65512517D01*
X140564019Y-65431891D01*
X140543797Y-65377671D01*
X140543793Y-65377664D01*
X140457547Y-65262455D01*
X140457544Y-65262452D01*
X140342335Y-65176206D01*
X140342328Y-65176202D01*
X140207482Y-65125908D01*
X140207483Y-65125908D01*
X140147883Y-65119501D01*
X140147881Y-65119500D01*
X140147873Y-65119500D01*
X140147864Y-65119500D01*
X138352129Y-65119500D01*
X138352123Y-65119501D01*
X138292516Y-65125908D01*
X138157671Y-65176202D01*
X138157664Y-65176206D01*
X138042455Y-65262452D01*
X138042452Y-65262455D01*
X137956206Y-65377664D01*
X137956202Y-65377671D01*
X137905908Y-65512517D01*
X137899501Y-65572116D01*
X137899501Y-65572123D01*
X137899500Y-65572135D01*
X137899500Y-65595500D01*
X137879815Y-65662539D01*
X137827011Y-65708294D01*
X137775500Y-65719500D01*
X129326230Y-65719500D01*
X129259191Y-65699815D01*
X129213436Y-65647011D01*
X129203492Y-65577853D01*
X129232517Y-65514297D01*
X129238549Y-65507819D01*
X133137948Y-61608419D01*
X133137947Y-61608419D01*
X133137951Y-61608416D01*
X133220084Y-61485495D01*
X133276658Y-61348913D01*
X133305500Y-61203918D01*
X133305500Y-61056083D01*
X133305500Y-57757700D01*
X133325185Y-57690661D01*
X133358375Y-57656126D01*
X133426401Y-57608495D01*
X133593495Y-57441401D01*
X133723425Y-57255842D01*
X133778002Y-57212217D01*
X133847500Y-57205023D01*
X133909855Y-57236546D01*
X133926575Y-57255842D01*
X134056500Y-57441395D01*
X134056505Y-57441401D01*
X134223599Y-57608495D01*
X134291620Y-57656124D01*
X134417165Y-57744032D01*
X134417167Y-57744033D01*
X134417170Y-57744035D01*
X134631337Y-57843903D01*
X134859592Y-57905063D01*
X135047918Y-57921539D01*
X135094999Y-57925659D01*
X135095000Y-57925659D01*
X135095001Y-57925659D01*
X135134234Y-57922226D01*
X135330408Y-57905063D01*
X135558663Y-57843903D01*
X135772830Y-57744035D01*
X135966401Y-57608495D01*
X136133495Y-57441401D01*
X136263425Y-57255842D01*
X136318002Y-57212217D01*
X136387500Y-57205023D01*
X136449855Y-57236546D01*
G37*
%TD.AperFunction*%
%TA.AperFunction,Conductor*%
G36*
X138129338Y-110420185D02*
G01*
X138163873Y-110453376D01*
X138211505Y-110521401D01*
X138378599Y-110688495D01*
X138564158Y-110818425D01*
X138564594Y-110818730D01*
X138608218Y-110873307D01*
X138615411Y-110942806D01*
X138583889Y-111005160D01*
X138564593Y-111021880D01*
X138488626Y-111075072D01*
X138488625Y-111075072D01*
X139120590Y-111707037D01*
X139057007Y-111724075D01*
X138942993Y-111789901D01*
X138849901Y-111882993D01*
X138784075Y-111997007D01*
X138767037Y-112060589D01*
X138135073Y-111428625D01*
X138135072Y-111428625D01*
X138076401Y-111512419D01*
X137976570Y-111726507D01*
X137976566Y-111726516D01*
X137915432Y-111954673D01*
X137915430Y-111954684D01*
X137894843Y-112189998D01*
X137894843Y-112190001D01*
X137915430Y-112425315D01*
X137915432Y-112425326D01*
X137976566Y-112653483D01*
X137976570Y-112653492D01*
X138076400Y-112867579D01*
X138076402Y-112867583D01*
X138135072Y-112951373D01*
X138135073Y-112951373D01*
X138767037Y-112319409D01*
X138784075Y-112382993D01*
X138849901Y-112497007D01*
X138942993Y-112590099D01*
X139057007Y-112655925D01*
X139120590Y-112672962D01*
X138488625Y-113304925D01*
X138564594Y-113358119D01*
X138608219Y-113412696D01*
X138615413Y-113482194D01*
X138583890Y-113544549D01*
X138564595Y-113561269D01*
X138378594Y-113691508D01*
X138211506Y-113858596D01*
X138163874Y-113926623D01*
X138109297Y-113970248D01*
X138062299Y-113979500D01*
X128402701Y-113979500D01*
X128335662Y-113959815D01*
X128301126Y-113926623D01*
X128253494Y-113858597D01*
X128086402Y-113691506D01*
X128086401Y-113691505D01*
X127900405Y-113561269D01*
X127856781Y-113506692D01*
X127849588Y-113437193D01*
X127881110Y-113374839D01*
X127900405Y-113358119D01*
X128086082Y-113228105D01*
X128253105Y-113061082D01*
X128388600Y-112867578D01*
X128488429Y-112653492D01*
X128488432Y-112653486D01*
X128545636Y-112440000D01*
X127648012Y-112440000D01*
X127680925Y-112382993D01*
X127715000Y-112255826D01*
X127715000Y-112124174D01*
X127680925Y-111997007D01*
X127648012Y-111940000D01*
X128545636Y-111940000D01*
X128545635Y-111939999D01*
X128488432Y-111726513D01*
X128488429Y-111726507D01*
X128388600Y-111512422D01*
X128388599Y-111512420D01*
X128253113Y-111318926D01*
X128253108Y-111318920D01*
X128086078Y-111151890D01*
X127900405Y-111021879D01*
X127856780Y-110967302D01*
X127849588Y-110897804D01*
X127881110Y-110835449D01*
X127900406Y-110818730D01*
X127900842Y-110818425D01*
X128086401Y-110688495D01*
X128253495Y-110521401D01*
X128301127Y-110453376D01*
X128355704Y-110409751D01*
X128402701Y-110400500D01*
X138062299Y-110400500D01*
X138129338Y-110420185D01*
G37*
%TD.AperFunction*%
%TA.AperFunction,Conductor*%
G36*
X126749075Y-111997007D02*
G01*
X126715000Y-112124174D01*
X126715000Y-112255826D01*
X126749075Y-112382993D01*
X126781988Y-112440000D01*
X125108012Y-112440000D01*
X125140925Y-112382993D01*
X125175000Y-112255826D01*
X125175000Y-112124174D01*
X125140925Y-111997007D01*
X125108012Y-111940000D01*
X126781988Y-111940000D01*
X126749075Y-111997007D01*
G37*
%TD.AperFunction*%
%TA.AperFunction,Conductor*%
G36*
X151479809Y-51750185D02*
G01*
X151500451Y-51766819D01*
X153238181Y-53504548D01*
X153271666Y-53565871D01*
X153274500Y-53592229D01*
X153274500Y-53892819D01*
X153254815Y-53959858D01*
X153224812Y-53992085D01*
X153117452Y-54072455D01*
X153031206Y-54187664D01*
X153031202Y-54187671D01*
X152980908Y-54322517D01*
X152974501Y-54382116D01*
X152974500Y-54382135D01*
X152974500Y-55577870D01*
X152974501Y-55577876D01*
X152980908Y-55637483D01*
X153031202Y-55772328D01*
X153031206Y-55772335D01*
X153117452Y-55887544D01*
X153117455Y-55887547D01*
X153232664Y-55973793D01*
X153232671Y-55973797D01*
X153367517Y-56024091D01*
X153367516Y-56024091D01*
X153374444Y-56024835D01*
X153427127Y-56030500D01*
X154622872Y-56030499D01*
X154682483Y-56024091D01*
X154817331Y-55973796D01*
X154932546Y-55887546D01*
X155012914Y-55780188D01*
X155068847Y-55738318D01*
X155112180Y-55730500D01*
X159217299Y-55730500D01*
X159284338Y-55750185D01*
X159318873Y-55783376D01*
X159366505Y-55851401D01*
X159488818Y-55973714D01*
X159522303Y-56035037D01*
X159517319Y-56104729D01*
X159475447Y-56160662D01*
X159444471Y-56177577D01*
X159312912Y-56226646D01*
X159312906Y-56226649D01*
X159197812Y-56312809D01*
X159197809Y-56312812D01*
X159111649Y-56427906D01*
X159111645Y-56427913D01*
X159061403Y-56562620D01*
X159061401Y-56562627D01*
X159055000Y-56622155D01*
X159055000Y-57270000D01*
X159971988Y-57270000D01*
X159939075Y-57327007D01*
X159905000Y-57454174D01*
X159905000Y-57585826D01*
X159939075Y-57712993D01*
X159971988Y-57770000D01*
X159055000Y-57770000D01*
X159055000Y-58417844D01*
X159061401Y-58477372D01*
X159061403Y-58477379D01*
X159111645Y-58612086D01*
X159111649Y-58612093D01*
X159197809Y-58727187D01*
X159197812Y-58727190D01*
X159312906Y-58813350D01*
X159312913Y-58813354D01*
X159447620Y-58863596D01*
X159447627Y-58863598D01*
X159507155Y-58869999D01*
X159507172Y-58870000D01*
X160155000Y-58870000D01*
X160155000Y-57953012D01*
X160212007Y-57985925D01*
X160339174Y-58020000D01*
X160470826Y-58020000D01*
X160597993Y-57985925D01*
X160655000Y-57953012D01*
X160655000Y-58870000D01*
X161302828Y-58870000D01*
X161302844Y-58869999D01*
X161362372Y-58863598D01*
X161362379Y-58863596D01*
X161497086Y-58813354D01*
X161497093Y-58813350D01*
X161612187Y-58727190D01*
X161612190Y-58727187D01*
X161698350Y-58612093D01*
X161698354Y-58612086D01*
X161747422Y-58480529D01*
X161789293Y-58424595D01*
X161854757Y-58400178D01*
X161923030Y-58415030D01*
X161951282Y-58436178D01*
X162073599Y-58558495D01*
X162141623Y-58606125D01*
X162185248Y-58660701D01*
X162194500Y-58707700D01*
X162194500Y-59268918D01*
X162194500Y-59268920D01*
X162194499Y-59268920D01*
X162223340Y-59413907D01*
X162223343Y-59413917D01*
X162279913Y-59550490D01*
X162279919Y-59550501D01*
X162294918Y-59572947D01*
X162294919Y-59572951D01*
X162294921Y-59572951D01*
X162362051Y-59673420D01*
X164521578Y-61832947D01*
X164521585Y-61832953D01*
X164592741Y-61880497D01*
X164592743Y-61880498D01*
X164592746Y-61880500D01*
X164644505Y-61915084D01*
X164781087Y-61971658D01*
X164781091Y-61971658D01*
X164781092Y-61971659D01*
X164926079Y-62000500D01*
X164926082Y-62000500D01*
X164926083Y-62000500D01*
X165073917Y-62000500D01*
X168737770Y-62000500D01*
X168804809Y-62020185D01*
X168825451Y-62036819D01*
X170863181Y-64074548D01*
X170896666Y-64135871D01*
X170899500Y-64162229D01*
X170899500Y-78912769D01*
X170879815Y-78979808D01*
X170863181Y-79000450D01*
X170768584Y-79095047D01*
X170707261Y-79128532D01*
X170637569Y-79123548D01*
X170581636Y-79081676D01*
X170557375Y-79018174D01*
X170550063Y-78934592D01*
X170488903Y-78706337D01*
X170389035Y-78492171D01*
X170338151Y-78419500D01*
X170253494Y-78298597D01*
X170086402Y-78131506D01*
X170086396Y-78131501D01*
X169900842Y-78001575D01*
X169857217Y-77946998D01*
X169850023Y-77877500D01*
X169881546Y-77815145D01*
X169900842Y-77798425D01*
X169923026Y-77782891D01*
X170086401Y-77668495D01*
X170253495Y-77501401D01*
X170389035Y-77307830D01*
X170488903Y-77093663D01*
X170550063Y-76865408D01*
X170570659Y-76630000D01*
X170550063Y-76394592D01*
X170488903Y-76166337D01*
X170389035Y-75952171D01*
X170338151Y-75879500D01*
X170253494Y-75758597D01*
X170086402Y-75591506D01*
X170086396Y-75591501D01*
X169900842Y-75461575D01*
X169857217Y-75406998D01*
X169850023Y-75337500D01*
X169881546Y-75275145D01*
X169900842Y-75258425D01*
X169923026Y-75242891D01*
X170086401Y-75128495D01*
X170253495Y-74961401D01*
X170389035Y-74767830D01*
X170488903Y-74553663D01*
X170550063Y-74325408D01*
X170570659Y-74090000D01*
X170550063Y-73854592D01*
X170488903Y-73626337D01*
X170389035Y-73412171D01*
X170338151Y-73339500D01*
X170253494Y-73218597D01*
X170086402Y-73051506D01*
X170086396Y-73051501D01*
X169900842Y-72921575D01*
X169857217Y-72866998D01*
X169850023Y-72797500D01*
X169881546Y-72735145D01*
X169900842Y-72718425D01*
X169923026Y-72702891D01*
X170086401Y-72588495D01*
X170253495Y-72421401D01*
X170389035Y-72227830D01*
X170488903Y-72013663D01*
X170550063Y-71785408D01*
X170570659Y-71550000D01*
X170550063Y-71314592D01*
X170488903Y-71086337D01*
X170389035Y-70872171D01*
X170338151Y-70799500D01*
X170253494Y-70678597D01*
X170086402Y-70511506D01*
X170086401Y-70511505D01*
X169900405Y-70381269D01*
X169856781Y-70326692D01*
X169849588Y-70257193D01*
X169881110Y-70194839D01*
X169900405Y-70178119D01*
X170086082Y-70048105D01*
X170253105Y-69881082D01*
X170388600Y-69687578D01*
X170488429Y-69473492D01*
X170488432Y-69473486D01*
X170545636Y-69260000D01*
X169648012Y-69260000D01*
X169680925Y-69202993D01*
X169715000Y-69075826D01*
X169715000Y-68944174D01*
X169680925Y-68817007D01*
X169648012Y-68760000D01*
X170545636Y-68760000D01*
X170545635Y-68759999D01*
X170488432Y-68546513D01*
X170488429Y-68546507D01*
X170388600Y-68332422D01*
X170388599Y-68332420D01*
X170253113Y-68138926D01*
X170253108Y-68138920D01*
X170086082Y-67971894D01*
X169899968Y-67841575D01*
X169856344Y-67786998D01*
X169849151Y-67717499D01*
X169880673Y-67655145D01*
X169899968Y-67638425D01*
X170086082Y-67508105D01*
X170253105Y-67341082D01*
X170388600Y-67147578D01*
X170488429Y-66933492D01*
X170488432Y-66933486D01*
X170545636Y-66720000D01*
X169648012Y-66720000D01*
X169680925Y-66662993D01*
X169715000Y-66535826D01*
X169715000Y-66404174D01*
X169680925Y-66277007D01*
X169648012Y-66220000D01*
X170545636Y-66220000D01*
X170545635Y-66219999D01*
X170488432Y-66006513D01*
X170488429Y-66006507D01*
X170388600Y-65792422D01*
X170388599Y-65792420D01*
X170253113Y-65598926D01*
X170253108Y-65598920D01*
X170086082Y-65431894D01*
X169892578Y-65296399D01*
X169678492Y-65196570D01*
X169678486Y-65196567D01*
X169465000Y-65139364D01*
X169465000Y-66036988D01*
X169407993Y-66004075D01*
X169280826Y-65970000D01*
X169149174Y-65970000D01*
X169022007Y-66004075D01*
X168965000Y-66036988D01*
X168965000Y-65139364D01*
X168964999Y-65139364D01*
X168751513Y-65196567D01*
X168751507Y-65196570D01*
X168537422Y-65296399D01*
X168537420Y-65296400D01*
X168343926Y-65431886D01*
X168343920Y-65431891D01*
X168176891Y-65598920D01*
X168176890Y-65598922D01*
X168046575Y-65785031D01*
X167991998Y-65828655D01*
X167922499Y-65835848D01*
X167860145Y-65804326D01*
X167843425Y-65785031D01*
X167713109Y-65598922D01*
X167713108Y-65598920D01*
X167546082Y-65431894D01*
X167352578Y-65296399D01*
X167138492Y-65196570D01*
X167138486Y-65196567D01*
X166925000Y-65139364D01*
X166925000Y-66036988D01*
X166867993Y-66004075D01*
X166740826Y-65970000D01*
X166609174Y-65970000D01*
X166482007Y-66004075D01*
X166425000Y-66036988D01*
X166425000Y-65139364D01*
X166424999Y-65139364D01*
X166211513Y-65196567D01*
X166211507Y-65196570D01*
X165997422Y-65296399D01*
X165997420Y-65296400D01*
X165803926Y-65431886D01*
X165803920Y-65431891D01*
X165636891Y-65598920D01*
X165636886Y-65598926D01*
X165501400Y-65792420D01*
X165501399Y-65792422D01*
X165401570Y-66006507D01*
X165401567Y-66006513D01*
X165344364Y-66219999D01*
X165344364Y-66220000D01*
X166241988Y-66220000D01*
X166209075Y-66277007D01*
X166175000Y-66404174D01*
X166175000Y-66535826D01*
X166209075Y-66662993D01*
X166241988Y-66720000D01*
X165344364Y-66720000D01*
X165401567Y-66933486D01*
X165401570Y-66933492D01*
X165501399Y-67147578D01*
X165636894Y-67341082D01*
X165803917Y-67508105D01*
X165990031Y-67638425D01*
X166033656Y-67693003D01*
X166040848Y-67762501D01*
X166009326Y-67824856D01*
X165990031Y-67841575D01*
X165803922Y-67971890D01*
X165803920Y-67971891D01*
X165636891Y-68138920D01*
X165636886Y-68138926D01*
X165501400Y-68332420D01*
X165501399Y-68332422D01*
X165401570Y-68546507D01*
X165401567Y-68546513D01*
X165344364Y-68759999D01*
X165344364Y-68760000D01*
X166241988Y-68760000D01*
X166209075Y-68817007D01*
X166175000Y-68944174D01*
X166175000Y-69075826D01*
X166209075Y-69202993D01*
X166241988Y-69260000D01*
X165344364Y-69260000D01*
X165401567Y-69473486D01*
X165401570Y-69473492D01*
X165501399Y-69687578D01*
X165636894Y-69881082D01*
X165803917Y-70048105D01*
X165989595Y-70178119D01*
X166033219Y-70232696D01*
X166040412Y-70302195D01*
X166008890Y-70364549D01*
X165989595Y-70381269D01*
X165803594Y-70511508D01*
X165636506Y-70678596D01*
X165588874Y-70746623D01*
X165534297Y-70790248D01*
X165487299Y-70799500D01*
X155677701Y-70799500D01*
X155610662Y-70779815D01*
X155576126Y-70746623D01*
X155528494Y-70678597D01*
X155361402Y-70511506D01*
X155361401Y-70511505D01*
X155175405Y-70381269D01*
X155131781Y-70326692D01*
X155124588Y-70257193D01*
X155156110Y-70194839D01*
X155175405Y-70178119D01*
X155251373Y-70124925D01*
X154619409Y-69492962D01*
X154682993Y-69475925D01*
X154797007Y-69410099D01*
X154890099Y-69317007D01*
X154955925Y-69202993D01*
X154972962Y-69139410D01*
X155604925Y-69771373D01*
X155604926Y-69771373D01*
X155663598Y-69687582D01*
X155663600Y-69687578D01*
X155763429Y-69473492D01*
X155763433Y-69473483D01*
X155824567Y-69245326D01*
X155824569Y-69245315D01*
X155845157Y-69010001D01*
X155845157Y-69009998D01*
X155824569Y-68774684D01*
X155824567Y-68774673D01*
X155763433Y-68546516D01*
X155763429Y-68546507D01*
X155663600Y-68332423D01*
X155663599Y-68332421D01*
X155604925Y-68248626D01*
X155604925Y-68248625D01*
X154972962Y-68880589D01*
X154955925Y-68817007D01*
X154890099Y-68702993D01*
X154797007Y-68609901D01*
X154682993Y-68544075D01*
X154619410Y-68527037D01*
X155251373Y-67895073D01*
X155174969Y-67841576D01*
X155131344Y-67786999D01*
X155124150Y-67717501D01*
X155155672Y-67655146D01*
X155174968Y-67638425D01*
X155251373Y-67584925D01*
X154619409Y-66952962D01*
X154682993Y-66935925D01*
X154797007Y-66870099D01*
X154890099Y-66777007D01*
X154955925Y-66662993D01*
X154972962Y-66599410D01*
X155604925Y-67231373D01*
X155604926Y-67231373D01*
X155663598Y-67147582D01*
X155663600Y-67147578D01*
X155763429Y-66933492D01*
X155763433Y-66933483D01*
X155824567Y-66705326D01*
X155824569Y-66705315D01*
X155845157Y-66470001D01*
X155845157Y-66469998D01*
X155824569Y-66234684D01*
X155824567Y-66234673D01*
X155763433Y-66006516D01*
X155763429Y-66006507D01*
X155663600Y-65792423D01*
X155663599Y-65792421D01*
X155604925Y-65708626D01*
X155604925Y-65708625D01*
X154972962Y-66340589D01*
X154955925Y-66277007D01*
X154890099Y-66162993D01*
X154797007Y-66069901D01*
X154682993Y-66004075D01*
X154619410Y-65987037D01*
X155251373Y-65355073D01*
X155251373Y-65355072D01*
X155167583Y-65296402D01*
X155167579Y-65296400D01*
X154953492Y-65196570D01*
X154953483Y-65196566D01*
X154725326Y-65135432D01*
X154725315Y-65135430D01*
X154490002Y-65114843D01*
X154489998Y-65114843D01*
X154254684Y-65135430D01*
X154254673Y-65135432D01*
X154026516Y-65196566D01*
X154026507Y-65196570D01*
X153812419Y-65296401D01*
X153728625Y-65355072D01*
X154360590Y-65987037D01*
X154297007Y-66004075D01*
X154182993Y-66069901D01*
X154089901Y-66162993D01*
X154024075Y-66277007D01*
X154007037Y-66340589D01*
X153375073Y-65708625D01*
X153375072Y-65708625D01*
X153316401Y-65792419D01*
X153216570Y-66006507D01*
X153216566Y-66006516D01*
X153155432Y-66234673D01*
X153155430Y-66234684D01*
X153134843Y-66469998D01*
X153134843Y-66470001D01*
X153155430Y-66705315D01*
X153155432Y-66705326D01*
X153216566Y-66933483D01*
X153216570Y-66933492D01*
X153316400Y-67147579D01*
X153316402Y-67147583D01*
X153375072Y-67231373D01*
X153375073Y-67231373D01*
X154007037Y-66599409D01*
X154024075Y-66662993D01*
X154089901Y-66777007D01*
X154182993Y-66870099D01*
X154297007Y-66935925D01*
X154360590Y-66952962D01*
X153728625Y-67584925D01*
X153805031Y-67638425D01*
X153848655Y-67693002D01*
X153855848Y-67762501D01*
X153824326Y-67824855D01*
X153805029Y-67841576D01*
X153728625Y-67895072D01*
X154360590Y-68527037D01*
X154297007Y-68544075D01*
X154182993Y-68609901D01*
X154089901Y-68702993D01*
X154024075Y-68817007D01*
X154007037Y-68880589D01*
X153375073Y-68248625D01*
X153375072Y-68248625D01*
X153316401Y-68332419D01*
X153216570Y-68546507D01*
X153216566Y-68546516D01*
X153155432Y-68774673D01*
X153155430Y-68774684D01*
X153134843Y-69009998D01*
X153134843Y-69010001D01*
X153155430Y-69245315D01*
X153155432Y-69245326D01*
X153216566Y-69473483D01*
X153216570Y-69473492D01*
X153316400Y-69687579D01*
X153316402Y-69687583D01*
X153375072Y-69771373D01*
X153375073Y-69771373D01*
X154007037Y-69139409D01*
X154024075Y-69202993D01*
X154089901Y-69317007D01*
X154182993Y-69410099D01*
X154297007Y-69475925D01*
X154360590Y-69492962D01*
X153728625Y-70124925D01*
X153804594Y-70178119D01*
X153848219Y-70232696D01*
X153855413Y-70302194D01*
X153823890Y-70364549D01*
X153804595Y-70381269D01*
X153618594Y-70511508D01*
X153451506Y-70678596D01*
X153403874Y-70746623D01*
X153349297Y-70790248D01*
X153302299Y-70799500D01*
X150557229Y-70799500D01*
X150490190Y-70779815D01*
X150469548Y-70763181D01*
X138421819Y-58715451D01*
X138388334Y-58654128D01*
X138385500Y-58627770D01*
X138385500Y-57757700D01*
X138405185Y-57690661D01*
X138438375Y-57656126D01*
X138506401Y-57608495D01*
X138673495Y-57441401D01*
X138803730Y-57255405D01*
X138858307Y-57211781D01*
X138927805Y-57204587D01*
X138990160Y-57236110D01*
X139006879Y-57255405D01*
X139136890Y-57441078D01*
X139303917Y-57608105D01*
X139497421Y-57743600D01*
X139711507Y-57843429D01*
X139711516Y-57843433D01*
X139925000Y-57900634D01*
X139925000Y-57003012D01*
X139982007Y-57035925D01*
X140109174Y-57070000D01*
X140240826Y-57070000D01*
X140367993Y-57035925D01*
X140425000Y-57003012D01*
X140425000Y-57900633D01*
X140638483Y-57843433D01*
X140638492Y-57843429D01*
X140852578Y-57743600D01*
X141046082Y-57608105D01*
X141174187Y-57480000D01*
X152969919Y-57480000D01*
X152990191Y-57685834D01*
X153050233Y-57883766D01*
X153125975Y-58025469D01*
X153125976Y-58025469D01*
X153650000Y-57501446D01*
X153650000Y-57529370D01*
X153675556Y-57624745D01*
X153724925Y-57710255D01*
X153794745Y-57780075D01*
X153880255Y-57829444D01*
X153975630Y-57855000D01*
X154003553Y-57855000D01*
X153479528Y-58379023D01*
X153621233Y-58454766D01*
X153819165Y-58514808D01*
X154025000Y-58535080D01*
X154230834Y-58514808D01*
X154428764Y-58454766D01*
X154570470Y-58379022D01*
X154046448Y-57855000D01*
X154074370Y-57855000D01*
X154169745Y-57829444D01*
X154255255Y-57780075D01*
X154325075Y-57710255D01*
X154374444Y-57624745D01*
X154400000Y-57529370D01*
X154400000Y-57501447D01*
X154924022Y-58025469D01*
X154999766Y-57883764D01*
X155059808Y-57685834D01*
X155080080Y-57480000D01*
X155059808Y-57274165D01*
X154999766Y-57076233D01*
X154924023Y-56934528D01*
X154400000Y-57458551D01*
X154400000Y-57430630D01*
X154374444Y-57335255D01*
X154325075Y-57249745D01*
X154255255Y-57179925D01*
X154169745Y-57130556D01*
X154074370Y-57105000D01*
X154046448Y-57105000D01*
X154570469Y-56580976D01*
X154570469Y-56580975D01*
X154428766Y-56505233D01*
X154230834Y-56445191D01*
X154025000Y-56424919D01*
X153819166Y-56445191D01*
X153621234Y-56505234D01*
X153479529Y-56580975D01*
X153479529Y-56580976D01*
X154003553Y-57105000D01*
X153975630Y-57105000D01*
X153880255Y-57130556D01*
X153794745Y-57179925D01*
X153724925Y-57249745D01*
X153675556Y-57335255D01*
X153650000Y-57430630D01*
X153650000Y-57458552D01*
X153125976Y-56934529D01*
X153125975Y-56934529D01*
X153050234Y-57076234D01*
X152990191Y-57274166D01*
X152969919Y-57480000D01*
X141174187Y-57480000D01*
X141213105Y-57441082D01*
X141348600Y-57247578D01*
X141448429Y-57033492D01*
X141448432Y-57033486D01*
X141505636Y-56820000D01*
X140608012Y-56820000D01*
X140640925Y-56762993D01*
X140675000Y-56635826D01*
X140675000Y-56504174D01*
X140640925Y-56377007D01*
X140608012Y-56320000D01*
X141505636Y-56320000D01*
X141505635Y-56319999D01*
X141448432Y-56106513D01*
X141448429Y-56106507D01*
X141348600Y-55892422D01*
X141348599Y-55892420D01*
X141213113Y-55698926D01*
X141213108Y-55698920D01*
X141046082Y-55531894D01*
X140859968Y-55401575D01*
X140816344Y-55346998D01*
X140809151Y-55277499D01*
X140840673Y-55215145D01*
X140859968Y-55198425D01*
X141046082Y-55068105D01*
X141213105Y-54901082D01*
X141348600Y-54707578D01*
X141448429Y-54493492D01*
X141448432Y-54493486D01*
X141505636Y-54280000D01*
X140608012Y-54280000D01*
X140640925Y-54222993D01*
X140675000Y-54095826D01*
X140675000Y-53964174D01*
X140640925Y-53837007D01*
X140608012Y-53780000D01*
X141505636Y-53780000D01*
X141505635Y-53779999D01*
X141448432Y-53566513D01*
X141448429Y-53566507D01*
X141348600Y-53352422D01*
X141348599Y-53352420D01*
X141213113Y-53158926D01*
X141213108Y-53158920D01*
X141046082Y-52991894D01*
X140852578Y-52856399D01*
X140638492Y-52756570D01*
X140638486Y-52756567D01*
X140425000Y-52699364D01*
X140425000Y-53596988D01*
X140367993Y-53564075D01*
X140240826Y-53530000D01*
X140109174Y-53530000D01*
X139982007Y-53564075D01*
X139925000Y-53596988D01*
X139925000Y-52699364D01*
X139924999Y-52699364D01*
X139711513Y-52756567D01*
X139711507Y-52756570D01*
X139497422Y-52856399D01*
X139497420Y-52856400D01*
X139303926Y-52991886D01*
X139303920Y-52991891D01*
X139136891Y-53158920D01*
X139136890Y-53158922D01*
X139006880Y-53344595D01*
X138952303Y-53388219D01*
X138882804Y-53395412D01*
X138820450Y-53363890D01*
X138803730Y-53344594D01*
X138673494Y-53158597D01*
X138506404Y-52991507D01*
X138438375Y-52943872D01*
X138394751Y-52889294D01*
X138385500Y-52842298D01*
X138385500Y-52732230D01*
X138405185Y-52665191D01*
X138421819Y-52644549D01*
X139299549Y-51766819D01*
X139360872Y-51733334D01*
X139387230Y-51730500D01*
X151412770Y-51730500D01*
X151479809Y-51750185D01*
G37*
%TD.AperFunction*%
%TA.AperFunction,Conductor*%
G36*
X168749075Y-68817007D02*
G01*
X168715000Y-68944174D01*
X168715000Y-69075826D01*
X168749075Y-69202993D01*
X168781988Y-69260000D01*
X167108012Y-69260000D01*
X167140925Y-69202993D01*
X167175000Y-69075826D01*
X167175000Y-68944174D01*
X167140925Y-68817007D01*
X167108012Y-68760000D01*
X168781988Y-68760000D01*
X168749075Y-68817007D01*
G37*
%TD.AperFunction*%
%TA.AperFunction,Conductor*%
G36*
X166925000Y-68576988D02*
G01*
X166867993Y-68544075D01*
X166740826Y-68510000D01*
X166609174Y-68510000D01*
X166482007Y-68544075D01*
X166425000Y-68576988D01*
X166425000Y-66903012D01*
X166482007Y-66935925D01*
X166609174Y-66970000D01*
X166740826Y-66970000D01*
X166867993Y-66935925D01*
X166925000Y-66903012D01*
X166925000Y-68576988D01*
G37*
%TD.AperFunction*%
%TA.AperFunction,Conductor*%
G36*
X169465000Y-68576988D02*
G01*
X169407993Y-68544075D01*
X169280826Y-68510000D01*
X169149174Y-68510000D01*
X169022007Y-68544075D01*
X168965000Y-68576988D01*
X168965000Y-66903012D01*
X169022007Y-66935925D01*
X169149174Y-66970000D01*
X169280826Y-66970000D01*
X169407993Y-66935925D01*
X169465000Y-66903012D01*
X169465000Y-68576988D01*
G37*
%TD.AperFunction*%
%TA.AperFunction,Conductor*%
G36*
X168749075Y-66277007D02*
G01*
X168715000Y-66404174D01*
X168715000Y-66535826D01*
X168749075Y-66662993D01*
X168781988Y-66720000D01*
X167108012Y-66720000D01*
X167140925Y-66662993D01*
X167175000Y-66535826D01*
X167175000Y-66404174D01*
X167140925Y-66277007D01*
X167108012Y-66220000D01*
X168781988Y-66220000D01*
X168749075Y-66277007D01*
G37*
%TD.AperFunction*%
%TA.AperFunction,Conductor*%
G36*
X140425000Y-56136988D02*
G01*
X140367993Y-56104075D01*
X140240826Y-56070000D01*
X140109174Y-56070000D01*
X139982007Y-56104075D01*
X139925000Y-56136988D01*
X139925000Y-54463012D01*
X139982007Y-54495925D01*
X140109174Y-54530000D01*
X140240826Y-54530000D01*
X140367993Y-54495925D01*
X140425000Y-54463012D01*
X140425000Y-56136988D01*
G37*
%TD.AperFunction*%
%TA.AperFunction,Conductor*%
G36*
X180217539Y-46500185D02*
G01*
X180263294Y-46552989D01*
X180274500Y-46604500D01*
X180274500Y-130355500D01*
X180254815Y-130422539D01*
X180202011Y-130468294D01*
X180150500Y-130479500D01*
X113399500Y-130479500D01*
X113332461Y-130459815D01*
X113286706Y-130407011D01*
X113275500Y-130355500D01*
X113275500Y-69873920D01*
X115974499Y-69873920D01*
X116003340Y-70018907D01*
X116003343Y-70018917D01*
X116059913Y-70155490D01*
X116059914Y-70155491D01*
X116059916Y-70155495D01*
X116078985Y-70184033D01*
X116078986Y-70184035D01*
X116142051Y-70278420D01*
X116142052Y-70278421D01*
X120536580Y-74672948D01*
X120536584Y-74672951D01*
X120659498Y-74755080D01*
X120659511Y-74755087D01*
X120796082Y-74811656D01*
X120796087Y-74811658D01*
X120796091Y-74811658D01*
X120796092Y-74811659D01*
X120941079Y-74840500D01*
X120941082Y-74840500D01*
X121088917Y-74840500D01*
X123487299Y-74840500D01*
X123554338Y-74860185D01*
X123588873Y-74893376D01*
X123636505Y-74961401D01*
X123803597Y-75128493D01*
X123803603Y-75128498D01*
X123989158Y-75258425D01*
X124032783Y-75313002D01*
X124039977Y-75382500D01*
X124008454Y-75444855D01*
X123989158Y-75461575D01*
X123803597Y-75591505D01*
X123636505Y-75758597D01*
X123500965Y-75952169D01*
X123500964Y-75952171D01*
X123401098Y-76166335D01*
X123401094Y-76166344D01*
X123339938Y-76394586D01*
X123339936Y-76394596D01*
X123319341Y-76629999D01*
X123319341Y-76630000D01*
X123339936Y-76865403D01*
X123339938Y-76865413D01*
X123401094Y-77093655D01*
X123401096Y-77093659D01*
X123401097Y-77093663D01*
X123500965Y-77307830D01*
X123500967Y-77307834D01*
X123636501Y-77501395D01*
X123636506Y-77501402D01*
X123803597Y-77668493D01*
X123803603Y-77668498D01*
X123989158Y-77798425D01*
X124032783Y-77853002D01*
X124039977Y-77922500D01*
X124008454Y-77984855D01*
X123989158Y-78001575D01*
X123803597Y-78131505D01*
X123636505Y-78298597D01*
X123500965Y-78492169D01*
X123500964Y-78492171D01*
X123401098Y-78706335D01*
X123401094Y-78706344D01*
X123339938Y-78934586D01*
X123339936Y-78934596D01*
X123319341Y-79169999D01*
X123319341Y-79170000D01*
X123339936Y-79405403D01*
X123339938Y-79405413D01*
X123401094Y-79633655D01*
X123401096Y-79633659D01*
X123401097Y-79633663D01*
X123500965Y-79847830D01*
X123500967Y-79847834D01*
X123636501Y-80041395D01*
X123636506Y-80041402D01*
X123803597Y-80208493D01*
X123803603Y-80208498D01*
X123989158Y-80338425D01*
X124032783Y-80393002D01*
X124039977Y-80462500D01*
X124008454Y-80524855D01*
X123989158Y-80541575D01*
X123803597Y-80671505D01*
X123636505Y-80838597D01*
X123500965Y-81032169D01*
X123500964Y-81032171D01*
X123401098Y-81246335D01*
X123401094Y-81246344D01*
X123339938Y-81474586D01*
X123339936Y-81474596D01*
X123319341Y-81709999D01*
X123319341Y-81710000D01*
X123339936Y-81945403D01*
X123339938Y-81945413D01*
X123401094Y-82173655D01*
X123401096Y-82173659D01*
X123401097Y-82173663D01*
X123500965Y-82387830D01*
X123500967Y-82387834D01*
X123636501Y-82581395D01*
X123636506Y-82581402D01*
X123803597Y-82748493D01*
X123803603Y-82748498D01*
X123989158Y-82878425D01*
X124032783Y-82933002D01*
X124039977Y-83002500D01*
X124008454Y-83064855D01*
X123989158Y-83081575D01*
X123803597Y-83211505D01*
X123636505Y-83378597D01*
X123500965Y-83572169D01*
X123500964Y-83572171D01*
X123401098Y-83786335D01*
X123401094Y-83786344D01*
X123339938Y-84014586D01*
X123339936Y-84014596D01*
X123319341Y-84249999D01*
X123319341Y-84250000D01*
X123339936Y-84485403D01*
X123339938Y-84485413D01*
X123401094Y-84713655D01*
X123401096Y-84713659D01*
X123401097Y-84713663D01*
X123500965Y-84927830D01*
X123500967Y-84927834D01*
X123636501Y-85121395D01*
X123636506Y-85121402D01*
X123803597Y-85288493D01*
X123803603Y-85288498D01*
X123989158Y-85418425D01*
X124032783Y-85473002D01*
X124039977Y-85542500D01*
X124008454Y-85604855D01*
X123989158Y-85621575D01*
X123803597Y-85751505D01*
X123636505Y-85918597D01*
X123500965Y-86112169D01*
X123500964Y-86112171D01*
X123401098Y-86326335D01*
X123401094Y-86326344D01*
X123339938Y-86554586D01*
X123339936Y-86554596D01*
X123319341Y-86789999D01*
X123319341Y-86790000D01*
X123339936Y-87025403D01*
X123339938Y-87025413D01*
X123401094Y-87253655D01*
X123401096Y-87253659D01*
X123401097Y-87253663D01*
X123500965Y-87467830D01*
X123500967Y-87467834D01*
X123636501Y-87661395D01*
X123636506Y-87661402D01*
X123803597Y-87828493D01*
X123803603Y-87828498D01*
X123989158Y-87958425D01*
X124032783Y-88013002D01*
X124039977Y-88082500D01*
X124008454Y-88144855D01*
X123989158Y-88161575D01*
X123803597Y-88291505D01*
X123636505Y-88458597D01*
X123500965Y-88652169D01*
X123500964Y-88652171D01*
X123401098Y-88866335D01*
X123401094Y-88866344D01*
X123339938Y-89094586D01*
X123339936Y-89094596D01*
X123319341Y-89329999D01*
X123319341Y-89330000D01*
X123339936Y-89565403D01*
X123339938Y-89565413D01*
X123401094Y-89793655D01*
X123401096Y-89793659D01*
X123401097Y-89793663D01*
X123500965Y-90007830D01*
X123500967Y-90007834D01*
X123636501Y-90201395D01*
X123636506Y-90201402D01*
X123803597Y-90368493D01*
X123803603Y-90368498D01*
X123989158Y-90498425D01*
X124032783Y-90553002D01*
X124039977Y-90622500D01*
X124008454Y-90684855D01*
X123989158Y-90701575D01*
X123803597Y-90831505D01*
X123636505Y-90998597D01*
X123500965Y-91192169D01*
X123500964Y-91192171D01*
X123401098Y-91406335D01*
X123401094Y-91406344D01*
X123339938Y-91634586D01*
X123339936Y-91634596D01*
X123319341Y-91869999D01*
X123339936Y-92105403D01*
X123339938Y-92105413D01*
X123401094Y-92333655D01*
X123401096Y-92333659D01*
X123401097Y-92333663D01*
X123500965Y-92547830D01*
X123500967Y-92547834D01*
X123636501Y-92741395D01*
X123636506Y-92741402D01*
X123803597Y-92908493D01*
X123803603Y-92908498D01*
X123989158Y-93038425D01*
X124032783Y-93093002D01*
X124039977Y-93162500D01*
X124008454Y-93224855D01*
X123989158Y-93241575D01*
X123803597Y-93371505D01*
X123636505Y-93538597D01*
X123500965Y-93732169D01*
X123500964Y-93732171D01*
X123401098Y-93946335D01*
X123401094Y-93946344D01*
X123339938Y-94174586D01*
X123339936Y-94174596D01*
X123319341Y-94409999D01*
X123319341Y-94410000D01*
X123339936Y-94645403D01*
X123339938Y-94645413D01*
X123401094Y-94873655D01*
X123401096Y-94873659D01*
X123401097Y-94873663D01*
X123479681Y-95042186D01*
X123500965Y-95087830D01*
X123500967Y-95087834D01*
X123636501Y-95281395D01*
X123636506Y-95281402D01*
X123803597Y-95448493D01*
X123803603Y-95448498D01*
X123989158Y-95578425D01*
X124032783Y-95633002D01*
X124039977Y-95702500D01*
X124008454Y-95764855D01*
X123989158Y-95781575D01*
X123803597Y-95911505D01*
X123636505Y-96078597D01*
X123500965Y-96272169D01*
X123500964Y-96272171D01*
X123401098Y-96486335D01*
X123401094Y-96486344D01*
X123339938Y-96714586D01*
X123339936Y-96714596D01*
X123319341Y-96949999D01*
X123319341Y-96950000D01*
X123339936Y-97185403D01*
X123339938Y-97185413D01*
X123401094Y-97413655D01*
X123401096Y-97413659D01*
X123401097Y-97413663D01*
X123500965Y-97627830D01*
X123500967Y-97627834D01*
X123636501Y-97821395D01*
X123636506Y-97821402D01*
X123803597Y-97988493D01*
X123803603Y-97988498D01*
X123989158Y-98118425D01*
X124032783Y-98173002D01*
X124039977Y-98242500D01*
X124008454Y-98304855D01*
X123989158Y-98321575D01*
X123803597Y-98451505D01*
X123636506Y-98618596D01*
X123588874Y-98686623D01*
X123534297Y-98730248D01*
X123487299Y-98739500D01*
X121391080Y-98739500D01*
X121246092Y-98768340D01*
X121246082Y-98768343D01*
X121109511Y-98824912D01*
X121109498Y-98824919D01*
X120986584Y-98907048D01*
X120986580Y-98907051D01*
X118342046Y-101551585D01*
X118332193Y-101566334D01*
X118332189Y-101566339D01*
X118259916Y-101674502D01*
X118259914Y-101674506D01*
X118203343Y-101811082D01*
X118203340Y-101811092D01*
X118174500Y-101956079D01*
X118174500Y-101956082D01*
X118174500Y-124603918D01*
X118174500Y-124603920D01*
X118174499Y-124603920D01*
X118203340Y-124748907D01*
X118203343Y-124748917D01*
X118259914Y-124885492D01*
X118259915Y-124885494D01*
X118259916Y-124885495D01*
X118284161Y-124921781D01*
X118292812Y-124934727D01*
X118292813Y-124934730D01*
X118342046Y-125008414D01*
X118342052Y-125008421D01*
X120946584Y-127612952D01*
X120946586Y-127612954D01*
X120976058Y-127632645D01*
X121020270Y-127662186D01*
X121069505Y-127695084D01*
X121069506Y-127695084D01*
X121069507Y-127695085D01*
X121069509Y-127695086D01*
X121206082Y-127751656D01*
X121206087Y-127751658D01*
X121206091Y-127751658D01*
X121206092Y-127751659D01*
X121351079Y-127780500D01*
X121351082Y-127780500D01*
X125748920Y-127780500D01*
X125846462Y-127761096D01*
X125893913Y-127751658D01*
X126030495Y-127695084D01*
X126079729Y-127662186D01*
X126079734Y-127662183D01*
X126104071Y-127645921D01*
X126153416Y-127612952D01*
X127797952Y-125968416D01*
X127847186Y-125894729D01*
X127880084Y-125845495D01*
X127936658Y-125708913D01*
X127946096Y-125661462D01*
X127965500Y-125563920D01*
X127965500Y-125467700D01*
X127985185Y-125400661D01*
X128018375Y-125366126D01*
X128086401Y-125318495D01*
X128253495Y-125151401D01*
X128383730Y-124965405D01*
X128438307Y-124921781D01*
X128507805Y-124914587D01*
X128570160Y-124946110D01*
X128586879Y-124965405D01*
X128716890Y-125151078D01*
X128883917Y-125318105D01*
X129077421Y-125453600D01*
X129291507Y-125553429D01*
X129291516Y-125553433D01*
X129505000Y-125610634D01*
X129505000Y-124713012D01*
X129562007Y-124745925D01*
X129689174Y-124780000D01*
X129820826Y-124780000D01*
X129947993Y-124745925D01*
X130005000Y-124713012D01*
X130005000Y-125610633D01*
X130218483Y-125553433D01*
X130218492Y-125553429D01*
X130432578Y-125453600D01*
X130626082Y-125318105D01*
X130793105Y-125151082D01*
X130923119Y-124965405D01*
X130977696Y-124921781D01*
X131047195Y-124914588D01*
X131109549Y-124946110D01*
X131126269Y-124965405D01*
X131256505Y-125151401D01*
X131423599Y-125318495D01*
X131520384Y-125386265D01*
X131617165Y-125454032D01*
X131617167Y-125454033D01*
X131617170Y-125454035D01*
X131831337Y-125553903D01*
X132059592Y-125615063D01*
X132236034Y-125630500D01*
X132294999Y-125635659D01*
X132295000Y-125635659D01*
X132295001Y-125635659D01*
X132353966Y-125630500D01*
X132530408Y-125615063D01*
X132758663Y-125553903D01*
X132972830Y-125454035D01*
X133166401Y-125318495D01*
X133333495Y-125151401D01*
X133469035Y-124957830D01*
X133568903Y-124743663D01*
X133630063Y-124515408D01*
X133650659Y-124280000D01*
X133630063Y-124044592D01*
X133568903Y-123816337D01*
X133469035Y-123602171D01*
X133463731Y-123594595D01*
X133333494Y-123408597D01*
X133166404Y-123241507D01*
X133098375Y-123193872D01*
X133054751Y-123139294D01*
X133045500Y-123092298D01*
X133045500Y-122047228D01*
X133065185Y-121980189D01*
X133081814Y-121959552D01*
X138938498Y-116102867D01*
X138999819Y-116069384D01*
X139036983Y-116067022D01*
X139179861Y-116079522D01*
X139249999Y-116085659D01*
X139250000Y-116085659D01*
X139250001Y-116085659D01*
X139285284Y-116082571D01*
X139463013Y-116067022D01*
X139531512Y-116080788D01*
X139561501Y-116102869D01*
X144967048Y-121508415D01*
X144967049Y-121508416D01*
X145069712Y-121611079D01*
X145071585Y-121612952D01*
X145194498Y-121695080D01*
X145194511Y-121695087D01*
X145331082Y-121751656D01*
X145331087Y-121751658D01*
X145331091Y-121751658D01*
X145331092Y-121751659D01*
X145476079Y-121780500D01*
X145476082Y-121780500D01*
X160312770Y-121780500D01*
X160379809Y-121800185D01*
X160400451Y-121816819D01*
X160768181Y-122184549D01*
X160801666Y-122245872D01*
X160804500Y-122272230D01*
X160804500Y-123092298D01*
X160784815Y-123159337D01*
X160751625Y-123193872D01*
X160683595Y-123241507D01*
X160516505Y-123408597D01*
X160380965Y-123602169D01*
X160380964Y-123602171D01*
X160281098Y-123816335D01*
X160281094Y-123816344D01*
X160219938Y-124044586D01*
X160219936Y-124044596D01*
X160199341Y-124279999D01*
X160199341Y-124280000D01*
X160219936Y-124515403D01*
X160219938Y-124515413D01*
X160281094Y-124743655D01*
X160281096Y-124743659D01*
X160281097Y-124743663D01*
X160360801Y-124914588D01*
X160380965Y-124957830D01*
X160380967Y-124957834D01*
X160489281Y-125112521D01*
X160516505Y-125151401D01*
X160683599Y-125318495D01*
X160780384Y-125386265D01*
X160877165Y-125454032D01*
X160877167Y-125454033D01*
X160877170Y-125454035D01*
X161091337Y-125553903D01*
X161319592Y-125615063D01*
X161496034Y-125630500D01*
X161554999Y-125635659D01*
X161555000Y-125635659D01*
X161555001Y-125635659D01*
X161613966Y-125630500D01*
X161790408Y-125615063D01*
X162018663Y-125553903D01*
X162232830Y-125454035D01*
X162426401Y-125318495D01*
X162593495Y-125151401D01*
X162723425Y-124965842D01*
X162778002Y-124922217D01*
X162847500Y-124915023D01*
X162909855Y-124946546D01*
X162926575Y-124965842D01*
X163056500Y-125151395D01*
X163056505Y-125151401D01*
X163223599Y-125318495D01*
X163320384Y-125386265D01*
X163417165Y-125454032D01*
X163417167Y-125454033D01*
X163417170Y-125454035D01*
X163631337Y-125553903D01*
X163859592Y-125615063D01*
X164036034Y-125630500D01*
X164094999Y-125635659D01*
X164095000Y-125635659D01*
X164095001Y-125635659D01*
X164153966Y-125630500D01*
X164330408Y-125615063D01*
X164558663Y-125553903D01*
X164772830Y-125454035D01*
X164966401Y-125318495D01*
X165133495Y-125151401D01*
X165263425Y-124965842D01*
X165318002Y-124922217D01*
X165387500Y-124915023D01*
X165449855Y-124946546D01*
X165466575Y-124965842D01*
X165596500Y-125151395D01*
X165596505Y-125151401D01*
X165763599Y-125318495D01*
X165860384Y-125386265D01*
X165957165Y-125454032D01*
X165957167Y-125454033D01*
X165957170Y-125454035D01*
X166171337Y-125553903D01*
X166399592Y-125615063D01*
X166576034Y-125630500D01*
X166634999Y-125635659D01*
X166635000Y-125635659D01*
X166635001Y-125635659D01*
X166693966Y-125630500D01*
X166870408Y-125615063D01*
X167098663Y-125553903D01*
X167312830Y-125454035D01*
X167506401Y-125318495D01*
X167628717Y-125196178D01*
X167690036Y-125162696D01*
X167759728Y-125167680D01*
X167815662Y-125209551D01*
X167832577Y-125240528D01*
X167881646Y-125372088D01*
X167881649Y-125372093D01*
X167967809Y-125487187D01*
X167967812Y-125487190D01*
X168082906Y-125573350D01*
X168082913Y-125573354D01*
X168217620Y-125623596D01*
X168217627Y-125623598D01*
X168277155Y-125629999D01*
X168277172Y-125630000D01*
X168925000Y-125630000D01*
X168925000Y-124713012D01*
X168982007Y-124745925D01*
X169109174Y-124780000D01*
X169240826Y-124780000D01*
X169367993Y-124745925D01*
X169425000Y-124713012D01*
X169425000Y-125630000D01*
X170072828Y-125630000D01*
X170072844Y-125629999D01*
X170132372Y-125623598D01*
X170132379Y-125623596D01*
X170267086Y-125573354D01*
X170267093Y-125573350D01*
X170382187Y-125487190D01*
X170382190Y-125487187D01*
X170468350Y-125372093D01*
X170468354Y-125372086D01*
X170518596Y-125237379D01*
X170518598Y-125237372D01*
X170524999Y-125177844D01*
X170525000Y-125177827D01*
X170525000Y-124530000D01*
X169608012Y-124530000D01*
X169640925Y-124472993D01*
X169675000Y-124345826D01*
X169675000Y-124214174D01*
X169640925Y-124087007D01*
X169608012Y-124030000D01*
X170525000Y-124030000D01*
X170525000Y-123382172D01*
X170524999Y-123382155D01*
X170518598Y-123322627D01*
X170518596Y-123322620D01*
X170468354Y-123187913D01*
X170468350Y-123187906D01*
X170382190Y-123072812D01*
X170382187Y-123072809D01*
X170267093Y-122986649D01*
X170267086Y-122986645D01*
X170132379Y-122936403D01*
X170132372Y-122936401D01*
X170072844Y-122930000D01*
X169425000Y-122930000D01*
X169425000Y-123846988D01*
X169367993Y-123814075D01*
X169240826Y-123780000D01*
X169109174Y-123780000D01*
X168982007Y-123814075D01*
X168925000Y-123846988D01*
X168925000Y-122930000D01*
X168277155Y-122930000D01*
X168217627Y-122936401D01*
X168217620Y-122936403D01*
X168082913Y-122986645D01*
X168082906Y-122986649D01*
X167967812Y-123072809D01*
X167967809Y-123072812D01*
X167881649Y-123187906D01*
X167881645Y-123187913D01*
X167832578Y-123319470D01*
X167790707Y-123375404D01*
X167725242Y-123399821D01*
X167656969Y-123384969D01*
X167628715Y-123363819D01*
X167583977Y-123319081D01*
X167506401Y-123241505D01*
X167468744Y-123215137D01*
X167438375Y-123193872D01*
X167394751Y-123139294D01*
X167385500Y-123092298D01*
X167385500Y-120166081D01*
X167379763Y-120137242D01*
X167379763Y-120137240D01*
X167365755Y-120066819D01*
X167356659Y-120021088D01*
X167302408Y-119890117D01*
X167300765Y-119885525D01*
X167300084Y-119884505D01*
X167267186Y-119835270D01*
X167267185Y-119835268D01*
X167217956Y-119761589D01*
X167217952Y-119761584D01*
X164403421Y-116947052D01*
X164403414Y-116947046D01*
X164329729Y-116897812D01*
X164329729Y-116897813D01*
X164280491Y-116864913D01*
X164143917Y-116808343D01*
X164143907Y-116808340D01*
X163998920Y-116779500D01*
X163998918Y-116779500D01*
X153787230Y-116779500D01*
X153720191Y-116759815D01*
X153699549Y-116743181D01*
X151711819Y-114755451D01*
X151678334Y-114694128D01*
X151675500Y-114667770D01*
X151675500Y-101392230D01*
X151695185Y-101325191D01*
X151711819Y-101304549D01*
X152739549Y-100276819D01*
X152800872Y-100243334D01*
X152827230Y-100240500D01*
X153302299Y-100240500D01*
X153369338Y-100260185D01*
X153403873Y-100293376D01*
X153451505Y-100361401D01*
X153618597Y-100528493D01*
X153618603Y-100528498D01*
X153804158Y-100658425D01*
X153847783Y-100713002D01*
X153854977Y-100782500D01*
X153823454Y-100844855D01*
X153804158Y-100861575D01*
X153618597Y-100991505D01*
X153451505Y-101158597D01*
X153315965Y-101352169D01*
X153315964Y-101352171D01*
X153216098Y-101566335D01*
X153216094Y-101566344D01*
X153154938Y-101794586D01*
X153154936Y-101794596D01*
X153134341Y-102029999D01*
X153134341Y-102030000D01*
X153154936Y-102265403D01*
X153154938Y-102265413D01*
X153216094Y-102493655D01*
X153216096Y-102493659D01*
X153216097Y-102493663D01*
X153300425Y-102674505D01*
X153315965Y-102707830D01*
X153315967Y-102707834D01*
X153451501Y-102901395D01*
X153451506Y-102901402D01*
X153618597Y-103068493D01*
X153618603Y-103068498D01*
X153804158Y-103198425D01*
X153847783Y-103253002D01*
X153854977Y-103322500D01*
X153823454Y-103384855D01*
X153804158Y-103401575D01*
X153618597Y-103531505D01*
X153451505Y-103698597D01*
X153315965Y-103892169D01*
X153315964Y-103892171D01*
X153216098Y-104106335D01*
X153216094Y-104106344D01*
X153154938Y-104334586D01*
X153154936Y-104334596D01*
X153134341Y-104569999D01*
X153134341Y-104570000D01*
X153154936Y-104805403D01*
X153154938Y-104805413D01*
X153216094Y-105033655D01*
X153216096Y-105033659D01*
X153216097Y-105033663D01*
X153315965Y-105247830D01*
X153315967Y-105247834D01*
X153451501Y-105441395D01*
X153451506Y-105441402D01*
X153618597Y-105608493D01*
X153618603Y-105608498D01*
X153804158Y-105738425D01*
X153847783Y-105793002D01*
X153854977Y-105862500D01*
X153823454Y-105924855D01*
X153804158Y-105941575D01*
X153618597Y-106071505D01*
X153451505Y-106238597D01*
X153315965Y-106432169D01*
X153315964Y-106432171D01*
X153216098Y-106646335D01*
X153216094Y-106646344D01*
X153154938Y-106874586D01*
X153154936Y-106874596D01*
X153134341Y-107109999D01*
X153134341Y-107110000D01*
X153154936Y-107345403D01*
X153154938Y-107345413D01*
X153216094Y-107573655D01*
X153216096Y-107573659D01*
X153216097Y-107573663D01*
X153315965Y-107787830D01*
X153315967Y-107787834D01*
X153451501Y-107981395D01*
X153451506Y-107981402D01*
X153618597Y-108148493D01*
X153618603Y-108148498D01*
X153804158Y-108278425D01*
X153847783Y-108333002D01*
X153854977Y-108402500D01*
X153823454Y-108464855D01*
X153804158Y-108481575D01*
X153618597Y-108611505D01*
X153451505Y-108778597D01*
X153315965Y-108972169D01*
X153315964Y-108972171D01*
X153216098Y-109186335D01*
X153216094Y-109186344D01*
X153154938Y-109414586D01*
X153154936Y-109414596D01*
X153134341Y-109649999D01*
X153134341Y-109650000D01*
X153154936Y-109885403D01*
X153154938Y-109885413D01*
X153216094Y-110113655D01*
X153216096Y-110113659D01*
X153216097Y-110113663D01*
X153315965Y-110327830D01*
X153315967Y-110327834D01*
X153451501Y-110521395D01*
X153451506Y-110521402D01*
X153618597Y-110688493D01*
X153618603Y-110688498D01*
X153804158Y-110818425D01*
X153847783Y-110873002D01*
X153854977Y-110942500D01*
X153823454Y-111004855D01*
X153804158Y-111021575D01*
X153618597Y-111151505D01*
X153451505Y-111318597D01*
X153315965Y-111512169D01*
X153315964Y-111512171D01*
X153216098Y-111726335D01*
X153216094Y-111726344D01*
X153154938Y-111954586D01*
X153154936Y-111954596D01*
X153134341Y-112189999D01*
X153134341Y-112190000D01*
X153154936Y-112425403D01*
X153154938Y-112425413D01*
X153216094Y-112653655D01*
X153216096Y-112653659D01*
X153216097Y-112653663D01*
X153295597Y-112824151D01*
X153315965Y-112867830D01*
X153315967Y-112867834D01*
X153451501Y-113061395D01*
X153451506Y-113061402D01*
X153618597Y-113228493D01*
X153618603Y-113228498D01*
X153804158Y-113358425D01*
X153847783Y-113413002D01*
X153854977Y-113482500D01*
X153823454Y-113544855D01*
X153804158Y-113561575D01*
X153618597Y-113691505D01*
X153451505Y-113858597D01*
X153315965Y-114052169D01*
X153315964Y-114052171D01*
X153216098Y-114266335D01*
X153216094Y-114266344D01*
X153154938Y-114494586D01*
X153154936Y-114494596D01*
X153134341Y-114729999D01*
X153134341Y-114730000D01*
X153154936Y-114965403D01*
X153154938Y-114965413D01*
X153216094Y-115193655D01*
X153216096Y-115193659D01*
X153216097Y-115193663D01*
X153315965Y-115407830D01*
X153451505Y-115601401D01*
X153618599Y-115768495D01*
X153715384Y-115836265D01*
X153812165Y-115904032D01*
X153812167Y-115904033D01*
X153812170Y-115904035D01*
X154026337Y-116003903D01*
X154254592Y-116065063D01*
X154442918Y-116081539D01*
X154489999Y-116085659D01*
X154490000Y-116085659D01*
X154490001Y-116085659D01*
X154529234Y-116082226D01*
X154725408Y-116065063D01*
X154953663Y-116003903D01*
X155167830Y-115904035D01*
X155361401Y-115768495D01*
X155528495Y-115601401D01*
X155576127Y-115533376D01*
X155630704Y-115489751D01*
X155677701Y-115480500D01*
X165200501Y-115480500D01*
X165267540Y-115500185D01*
X165313295Y-115552989D01*
X165324501Y-115604500D01*
X165324501Y-115627876D01*
X165330908Y-115687483D01*
X165381202Y-115822328D01*
X165381206Y-115822335D01*
X165467452Y-115937544D01*
X165467455Y-115937547D01*
X165582664Y-116023793D01*
X165582671Y-116023797D01*
X165717517Y-116074091D01*
X165717516Y-116074091D01*
X165724444Y-116074835D01*
X165777127Y-116080500D01*
X167572872Y-116080499D01*
X167632483Y-116074091D01*
X167767331Y-116023796D01*
X167882546Y-115937546D01*
X167968796Y-115822331D01*
X168017810Y-115690916D01*
X168059681Y-115634984D01*
X168125145Y-115610566D01*
X168193418Y-115625417D01*
X168221673Y-115646569D01*
X168343599Y-115768495D01*
X168440384Y-115836265D01*
X168537165Y-115904032D01*
X168537167Y-115904033D01*
X168537170Y-115904035D01*
X168751337Y-116003903D01*
X168979592Y-116065063D01*
X169167918Y-116081539D01*
X169214999Y-116085659D01*
X169215000Y-116085659D01*
X169215001Y-116085659D01*
X169254234Y-116082226D01*
X169450408Y-116065063D01*
X169678663Y-116003903D01*
X169892830Y-115904035D01*
X170086401Y-115768495D01*
X170253495Y-115601401D01*
X170389035Y-115407830D01*
X170488903Y-115193663D01*
X170550063Y-114965408D01*
X170570659Y-114730000D01*
X170550063Y-114494592D01*
X170488903Y-114266337D01*
X170389035Y-114052171D01*
X170338151Y-113979500D01*
X170253494Y-113858597D01*
X170086402Y-113691506D01*
X170086396Y-113691501D01*
X169900842Y-113561575D01*
X169857217Y-113506998D01*
X169850023Y-113437500D01*
X169881546Y-113375145D01*
X169900842Y-113358425D01*
X169963800Y-113314341D01*
X170086401Y-113228495D01*
X170253495Y-113061401D01*
X170389035Y-112867830D01*
X170488903Y-112653663D01*
X170550063Y-112425408D01*
X170570659Y-112190000D01*
X170550063Y-111954592D01*
X170488903Y-111726337D01*
X170389035Y-111512171D01*
X170338151Y-111439500D01*
X170253494Y-111318597D01*
X170086402Y-111151506D01*
X170086396Y-111151501D01*
X169900842Y-111021575D01*
X169857217Y-110966998D01*
X169850023Y-110897500D01*
X169881546Y-110835145D01*
X169900842Y-110818425D01*
X169923026Y-110802891D01*
X170086401Y-110688495D01*
X170253495Y-110521401D01*
X170389035Y-110327830D01*
X170488903Y-110113663D01*
X170550063Y-109885408D01*
X170570659Y-109650000D01*
X170550063Y-109414592D01*
X170488903Y-109186337D01*
X170389035Y-108972171D01*
X170338151Y-108899500D01*
X170253494Y-108778597D01*
X170086402Y-108611506D01*
X170086396Y-108611501D01*
X169900842Y-108481575D01*
X169857217Y-108426998D01*
X169850023Y-108357500D01*
X169881546Y-108295145D01*
X169900842Y-108278425D01*
X169923026Y-108262891D01*
X170086401Y-108148495D01*
X170253495Y-107981401D01*
X170389035Y-107787830D01*
X170488903Y-107573663D01*
X170550063Y-107345408D01*
X170570659Y-107110000D01*
X170550063Y-106874592D01*
X170488903Y-106646337D01*
X170389035Y-106432171D01*
X170338151Y-106359500D01*
X170253494Y-106238597D01*
X170086402Y-106071506D01*
X170086396Y-106071501D01*
X169900842Y-105941575D01*
X169857217Y-105886998D01*
X169850023Y-105817500D01*
X169881546Y-105755145D01*
X169900842Y-105738425D01*
X169923026Y-105722891D01*
X170086401Y-105608495D01*
X170253495Y-105441401D01*
X170389035Y-105247830D01*
X170488903Y-105033663D01*
X170550063Y-104805408D01*
X170570659Y-104570000D01*
X170550063Y-104334592D01*
X170488903Y-104106337D01*
X170389035Y-103892171D01*
X170338151Y-103819500D01*
X170253494Y-103698597D01*
X170086402Y-103531506D01*
X170086396Y-103531501D01*
X169900842Y-103401575D01*
X169857217Y-103346998D01*
X169850023Y-103277500D01*
X169881546Y-103215145D01*
X169900842Y-103198425D01*
X169923026Y-103182891D01*
X170086401Y-103068495D01*
X170253495Y-102901401D01*
X170389035Y-102707830D01*
X170488903Y-102493663D01*
X170550063Y-102265408D01*
X170570659Y-102030000D01*
X170550063Y-101794592D01*
X170488903Y-101566337D01*
X170389035Y-101352171D01*
X170381550Y-101341480D01*
X170253494Y-101158597D01*
X170086402Y-100991506D01*
X170086396Y-100991501D01*
X169900842Y-100861575D01*
X169857217Y-100806998D01*
X169850023Y-100737500D01*
X169881546Y-100675145D01*
X169900842Y-100658425D01*
X169948192Y-100625270D01*
X170086401Y-100528495D01*
X170253495Y-100361401D01*
X170389035Y-100167830D01*
X170488903Y-99953663D01*
X170550063Y-99725408D01*
X170570659Y-99490000D01*
X170550063Y-99254592D01*
X170488903Y-99026337D01*
X170389035Y-98812171D01*
X170388280Y-98811092D01*
X170253494Y-98618597D01*
X170086402Y-98451506D01*
X170086396Y-98451501D01*
X169900842Y-98321575D01*
X169857217Y-98266998D01*
X169850023Y-98197500D01*
X169881546Y-98135145D01*
X169900842Y-98118425D01*
X169923026Y-98102891D01*
X170086401Y-97988495D01*
X170253495Y-97821401D01*
X170389035Y-97627830D01*
X170488903Y-97413663D01*
X170550063Y-97185408D01*
X170570659Y-96950000D01*
X170550063Y-96714592D01*
X170488903Y-96486337D01*
X170389035Y-96272171D01*
X170358347Y-96228343D01*
X170253494Y-96078597D01*
X170086402Y-95911506D01*
X170086396Y-95911501D01*
X169900842Y-95781575D01*
X169857217Y-95726998D01*
X169850023Y-95657500D01*
X169881546Y-95595145D01*
X169900842Y-95578425D01*
X169923026Y-95562891D01*
X170086401Y-95448495D01*
X170253495Y-95281401D01*
X170301127Y-95213376D01*
X170355704Y-95169751D01*
X170402701Y-95160500D01*
X173188920Y-95160500D01*
X173286462Y-95141096D01*
X173333913Y-95131658D01*
X173470495Y-95075084D01*
X173519729Y-95042186D01*
X173593416Y-94992952D01*
X176632952Y-91953416D01*
X176688688Y-91870000D01*
X176715084Y-91830495D01*
X176771658Y-91693913D01*
X176800500Y-91548918D01*
X176800500Y-56076082D01*
X176799290Y-56070000D01*
X176793416Y-56040468D01*
X176782790Y-55987049D01*
X176780153Y-55973793D01*
X176772519Y-55935412D01*
X176771659Y-55931088D01*
X176717408Y-55800117D01*
X176715764Y-55795522D01*
X176632954Y-55671588D01*
X176632953Y-55671587D01*
X176632951Y-55671584D01*
X176528416Y-55567049D01*
X175625954Y-54664587D01*
X172428421Y-51467052D01*
X172428414Y-51467046D01*
X172354729Y-51417812D01*
X172354729Y-51417813D01*
X172305491Y-51384913D01*
X172168917Y-51328343D01*
X172168907Y-51328340D01*
X172023920Y-51299500D01*
X172023918Y-51299500D01*
X165601082Y-51299500D01*
X165601080Y-51299500D01*
X165456092Y-51328340D01*
X165456086Y-51328342D01*
X165319508Y-51384914D01*
X165319496Y-51384921D01*
X165270269Y-51417813D01*
X165196588Y-51467044D01*
X165196580Y-51467050D01*
X163072591Y-53591039D01*
X163011268Y-53624524D01*
X162974107Y-53626886D01*
X162945007Y-53624341D01*
X162944999Y-53624341D01*
X162709596Y-53644936D01*
X162709586Y-53644938D01*
X162481344Y-53706094D01*
X162481335Y-53706098D01*
X162267171Y-53805964D01*
X162267169Y-53805965D01*
X162073597Y-53941505D01*
X161906505Y-54108597D01*
X161776575Y-54294158D01*
X161721998Y-54337783D01*
X161652500Y-54344977D01*
X161590145Y-54313454D01*
X161573425Y-54294158D01*
X161443494Y-54108597D01*
X161276402Y-53941506D01*
X161276395Y-53941501D01*
X161268754Y-53936151D01*
X161127163Y-53837007D01*
X161082834Y-53805967D01*
X161082830Y-53805965D01*
X161082828Y-53805964D01*
X160868663Y-53706097D01*
X160868659Y-53706096D01*
X160868655Y-53706094D01*
X160640413Y-53644938D01*
X160640403Y-53644936D01*
X160405001Y-53624341D01*
X160404999Y-53624341D01*
X160169596Y-53644936D01*
X160169586Y-53644938D01*
X159941344Y-53706094D01*
X159941335Y-53706098D01*
X159727171Y-53805964D01*
X159727169Y-53805965D01*
X159533597Y-53941505D01*
X159366506Y-54108596D01*
X159318874Y-54176623D01*
X159264297Y-54220248D01*
X159217299Y-54229500D01*
X155112180Y-54229500D01*
X155045141Y-54209815D01*
X155012913Y-54179811D01*
X155010526Y-54176623D01*
X154932546Y-54072454D01*
X154932545Y-54072453D01*
X154825188Y-53992085D01*
X154783318Y-53936151D01*
X154775500Y-53892819D01*
X154775500Y-53156079D01*
X154762685Y-53091658D01*
X154746659Y-53011088D01*
X154697351Y-52892049D01*
X154696210Y-52889294D01*
X154690087Y-52874511D01*
X154690080Y-52874498D01*
X154621364Y-52771658D01*
X154621362Y-52771655D01*
X154607954Y-52751587D01*
X154607952Y-52751585D01*
X152253421Y-50397052D01*
X152253414Y-50397046D01*
X152179729Y-50347812D01*
X152179729Y-50347813D01*
X152130491Y-50314913D01*
X151993917Y-50258343D01*
X151993907Y-50258340D01*
X151848920Y-50229500D01*
X151848918Y-50229500D01*
X138951082Y-50229500D01*
X138951080Y-50229500D01*
X138806092Y-50258340D01*
X138806086Y-50258342D01*
X138669508Y-50314914D01*
X138669496Y-50314921D01*
X138620269Y-50347813D01*
X138546588Y-50397044D01*
X138546580Y-50397050D01*
X137052050Y-51891580D01*
X137052044Y-51891588D01*
X137002812Y-51965268D01*
X137002813Y-51965269D01*
X136969921Y-52014496D01*
X136969914Y-52014508D01*
X136913342Y-52151086D01*
X136913340Y-52151092D01*
X136884500Y-52296079D01*
X136884500Y-52842298D01*
X136864815Y-52909337D01*
X136831625Y-52943872D01*
X136763595Y-52991507D01*
X136596505Y-53158597D01*
X136466575Y-53344158D01*
X136411998Y-53387783D01*
X136342500Y-53394977D01*
X136280145Y-53363454D01*
X136263425Y-53344158D01*
X136133494Y-53158597D01*
X135966402Y-52991506D01*
X135966395Y-52991501D01*
X135772834Y-52855967D01*
X135772830Y-52855965D01*
X135743521Y-52842298D01*
X135558663Y-52756097D01*
X135558659Y-52756096D01*
X135558655Y-52756094D01*
X135330413Y-52694938D01*
X135330403Y-52694936D01*
X135095001Y-52674341D01*
X135094999Y-52674341D01*
X134859596Y-52694936D01*
X134859586Y-52694938D01*
X134631344Y-52756094D01*
X134631335Y-52756098D01*
X134417171Y-52855964D01*
X134417169Y-52855965D01*
X134223597Y-52991505D01*
X134056505Y-53158597D01*
X133926575Y-53344158D01*
X133871998Y-53387783D01*
X133802500Y-53394977D01*
X133740145Y-53363454D01*
X133723425Y-53344158D01*
X133593494Y-53158597D01*
X133426402Y-52991506D01*
X133426395Y-52991501D01*
X133232834Y-52855967D01*
X133232830Y-52855965D01*
X133203521Y-52842298D01*
X133018663Y-52756097D01*
X133018659Y-52756096D01*
X133018655Y-52756094D01*
X132790413Y-52694938D01*
X132790403Y-52694936D01*
X132555001Y-52674341D01*
X132554999Y-52674341D01*
X132319596Y-52694936D01*
X132319586Y-52694938D01*
X132091344Y-52756094D01*
X132091335Y-52756098D01*
X131877171Y-52855964D01*
X131877169Y-52855965D01*
X131683597Y-52991505D01*
X131516505Y-53158597D01*
X131386575Y-53344158D01*
X131331998Y-53387783D01*
X131262500Y-53394977D01*
X131200145Y-53363454D01*
X131183425Y-53344158D01*
X131053494Y-53158597D01*
X130886404Y-52991507D01*
X130818375Y-52943872D01*
X130774751Y-52889294D01*
X130765500Y-52842298D01*
X130765500Y-52116079D01*
X130736659Y-51971092D01*
X130736658Y-51971091D01*
X130736658Y-51971087D01*
X130703727Y-51891584D01*
X130680087Y-51834511D01*
X130680080Y-51834498D01*
X130597952Y-51711585D01*
X130597951Y-51711584D01*
X130493416Y-51607049D01*
X130353411Y-51467044D01*
X129878421Y-50992052D01*
X129878414Y-50992046D01*
X129804729Y-50942812D01*
X129804729Y-50942813D01*
X129755491Y-50909913D01*
X129618917Y-50853343D01*
X129618907Y-50853340D01*
X129473920Y-50824500D01*
X129473918Y-50824500D01*
X118448917Y-50824500D01*
X118301082Y-50824500D01*
X118301080Y-50824500D01*
X118156092Y-50853340D01*
X118156082Y-50853343D01*
X118019511Y-50909912D01*
X118019498Y-50909919D01*
X117896584Y-50992048D01*
X117896580Y-50992051D01*
X116142047Y-52746584D01*
X116142043Y-52746589D01*
X116099733Y-52809914D01*
X116099732Y-52809916D01*
X116059919Y-52869499D01*
X116059912Y-52869511D01*
X116003343Y-53006082D01*
X116003340Y-53006092D01*
X115974500Y-53151079D01*
X115974500Y-53151082D01*
X115974500Y-69873918D01*
X115974500Y-69873920D01*
X115974499Y-69873920D01*
X113275500Y-69873920D01*
X113275500Y-46604500D01*
X113295185Y-46537461D01*
X113347989Y-46491706D01*
X113399500Y-46480500D01*
X180150500Y-46480500D01*
X180217539Y-46500185D01*
G37*
%TD.AperFunction*%
%TD*%
M02*
